SplineFontDB: 3.0
FontName: ETBembo-SemiBoldOSF
FullName: ETBembo SemiBold Oldstyle Figures
FamilyName: ETBembo
Weight: Normal
Copyright: ETBembo designed for Eward Tufte / Graphics Press (c) 2002 Dmitry Krasny / Deka Design
Version: 001.001
ItalicAngle: 0
UnderlinePosition: -111
UnderlineWidth: 50
Ascent: 800
Descent: 200
InvalidEm: 0
LayerCount: 2
Layer: 0 0 "Back" 1
Layer: 1 0 "Fore" 0
UniqueID: 4096978
OS2Version: 0
OS2_WeightWidthSlopeOnly: 0
OS2_UseTypoMetrics: 0
CreationTime: 1444759070
ModificationTime: 1444759070
OS2TypoAscent: 0
OS2TypoAOffset: 1
OS2TypoDescent: 0
OS2TypoDOffset: 1
OS2TypoLinegap: 0
OS2WinAscent: 0
OS2WinAOffset: 1
OS2WinDescent: 0
OS2WinDOffset: 1
HheadAscent: 0
HheadAOffset: 1
HheadDescent: 0
HheadDOffset: 1
OS2Vendor: 'PfEd'
DEI: 91125
Encoding: AdobeStandard
UnicodeInterp: none
NameList: AGL For New Fonts
DisplaySize: -48
AntiAlias: 1
FitToEm: 0
BeginPrivate: 10
BlueValues 34 [ -12 -4 376 438 593 612 679 688 ]
OtherBlues 13 [ -260 -249 ]
BlueScale 7 0.01627
BlueShift 1 7
BlueFuzz 1 1
StdHW 6 [ 38 ]
StdVW 6 [ 96 ]
ForceBold 4 true
StemSnapH 9 [ 38 39 ]
StemSnapV 9 [ 80 96 ]
EndPrivate
BeginChars: 340 232

StartChar: Eth
Encoding: 256 208 1
Width: 795
Flags: W
LayerCount: 2
Fore
SplineSet
494 16 m 0
 428 -3 417 -5 280 -5 c 0
 227 -5 102 -4 30 -6 c 0
 22 -7 12 -2 12 8 c 0
 12 15 11 27 14 33 c 0
 23 49 29 43 43 43 c 0
 99 43 112 52 113 102 c 0
 115 161 114 224 114 284 c 0
 114 292 109 299 99 299 c 2
 15 298 l 2
 5 300 0 308 0 320 c 2
 0 355 l 1
 0 355 -1 375 24 375 c 2
 99 375 l 2
 108 375 114 389 114 398 c 2
 114 518 l 2
 114 613 108 613 33 613 c 0
 18 613 13 624 13 636 c 0
 13 652 20 659 32 661 c 2
 114 664 l 2
 188 667 263 667 337 667 c 0
 466 667 550 647 622 595 c 0
 701 537 750 450 750 349 c 0
 750 197 640 58 494 16 c 0
525 565 m 0
 483 598 442 611 365 619 c 0
 329 622 307 625 271 625 c 0
 254 625 221 632 221 606 c 2
 221 396 l 2
 221 387 229 375 236 375 c 2
 375 376 l 2
 396 376 402 363 402 353 c 2
 402 316 l 2
 399 302 393 300 376 300 c 2
 235 299 l 2
 228 299 221 292 221 280 c 2
 221 103 l 2
 221 43 222 37 296 37 c 0
 389 37 422 42 468 63 c 0
 564 107 625 213 625 332 c 0
 625 431 587 517 525 565 c 0
EndSplineSet
EndChar

StartChar: eth
Encoding: 257 240 2
Width: 545
Flags: W
LayerCount: 2
Fore
SplineSet
137 620 m 2
 132 621 114 630 122 645 c 2
 130 658 l 2
 136 670 149 674 160 671 c 0
 220 654 244 644 284 622 c 1
 374 667 l 2
 389 671 397 668 403 657 c 0
 418 633 368 616 339 601 c 0
 330 596 329 590 338 583 c 0
 378 553 421 499 446 455 c 0
 482 389 503 310 503 238 c 0
 503 146 482 87 430 40 c 0
 388 4 335 -17 276 -17 c 0
 142 -17 46 79 46 212 c 0
 46 341 144 440 271 440 c 0
 295 440 313 436 332 430 c 0
 360 420 322 476 319 480 c 0
 304 504 292 517 266 542 c 0
 259 548 243 551 233 546 c 2
 108 479 l 2
 101 478 91 479 86 491 c 0
 79 504 82 514 95 521 c 2
 201 577 l 2
 207 580 208 587 202 590 c 0
 183 601 166 609 136 620 c 1
 137 620 l 2
258 392 m 0
 194 392 141 331 141 244 c 0
 141 121 209 29 288 29 c 0
 356 29 407 89 407 178 c 0
 407 304 340 392 258 392 c 0
EndSplineSet
EndChar

StartChar: Lslash
Encoding: 232 321 3
Width: 578
Flags: W
LayerCount: 2
Fore
SplineSet
503 11 m 0
 498 1 486 -5 465 -5 c 0
 361 -5 100 -3 49 -7 c 0
 37 -10 24 -4 19 11 c 0
 19 19 17 25 19 30 c 0
 24 43 34 46 49 46 c 0
 92 46 117 47 119 93 c 0
 120 137 119 166 119 210 c 0
 119 221 120 246 110 237 c 2
 27 169 l 2
 16 160 -3 155 -3 179 c 2
 -3 226 l 2
 -3 237 0 243 7 248 c 2
 106 332 l 2
 117 341 119 351 119 357 c 2
 119 551 l 2
 119 602 104 613 49 613 c 0
 40 613 25 615 24 631 c 0
 24 634 23 637 23 640 c 0
 23 654 35 659 47 661 c 0
 93 663 291 659 332 659 c 0
 351 659 370 615 324 612 c 0
 318 611 309 611 298 611 c 0
 225 609 226 608 226 560 c 2
 226 453 l 2
 226 438 236 439 243 444 c 2
 325 514 l 2
 340 527 348 513 348 496 c 2
 348 449 l 2
 348 438 342 432 335 426 c 2
 240 346 l 2
 235 341 226 327 226 314 c 2
 226 103 l 2
 226 55 241 54 286 54 c 2
 380 54 l 2
 451 54 458 55 505 120 c 2
 540 167 l 1
 561 167 l 2
 581 167 582 158 571 138 c 0
 561 118 538 80 503 11 c 0
EndSplineSet
EndChar

StartChar: lslash
Encoding: 248 322 4
Width: 251
Flags: W
LayerCount: 2
Fore
SplineSet
267 405 m 2
 183 332 l 2
 176 326 173 320 173 309 c 2
 173 146 l 1
 173 101 l 2
 173 47 183 38 230 38 c 0
 258 38 253 -4 232 -4 c 0
 180 -3 72 -2 17 -4 c 0
 7 -2 2 5 2 14 c 0
 2 26 3 38 21 38 c 0
 71 38 85 52 85 100 c 2
 85 139 l 1
 85 245 l 2
 85 248 84 250 81 247 c 0
 -7 172 -30 145 -30 183 c 2
 -30 263 l 1
 6 294 43 323 77 355 c 0
 83 361 85 366 85 374 c 2
 85 556 l 1
 85 609 l 2
 85 612 82 619 81 619 c 0
 74 624 14 631 12 631 c 0
 7 635 2 641 3 650 c 0
 2 658 6 665 12 668 c 2
 150 708 l 2
 169 713 173 701 173 684 c 2
 173 446 l 2
 173 439 175 437 178 440 c 2
 258 509 l 2
 279 527 283 511 283 492 c 2
 283 435 l 2
 283 426 276 413 267 405 c 2
EndSplineSet
EndChar

StartChar: Scaron
Encoding: 258 352 5
Width: 513
Flags: W
LayerCount: 2
Fore
SplineSet
314 702 m 2
 308 697 305 695 296 695 c 2
 222 695 l 2
 211 695 203 699 200 706 c 2
 106 871 l 2
 102 878 107 883 111 884 c 0
 113 886 117 886 121 886 c 0
 128 886 137 884 141 880 c 2
 267 779 l 1
 374 880 l 2
 379 883 387 885 392 885 c 0
 403 885 411 878 409 872 c 2
 314 702 l 2
253 -19 m 0
 218 -19 184 -8 150 2 c 0
 130 8 127 9 123 9 c 0
 120 9 118 9 112 -1 c 1
 100 -7 87 -4 78 -1 c 1
 76 9 62 93 56 163 c 0
 55 176 87 180 94 171 c 0
 114 110 131 83 166 59 c 0
 194 39 211 31 244 31 c 0
 317 31 362 78 362 138 c 0
 362 218 272 269 214 308 c 0
 140 358 61 414 61 510 c 0
 61 604 133 670 239 670 c 0
 274 670 290 663 322 653 c 0
 343 645 350 644 356 644 c 0
 360 644 361 645 369 652 c 0
 378 655 390 655 398 652 c 1
 402 641 406 613 410 585 c 0
 413 557 417 527 418 513 c 0
 416 489 384 499 382 506 c 0
 352 580 311 623 248 623 c 0
 189 623 157 588 157 539 c 0
 157 474 239 421 286 389 c 0
 362 336 459 275 459 167 c 0
 459 60 376 -19 253 -19 c 0
EndSplineSet
EndChar

StartChar: scaron
Encoding: 259 353 6
Width: 314
Flags: W
LayerCount: 2
Fore
SplineSet
216 486 m 2
 211 480 196 479 188 479 c 2
 132 479 l 2
 122 479 105 482 103 490 c 2
 9 654 l 2
 6 666 15 669 24 669 c 0
 31 669 40 667 44 663 c 2
 169 562 l 1
 275 663 l 2
 280 666 287 668 293 668 c 0
 304 668 311 661 310 655 c 2
 216 486 l 2
220 311 m 0
 211 363 184 388 153 388 c 0
 125 388 106 368 106 342 c 0
 106 299 177 263 208 241 c 0
 250 212 288 174 288 119 c 0
 288 48 226 -10 154 -10 c 0
 134 -10 114 -7 95 1 c 0
 92 2 89 3 87 4 c 0
 86 3 83 2 79 -8 c 1
 72 -10 66 -14 58 -12 c 0
 51 -11 44 -7 44 2 c 0
 40 42 37 80 35 114 c 0
 34 126 49 129 62 127 c 0
 70 124 71 118 72 114 c 0
 85 56 114 31 151 31 c 0
 183 31 206 57 206 88 c 0
 206 175 31 194 31 312 c 0
 31 385 92 435 169 435 c 0
 195 435 224 428 255 415 c 1
 257 386 258 337 256 311 c 0
 256 308 247 301 238 301 c 0
 231 301 222 303 220 311 c 0
EndSplineSet
EndChar

StartChar: Yacute
Encoding: 260 221 7
Width: 728
Flags: W
LayerCount: 2
Fore
SplineSet
487 865 m 1
 487 864 l 2
 485 861 344 691 344 691 c 2
 336 682 303 683 310 705 c 2
 358 868 l 2
 363 877 371 884 381 884 c 2
 468 885 l 2
 481 885 491 879 487 865 c 1
716 608 m 0
 642 604 619 552 587 498 c 2
 442 253 l 1
 443 204 442 131 442 103 c 0
 442 57 470 49 505 47 c 0
 515 47 526 50 535 45 c 0
 544 40 542 30 542 18 c 0
 542 9 538 -4 525 -4 c 0
 405 -2 362 0 255 -3 c 0
 247 -3 237 1 234 8 c 0
 230 16 231 27 233 33 c 0
 235 38 238 44 243 46 c 0
 255 52 272 48 285 48 c 0
 319 50 330 68 332 103 c 0
 334 135 335 203 333 241 c 1
 154 521 l 2
 107 594 92 606 35 607 c 0
 26 607 19 607 16 618 c 0
 15 621 15 630 16 634 c 0
 17 642 23 651 33 650 c 0
 101 649 244 648 297 650 c 0
 312 650 326 607 294 607 c 0
 243 607 242 597 242 593 c 0
 242 584 239 581 268 536 c 2
 396 340 l 2
 400 334 413 339 418 346 c 2
 523 524 l 2
 541 555 551 578 551 587 c 0
 551 599 549 608 503 608 c 2
 492 608 l 1
 480 613 475 651 501 650 c 0
 551 648 638 648 716 650 c 0
 726 650 730 640 730 630 c 0
 730 622 726 608 716 608 c 0
EndSplineSet
EndChar

StartChar: yacute
Encoding: 261 253 8
Width: 488
Flags: W
LayerCount: 2
Fore
SplineSet
361 642 m 2
 361 641 l 2
 359 638 220 468 220 468 c 2
 210 459 179 460 185 482 c 2
 233 645 l 2
 238 654 246 661 256 661 c 2
 343 661 l 2
 353 661 364 657 362 646 c 0
 362 644 361 643 361 642 c 2
465 379 m 1
 429 376 413 361 374 254 c 2
 255 -74 l 2
 238 -121 225 -153 214 -180 c 0
 203 -206 192 -224 178 -241 c 0
 166 -256 143 -264 125 -264 c 0
 98 -264 72 -238 72 -211 c 0
 72 -184 95 -173 126 -165 c 0
 163 -155 198 -132 212 -50 c 2
 221 -6 l 1
 100 288 l 2
 66 372 64 375 19 379 c 0
 7 382 0 420 28 419 c 0
 30 419 38 419 40 419 c 0
 89 419 176 419 205 419 c 0
 235 420 223 381 213 379 c 0
 169 378 170 369 170 359 c 0
 170 354 172 347 181 327 c 0
 212 256 234 193 263 120 c 0
 266 116 270 111 271 115 c 2
 329 270 l 2
 336 289 352 329 352 349 c 0
 352 368 350 378 299 379 c 0
 290 383 286 416 302 418 c 0
 305 419 308 418 311 418 c 0
 369 418 405 419 458 419 c 0
 488 419 474 379 465 379 c 1
 465 379 l 1
EndSplineSet
EndChar

StartChar: Thorn
Encoding: 262 222 9
Width: 589
Flags: W
LayerCount: 2
Fore
SplineSet
299 137 m 0
 274 137 254 137 229 142 c 0
 225 142 226 129 226 127 c 0
 225 109 226 110 226 102 c 0
 226 51 239 39 296 39 c 0
 297 39 307 40 317 39 c 0
 329 38 342 33 342 24 c 0
 343 12 344 -5 321 -4 c 0
 254 -2 123 -2 55 -5 c 0
 44 -5 32 -4 34 13 c 0
 37 30 40 37 61 37 c 0
 102 37 106 43 110 50 c 0
 114 57 116 62 116 81 c 2
 116 129 l 1
 116 541 l 2
 116 581 115 597 110 606 c 0
 106 612 101 613 92 614 c 0
 76 619 41 614 31 618 c 0
 23 620 19 625 19 635 c 2
 19 644 l 2
 19 658 29 659 38 659 c 0
 92 658 221 656 286 658 c 0
 300 659 306 655 306 644 c 2
 306 633 l 2
 306 622 302 618 298 617 c 0
 297 616 294 616 291 616 c 0
 275 616 240 617 232 604 c 0
 223 589 226 566 226 550 c 0
 226 545 233 536 240 537 c 0
 297 537 354 536 410 522 c 0
 495 501 554 435 554 345 c 0
 554 216 454 137 299 137 c 0
374 478 m 0
 336 498 285 501 243 496 c 0
 237 494 226 492 226 483 c 2
 226 201 l 2
 226 189 230 184 234 183 c 0
 246 181 256 180 271 180 c 0
 370 180 436 247 436 348 c 0
 436 409 413 457 374 478 c 0
EndSplineSet
EndChar

StartChar: thorn
Encoding: 263 254 10
Width: 523
Flags: W
LayerCount: 2
Fore
SplineSet
253 -4 m 0
 229 -4 205 0 175 10 c 0
 169 12 172 2 172 -6 c 2
 172 -107 l 2
 172 -195 181 -211 230 -208 c 2
 245 -207 l 2
 260 -205 264 -211 266 -224 c 0
 268 -241 271 -253 246 -252 c 0
 192 -251 69 -250 22 -252 c 0
 -1 -253 3 -235 4 -220 c 0
 5 -201 23 -208 32 -208 c 0
 74 -207 82 -205 82 -107 c 2
 82 537 l 1
 82 563 l 2
 82 584 80 585 61 591 c 0
 38 597 19 596 19 625 c 2
 19 628 l 2
 18 633 20 636 25 639 c 0
 26 640 28 641 30 642 c 2
 137 709 l 1
 158 716 172 715 172 688 c 2
 172 407 l 2
 172 399 173 391 175 385 c 0
 175 383 174 380 176 382 c 0
 240 426 277 443 318 443 c 0
 406 443 480 344 480 238 c 0
 480 109 375 -4 253 -4 c 0
268 370 m 0
 240 370 206 355 172 325 c 1
 172 101 l 1
 206 69 248 51 281 51 c 0
 341 51 390 111 390 199 c 0
 390 299 334 370 268 370 c 0
EndSplineSet
EndChar

StartChar: Zcaron
Encoding: 264 381 11
Width: 705
Flags: W
LayerCount: 2
Fore
SplineSet
411 702 m 2
 405 697 402 695 393 695 c 2
 318 695 l 2
 309 695 298 699 296 707 c 2
 202 871 l 2
 198 878 203 883 206 884 c 0
 208 886 212 886 216 886 c 0
 223 886 232 884 236 880 c 2
 364 779 l 1
 472 880 l 2
 476 883 483 885 490 885 c 0
 501 885 509 878 507 872 c 2
 411 702 l 2
128 492 m 1
 127 482 94 477 86 496 c 1
 86 533 87 602 91 636 c 0
 94 645 109 649 118 650 c 2
 585 650 l 2
 606 650 627 638 610 611 c 2
 198 72 l 2
 184 58 221 58 227 58 c 2
 457 58 l 2
 565 58 581 98 591 196 c 1
 600 208 637 209 637 196 c 0
 635 147 628 60 623 14 c 0
 621 2 595 -2 588 -2 c 0
 518 -2 388 -3 276 -3 c 0
 167 -3 73 -2 61 -2 c 0
 50 -2 34 3 36 21 c 0
 36 26 39 34 42 38 c 2
 449 575 l 2
 454 581 451 592 448 592 c 2
 246 592 l 2
 151 592 140 587 128 492 c 1
 128 492 l 1
EndSplineSet
EndChar

StartChar: zcaron
Encoding: 265 382 12
Width: 410
Flags: W
LayerCount: 2
Fore
SplineSet
270 481 m 2
 265 474 260 473 253 473 c 2
 178 473 l 2
 167 473 158 476 156 484 c 2
 62 648 l 2
 58 659 69 663 77 663 c 0
 84 663 93 661 97 657 c 2
 223 556 l 1
 330 657 l 2
 334 660 342 662 349 662 c 0
 359 662 366 655 364 649 c 2
 270 481 l 2
241 360 m 0
 198 360 165 357 121 357 c 0
 100 357 91 354 70 270 c 0
 64 256 28 258 31 278 c 0
 31 279 31 281 32 282 c 0
 40 331 54 410 61 438 c 0
 64 444 99 444 99 436 c 0
 99 418 102 415 135 416 c 0
 192 417 291 418 347 418 c 0
 358 417 372 421 382 411 c 1
 384 401 385 390 379 383 c 0
 297 275 190 120 154 67 c 0
 150 62 154 56 161 56 c 0
 197 56 237 55 295 57 c 0
 326 57 332 67 355 120 c 1
 359 125 l 2
 366 140 401 137 395 119 c 2
 355 9 l 2
 352 3 345 -1 340 -2 c 0
 274 -1 105 -2 21 -2 c 0
 16 -2 13 12 15 23 c 0
 16 30 21 31 24 37 c 2
 250 350 l 2
 255 357 250 360 241 360 c 0
EndSplineSet
EndChar

StartChar: onehalf
Encoding: 266 189 13
Width: 715
Flags: W
LayerCount: 2
Fore
SplineSet
158 -24 m 2
 144 -44 145 -37 134 -37 c 2
 107 -31 l 2
 90 -27 91 -17 94 -12 c 2
 562 652 l 2
 571 664 575 660 582 662 c 2
 616 655 l 2
 625 653 631 647 624 637 c 2
 158 -24 l 2
528 57 m 2
 603 57 l 2
 610 57 630 56 636 60 c 0
 642 66 643 78 645 87 c 0
 646 94 652 96 658 96 c 0
 662 96 671 96 679 96 c 0
 691 96 691 90 691 84 c 0
 687 54 686 39 681 11 c 0
 678 -7 664 -6 658 -6 c 2
 435 -6 l 2
 423 -6 420 -5 420 7 c 2
 420 24 l 1
 437 44 460 67 500 102 c 0
 536 133 597 179 597 230 c 0
 597 257 574 279 541 279 c 0
 510 279 482 258 469 218 c 0
 465 210 426 211 426 222 c 0
 433 295 487 339 557 339 c 0
 623 339 679 298 679 237 c 0
 679 173 627 141 582 109 c 0
 562 96 544 82 521 62 c 0
 516 58 521 57 528 57 c 2
124 556 m 1
 107 545 88 538 69 531 c 1
 51 529 41 551 51 562 c 0
 89 586 129 617 147 640 c 0
 151 645 196 643 196 634 c 2
 196 357 l 2
 196 347 194 345 204 344 c 0
 209 344 226 342 230 343 c 0
 248 340 247 343 248 320 c 0
 248 309 241 299 236 299 c 0
 187 301 132 301 84 299 c 0
 77 299 71 310 71 320 c 0
 71 329 76 340 83 341 c 2
 110 344 l 2
 123 345 124 346 124 356 c 2
 124 556 l 1
EndSplineSet
EndChar

StartChar: onequarter
Encoding: 267 188 14
Width: 715
Flags: W
LayerCount: 2
Fore
SplineSet
158 -24 m 2
 154 -30 148 -34 140 -34 c 2
 108 -34 l 2
 93 -34 91 -15 97 -7 c 2
 562 651 l 1
 564 656 l 2
 568 660 571 660 575 660 c 2
 578 660 l 1
 619 660 l 2
 625 660 633 649 624 637 c 2
 158 -24 l 2
127 554 m 1
 109 543 89 537 70 528 c 1
 52 528 41 548 51 561 c 1
 91 585 133 617 151 640 c 0
 155 645 203 644 203 634 c 2
 203 351 l 2
 203 339 203 339 213 338 c 0
 232 337 257 345 257 314 c 0
 257 301 251 293 245 293 c 0
 193 295 136 295 86 293 c 0
 78 293 72 303 72 314 c 0
 73 324 79 335 85 335 c 2
 115 337 l 2
 126 338 127 339 127 350 c 2
 127 554 l 1
665 84 m 2
 621 84 l 2
 616 83 616 79 616 67 c 2
 617 -3 l 2
 617 -15 618 -20 602 -20 c 0
 601 -20 558 -22 553 -20 c 0
 546 -19 542 -15 540 -7 c 2
 541 65 l 2
 539 83 537 84 534 84 c 2
 409 84 l 2
 398 84 393 86 394 95 c 2
 394 117 l 1
 570 342 l 1
 582 346 589 348 602 345 c 0
 609 343 617 338 616 327 c 2
 616 151 l 2
 616 144 619 141 620 141 c 2
 660 141 l 2
 675 141 679 135 679 124 c 0
 679 120 680 99 677 92 c 0
 674 87 669 84 665 84 c 2
475 141 m 1
 528 141 l 2
 533 141 540 141 540 146 c 2
 540 228 l 1
 475 141 l 1
EndSplineSet
EndChar

StartChar: onesuperior
Encoding: 268 185 15
Width: 300
Flags: W
LayerCount: 2
Fore
SplineSet
124 556 m 1
 107 545 88 538 69 531 c 1
 51 529 41 551 51 562 c 0
 89 586 129 617 147 640 c 0
 151 645 196 643 196 634 c 2
 196 357 l 2
 196 347 194 345 204 344 c 0
 209 344 226 342 230 343 c 0
 248 340 247 343 248 320 c 0
 248 309 241 299 236 299 c 0
 187 301 132 301 84 299 c 0
 77 299 71 310 71 320 c 0
 71 329 76 340 83 341 c 2
 110 344 l 2
 123 345 124 346 124 356 c 2
 124 556 l 1
EndSplineSet
EndChar

StartChar: threequarters
Encoding: 269 190 16
Width: 715
Flags: W
LayerCount: 2
Fore
SplineSet
655 84 m 2
 611 84 l 2
 606 83 606 79 606 67 c 2
 607 0 l 2
 607 -12 608 -17 592 -17 c 0
 591 -17 548 -19 543 -17 c 0
 536 -16 532 -12 530 -4 c 2
 531 65 l 2
 529 83 527 84 524 84 c 2
 403 84 l 2
 386 84 383 91 384 100 c 1
 384 100 l 1
 384 117 l 1
 560 342 l 1
 572 346 579 348 592 345 c 0
 599 343 607 338 606 327 c 2
 606 151 l 2
 606 144 609 141 610 141 c 2
 650 141 l 2
 665 141 669 135 669 124 c 0
 669 120 670 99 667 92 c 0
 664 87 659 84 655 84 c 2
465 141 m 1
 518 141 l 2
 523 141 530 141 530 146 c 2
 530 228 l 1
 465 141 l 1
96 -9 m 2
 96 -10 l 1
 562 652 l 2
 568 661 580 666 589 662 c 2
 610 653 l 2
 623 647 627 641 621 633 c 2
 158 -24 l 2
 150 -35 142 -41 131 -38 c 2
 108 -31 l 2
 91 -26 93 -14 96 -9 c 2
219 511 m 1
 260 496 285 463 285 418 c 0
 285 344 205 286 122 286 c 0
 77 286 17 302 17 338 c 0
 17 357 36 372 55 372 c 0
 89 372 107 332 141 332 c 0
 173 332 205 365 205 406 c 0
 205 438 184 459 162 459 c 0
 153 459 145 458 131 448 c 0
 118 439 115 438 107 446 c 0
 98 455 88 472 103 482 c 0
 155 515 175 542 175 556 c 0
 175 571 162 585 138 585 c 0
 117 585 92 571 75 537 c 1
 66 528 24 536 32 556 c 0
 56 612 104 643 158 643 c 0
 206 643 252 617 252 572 c 0
 252 548 239 528 219 511 c 1
EndSplineSet
EndChar

StartChar: threesuperior
Encoding: 270 179 17
Width: 300
Flags: W
LayerCount: 2
Fore
SplineSet
209 515 m 1
 250 502 276 469 276 425 c 0
 276 352 197 294 115 294 c 0
 73 294 14 310 14 345 c 0
 14 365 31 378 50 378 c 0
 83 378 104 340 135 340 c 0
 166 340 197 371 197 413 c 0
 197 444 176 465 156 465 c 0
 145 465 138 463 125 453 c 0
 117 448 101 445 92 460 c 0
 87 468 91 483 98 487 c 0
 148 519 169 546 169 560 c 0
 169 575 155 589 133 589 c 0
 111 589 88 575 70 543 c 0
 51 516 24 548 28 560 c 0
 53 614 99 646 152 646 c 0
 199 646 242 620 242 576 c 0
 242 552 231 533 209 515 c 1
EndSplineSet
EndChar

StartChar: twosuperior
Encoding: 271 178 18
Width: 300
Flags: W
LayerCount: 2
Fore
SplineSet
118 364 m 2
 192 364 l 2
 199 364 219 363 225 367 c 0
 231 373 232 386 234 394 c 0
 235 401 241 403 247 403 c 0
 251 403 261 403 268 403 c 0
 280 403 280 397 280 391 c 0
 276 361 276 346 270 318 c 0
 267 300 253 301 247 301 c 2
 24 301 l 2
 12 301 9 302 9 314 c 2
 9 331 l 1
 26 351 49 374 90 409 c 0
 125 440 186 486 186 537 c 0
 186 564 163 586 131 586 c 0
 100 586 72 565 59 525 c 0
 55 517 15 518 15 529 c 0
 22 602 76 646 146 646 c 0
 212 646 268 605 268 544 c 0
 268 480 217 448 171 416 c 0
 151 403 133 389 110 369 c 0
 105 365 110 364 118 364 c 2
EndSplineSet
EndChar

StartChar: brokenbar
Encoding: 272 166 19
Width: 534
Flags: W
LayerCount: 2
Fore
SplineSet
236 473 m 1
 236 860 l 1
 301 860 l 1
 301 473 l 1
 236 473 l 1
236 -22 m 1
 236 364 l 1
 301 364 l 1
 301 -22 l 1
 236 -22 l 1
EndSplineSet
EndChar

StartChar: minus
Encoding: 273 8722 20
Width: 698
Flags: W
LayerCount: 2
Fore
SplineSet
598 305 m 0
 463 304 219 305 110 306 c 0
 86 306 71 302 71 324 c 2
 71 351 l 2
 71 368 78 372 96 372 c 0
 231 372 498 372 605 372 c 0
 627 372 630 363 630 350 c 2
 630 324 l 2
 630 300 620 305 598 305 c 0
EndSplineSet
EndChar

StartChar: multiply
Encoding: 274 215 21
Width: 699
Flags: W
LayerCount: 2
Fore
SplineSet
597 527 m 0
 548 479 454 381 415 346 c 0
 409 341 406 336 414 328 c 2
 592 151 l 2
 619 124 595 112 574 95 c 0
 558 82 547 84 538 93 c 2
 370 265 l 2
 355 280 345 275 334 262 c 0
 275 197 229 154 170 97 c 0
 145 74 128 95 111 112 c 0
 103 120 97 135 111 148 c 0
 149 184 243 281 288 325 c 0
 297 335 296 339 289 347 c 2
 116 521 l 2
 88 549 110 563 131 583 c 0
 132 585 149 598 164 584 c 0
 212 537 284 463 341 402 c 0
 352 391 355 391 370 405 c 0
 416 446 487 522 533 574 c 0
 542 584 565 591 572 585 c 2
 597 562 l 2
 607 554 611 541 597 527 c 0
EndSplineSet
EndChar

StartChar: exclam
Encoding: 33 33 22
Width: 272
Flags: W
LayerCount: 2
Fore
SplineSet
155 184 m 1
 150 173 128 164 119 184 c 1
 85 642 l 2
 83 669 84 690 118 690 c 2
 154 690 l 2
 193 690 192 678 189 642 c 2
 155 184 l 1
137 -15 m 0
 105 -15 80 9 80 43 c 0
 80 77 105 100 137 100 c 0
 168 100 195 78 195 43 c 0
 195 9 169 -15 137 -15 c 0
EndSplineSet
EndChar

StartChar: quotedbl
Encoding: 34 34 23
Width: 425
Flags: W
LayerCount: 2
Fore
SplineSet
352 519 m 2
 324 371 l 2
 317 348 283 360 281 371 c 2
 255 518 l 2
 250 544 242 570 242 597 c 0
 242 646 260 674 303 674 c 0
 340 674 363 647 363 608 c 0
 363 581 357 544 352 519 c 2
180 564 m 0
 178 549 175 534 172 520 c 2
 144 370 l 2
 140 365 134 360 123 361 c 0
 113 362 103 370 101 383 c 2
 77 521 l 2
 72 548 66 575 66 603 c 0
 66 647 84 674 123 674 c 0
 161 674 184 647 184 608 c 0
 184 593 182 578 180 564 c 0
EndSplineSet
EndChar

StartChar: numbersign
Encoding: 35 35 24
Width: 699
Flags: W
LayerCount: 2
Fore
SplineSet
642 201 m 2
 638 178 626 179 609 178 c 0
 580 177 539 177 512 178 c 0
 485 179 491 174 487 157 c 2
 455 -2 l 2
 451 -18 447 -29 427 -29 c 2
 398 -29 l 2
 364 -29 383 17 413 159 c 0
 416 176 415 177 404 178 c 0
 352 180 281 180 240 178 c 0
 221 177 220 180 216 160 c 2
 183 -1 l 2
 177 -31 162 -27 139 -28 c 0
 126 -29 108 -28 108 -8 c 0
 108 -1 110 0 111 7 c 2
 143 165 l 2
 145 175 142 178 130 178 c 2
 62 178 l 2
 45 178 36 178 36 200 c 0
 37 214 39 220 41 232 c 0
 41 247 49 253 68 253 c 2
 147 253 l 2
 159 253 161 254 164 266 c 2
 195 418 l 2
 196 422 195 427 189 427 c 0
 161 427 114 428 86 427 c 0
 66 427 55 431 56 448 c 0
 54 460 60 475 62 485 c 0
 62 493 70 501 88 502 c 0
 126 503 170 504 203 502 c 0
 212 502 213 502 215 512 c 2
 251 687 l 2
 256 708 262 712 281 709 c 0
 286 709 292 708 299 707 c 0
 323 705 327 703 322 679 c 2
 289 511 l 2
 287 505 291 502 295 502 c 0
 341 505 427 500 473 502 c 0
 483 503 484 506 486 515 c 2
 486 515 512 643 519 674 c 0
 523 693 523 706 547 708 c 2
 571 710 l 2
 612 713 591 666 559 511 c 0
 557 503 560 502 565 502 c 0
 590 500 618 502 643 501 c 0
 657 500 662 497 661 482 c 0
 658 466 656 456 653 441 c 0
 651 430 641 428 625 427 c 0
 606 427 574 427 555 427 c 0
 544 428 541 424 539 414 c 0
 538 411 537 407 536 402 c 2
 508 264 l 2
 506 255 512 253 517 253 c 0
 545 252 580 251 615 253 c 0
 632 253 653 256 648 230 c 2
 642 201 l 2
457 427 m 0
 418 428 318 428 287 427 c 0
 273 427 271 429 268 413 c 2
 236 264 l 2
 235 257 236 256 241 254 c 0
 288 256 373 255 414 254 c 0
 426 253 432 254 435 267 c 2
 465 410 l 2
 468 424 467 427 457 427 c 0
EndSplineSet
EndChar

StartChar: dollar
Encoding: 36 36 25
Width: 479
Flags: W
LayerCount: 2
Fore
SplineSet
298 506 m 2
 298 342 l 2
 298 338 298 329 301 326 c 0
 365 286 434 238 434 151 c 0
 434 76 383 16 303 -10 c 0
 296 -12 298 -18 298 -22 c 0
 298 -49 298 -65 299 -93 c 0
 299 -105 290 -107 283 -107 c 2
 268 -107 l 2
 259 -105 254 -97 255 -89 c 2
 256 -23 l 2
 256 -20 254 -19 253 -18 c 0
 237 -21 226 -20 212 -18 c 0
 209 -18 203 -16 203 -22 c 0
 204 -44 202 -67 205 -89 c 0
 206 -98 204 -103 195 -107 c 1
 169 -107 l 1
 159 -103 160 -95 161 -90 c 2
 161 -77 l 1
 161 -13 l 2
 160 -10 158 -8 158 -8 c 1
 127 2 91 15 67 41 c 0
 48 61 36 86 36 106 c 0
 36 130 56 151 79 151 c 0
 120 151 125 99 138 72 c 0
 142 65 146 58 155 50 c 0
 159 47 161 57 161 63 c 2
 161 296 l 2
 159 299 158 300 156 302 c 0
 103 342 53 376 53 452 c 0
 53 513 93 563 153 586 c 0
 159 588 161 596 161 602 c 2
 161 647 l 2
 164 658 176 657 186 658 c 0
 193 657 199 652 202 645 c 2
 202 604 l 2
 204 602 204 599 206 599 c 0
 219 600 234 600 247 599 c 0
 253 599 256 600 256 604 c 2
 256 644 l 2
 257 650 266 655 272 657 c 2
 285 657 l 2
 292 657 299 650 299 641 c 2
 298 603 l 2
 298 596 301 588 308 586 c 0
 366 567 410 534 410 495 c 0
 410 471 393 453 370 453 c 0
 338 453 325 484 309 506 c 0
 304 513 298 521 298 506 c 2
256 537 m 1
 256 536 l 2
 256 545 255 552 250 553 c 0
 237 557 224 559 211 557 c 0
 203 557 202 557 202 548 c 2
 202 404 l 2
 202 394 204 393 209 387 c 0
 226 373 231 372 248 360 c 0
 252 358 256 366 256 372 c 2
 256 537 l 1
161 437 m 2
 161 531 l 2
 161 538 159 542 156 540 c 0
 138 527 127 507 127 487 c 0
 127 465 133 449 153 430 c 0
 157 426 161 429 161 437 c 2
305 43 m 0
 339 64 352 90 352 128 c 0
 352 164 332 185 306 204 c 0
 300 209 298 201 298 194 c 2
 298 49 l 2
 298 44 297 37 305 43 c 0
256 229 m 2
 256 234 253 242 250 242 c 0
 237 251 223 260 209 268 c 0
 203 273 202 266 202 254 c 2
 203 38 l 2
 203 29 204 25 212 24 c 0
 223 22 239 21 250 22 c 0
 258 23 256 31 256 36 c 2
 256 229 l 2
EndSplineSet
EndChar

StartChar: percent
Encoding: 37 37 26
Width: 696
Flags: W
LayerCount: 2
Fore
SplineSet
189 308 m 0
 111 308 42 371 42 455 c 0
 42 544 108 606 188 606 c 0
 267 606 337 546 336 458 c 0
 334 371 270 308 189 308 c 0
186 563 m 0
 141 563 111 526 111 457 c 0
 111 387 143 351 189 351 c 0
 237 351 268 388 268 458 c 0
 268 528 236 563 186 563 c 0
173 -56 m 2
 167 -72 155 -71 143 -68 c 0
 123 -63 116 -54 124 -40 c 2
 508 629 l 2
 516 639 531 640 538 638 c 2
 549 633 l 2
 558 629 558 616 555 609 c 2
 173 -56 l 2
496 -42 m 0
 419 -42 349 19 349 105 c 0
 349 193 416 255 495 255 c 0
 574 255 645 196 643 108 c 0
 641 20 577 -42 496 -42 c 0
493 213 m 0
 449 213 418 175 418 107 c 0
 418 37 450 1 496 1 c 0
 544 1 575 37 575 108 c 0
 575 178 543 213 493 213 c 0
EndSplineSet
EndChar

StartChar: ampersand
Encoding: 38 38 27
Width: 763
Flags: W
LayerCount: 2
Fore
SplineSet
736 418 m 0
 714 415 681 417 664 400 c 0
 653 390 639 366 626 343 c 0
 614 319 603 295 599 289 c 0
 576 247 543 204 519 177 c 0
 518 176 518 174 522 168 c 0
 535 147 534 148 553 114 c 0
 590 47 603 38 626 38 c 0
 642 38 665 48 704 75 c 1
 719 79 738 47 723 39 c 0
 676 1 631 -19 589 -19 c 0
 509 -19 490 32 457 90 c 0
 454 96 447 98 444 94 c 0
 371 23 291 -19 220 -19 c 0
 120 -19 40 60 40 162 c 0
 40 213 64 261 102 294 c 0
 132 320 167 335 202 352 c 0
 207 355 210 361 205 365 c 0
 170 402 147 446 147 488 c 0
 147 567 211 618 299 618 c 0
 378 618 441 575 441 507 c 0
 441 457 405 415 342 379 c 0
 338 377 338 373 341 370 c 0
 364 353 391 328 416 305 c 0
 449 273 463 256 487 221 c 0
 490 217 493 214 496 219 c 0
 514 241 539 276 560 308 c 0
 592 358 608 400 608 409 c 0
 608 415 598 415 589 416 c 0
 576 418 561 419 556 420 c 0
 548 424 546 440 548 448 c 0
 550 455 555 458 562 458 c 0
 563 458 564 458 566 458 c 0
 604 456 688 457 737 459 c 0
 745 460 753 456 755 446 c 2
 755 433 l 2
 755 422 746 419 736 418 c 0
292 575 m 0
 258 575 236 553 236 513 c 0
 236 478 255 441 294 408 c 0
 301 401 303 403 309 407 c 0
 342 431 356 458 356 500 c 0
 356 547 330 575 292 575 c 0
426 143 m 0
 402 181 374 214 343 246 c 0
 317 273 284 302 252 323 c 0
 248 326 245 324 239 319 c 0
 174 271 149 229 149 174 c 0
 149 101 194 57 261 57 c 0
 313 57 383 88 426 137 c 0
 427 137 428 139 426 143 c 0
EndSplineSet
EndChar

StartChar: quotesingle
Encoding: 169 39 28
Width: 185
Flags: W
LayerCount: 2
Fore
SplineSet
144 562 m 0
 134 504 125 446 115 388 c 0
 114 377 108 361 92 363 c 0
 72 365 73 369 71 386 c 2
 49 520 l 2
 45 546 38 572 38 598 c 0
 38 646 54 674 92 674 c 0
 127 674 149 648 149 608 c 0
 149 594 147 578 144 562 c 0
EndSplineSet
EndChar

StartChar: parenleft
Encoding: 40 40 29
Width: 326
Flags: W
LayerCount: 2
Fore
SplineSet
281 -223 m 0
 270 -229 261 -221 255 -214 c 0
 149 -93 77 75 77 240 c 0
 77 411 153 579 264 704 c 1
 289 723 320 687 306 664 c 1
 265 617 220 533 193 461 c 0
 168 392 157 327 157 240 c 0
 157 112 181 22 244 -93 c 0
 270 -139 278 -151 306 -185 c 1
 313 -201 298 -215 281 -223 c 0
EndSplineSet
EndChar

StartChar: parenright
Encoding: 41 41 30
Width: 316
Flags: W
LayerCount: 2
Fore
SplineSet
55 -223 m 1
 33 -240 -7 -215 13 -183 c 1
 55 -135 100 -52 127 20 c 0
 152 89 163 154 163 242 c 0
 163 369 138 459 75 575 c 0
 51 617 43 632 20 658 c 0
 11 669 10 688 23 699 c 0
 37 710 54 708 63 697 c 0
 172 574 241 408 241 242 c 0
 241 71 169 -99 55 -223 c 1
EndSplineSet
EndChar

StartChar: asterisk
Encoding: 42 42 31
Width: 534
Flags: W
LayerCount: 2
Fore
SplineSet
236 447 m 2
 235 446 l 1
 235 446 170 420 131 410 c 0
 100 403 77 396 77 357 c 0
 77 339 94 317 118 317 c 0
 149 317 162 335 179 356 c 0
 194 375 213 398 250 421 c 0
 253 423 255 415 255 413 c 0
 253 363 247 345 242 329 c 0
 234 307 228 299 228 274 c 0
 228 249 244 225 272 225 c 0
 300 225 316 249 316 274 c 0
 316 286 315 296 312 303 c 0
 310 311 307 319 303 329 c 0
 297 345 291 364 290 414 c 0
 290 419 296 420 297 420 c 0
 335 396 351 375 366 356 c 0
 382 335 396 317 426 317 c 0
 451 317 467 339 467 357 c 0
 467 414 398 412 360 424 c 0
 344 429 332 434 310 447 c 0
 307 448 309 454 312 455 c 0
 334 466 345 470 361 475 c 0
 398 487 467 488 467 543 c 0
 467 553 460 584 422 584 c 0
 398 584 381 563 367 546 c 0
 351 527 335 507 298 483 c 0
 296 482 289 482 289 486 c 0
 290 526 296 545 302 566 c 0
 308 586 315 605 315 627 c 0
 315 649 301 674 272 674 c 0
 243 674 229 649 229 627 c 0
 229 605 237 586 243 566 c 0
 248 546 254 524 256 486 c 0
 256 478 254 479 249 482 c 0
 213 504 193 528 177 546 c 0
 163 562 147 584 123 584 c 0
 85 584 77 553 77 543 c 0
 77 506 99 497 130 489 c 0
 145 484 163 482 184 475 c 0
 199 470 214 466 234 456 c 0
 239 452 240 450 236 447 c 2
EndSplineSet
EndChar

StartChar: plus
Encoding: 43 43 32
Width: 698
Flags: W
LayerCount: 2
Fore
SplineSet
599 300 m 2
 397 300 l 2
 389 300 388 294 388 285 c 2
 388 75 l 2
 388 52 384 52 363 52 c 0
 350 52 347 51 332 52 c 0
 311 52 312 59 312 75 c 2
 312 293 l 2
 312 299 312 300 304 300 c 2
 92 300 l 2
 74 300 71 302 71 323 c 2
 71 353 l 2
 71 371 68 376 93 376 c 2
 303 376 l 2
 311 376 312 377 312 384 c 2
 312 589 l 2
 312 604 307 620 330 620 c 2
 369 620 l 2
 385 620 388 615 388 593 c 2
 388 380 l 2
 389 376 397 376 402 376 c 2
 606 376 l 2
 627 376 628 369 628 354 c 2
 628 323 l 2
 628 301 617 300 599 300 c 2
EndSplineSet
EndChar

StartChar: comma
Encoding: 44 44 33
Width: 251
Flags: W
LayerCount: 2
Fore
SplineSet
103 -136 m 0
 96 -139 84 -140 79 -135 c 0
 77 -133 76 -130 73 -128 c 0
 70 -119 70 -107 78 -104 c 0
 119 -79 137 -52 137 -26 c 0
 137 -18 136 -19 128 -22 c 0
 96 -29 70 -5 70 28 c 0
 70 60 96 82 125 82 c 0
 165 82 190 48 190 2 c 0
 190 -53 156 -110 103 -136 c 0
EndSplineSet
EndChar

StartChar: hyphen
Encoding: 45 45 34
Width: 435
Flags: W
LayerCount: 2
Fore
SplineSet
394 215 m 2
 391 204 386 200 379 199 c 0
 254 197 198 197 59 199 c 0
 49 199 46 208 44 214 c 2
 44 249 l 2
 44 263 60 268 68 268 c 0
 143 266 297 265 377 268 c 0
 387 268 396 258 396 249 c 2
 394 215 l 2
EndSplineSet
EndChar

StartChar: period
Encoding: 46 46 35
Width: 217
Flags: W
LayerCount: 2
Fore
SplineSet
126 -18 m 0
 92 -18 65 6 65 39 c 0
 65 74 91 97 126 97 c 0
 161 97 184 74 184 40 c 0
 184 7 161 -18 126 -18 c 0
EndSplineSet
EndChar

StartChar: slash
Encoding: 47 47 36
Width: 479
Flags: W
LayerCount: 2
Fore
SplineSet
121 1 m 2
 109 -23 106 -21 80 -21 c 0
 74 -21 66 -21 59 -20 c 0
 45 -18 29 -9 41 13 c 0
 152 230 258 441 371 658 c 0
 386 688 412 680 441 675 c 0
 454 673 461 657 449 640 c 2
 121 1 l 2
EndSplineSet
EndChar

StartChar: zero
Encoding: 48 48 37
Width: 489
Flags: W
LayerCount: 2
Fore
SplineSet
249 -14 m 0
 128 -14 38 84 38 215 c 0
 38 354 127 455 250 455 c 0
 375 455 463 355 463 218 c 0
 463 83 375 -14 249 -14 c 0
248 397 m 0
 172 397 120 333 120 221 c 0
 120 108 170 46 249 46 c 0
 331 46 382 107 382 220 c 0
 382 336 332 397 248 397 c 0
EndSplineSet
EndChar

StartChar: one
Encoding: 49 49 38
Width: 388
Flags: W
LayerCount: 2
Fore
SplineSet
163 325 m 0
 135 304 109 296 78 281 c 0
 63 273 51 308 59 315 c 0
 76 327 86 333 100 342 c 0
 135 366 178 405 203 440 c 0
 209 444 254 448 254 433 c 2
 254 89 l 2
 254 69 254 58 260 53 c 0
 262 51 265 50 274 50 c 0
 289 45 307 47 315 47 c 0
 320 47 326 47 332 46 c 0
 345 43 346 -4 330 -4 c 0
 252 -3 152 -1 93 -4 c 0
 76 -5 72 36 87 44 c 0
 94 48 103 48 108 47 c 0
 117 47 126 46 134 48 c 0
 159 49 171 58 171 86 c 2
 171 312 l 2
 171 314 172 333 163 325 c 0
EndSplineSet
EndChar

StartChar: two
Encoding: 50 50 39
Width: 481
Flags: W
LayerCount: 2
Fore
SplineSet
406 14 m 2
 402 -1 386 -4 374 -4 c 2
 366 -4 l 1
 42 -4 l 1
 28 3 33 27 38 33 c 0
 120 90 164 126 213 169 c 0
 273 223 294 259 294 297 c 0
 294 350 259 386 207 386 c 0
 171 386 140 373 98 334 c 0
 92 329 57 335 68 359 c 1
 128 427 178 455 245 455 c 0
 321 455 385 404 385 335 c 0
 385 231 260 140 182 85 c 0
 169 76 197 78 199 78 c 0
 251 78 283 77 336 79 c 0
 359 80 364 81 373 99 c 0
 381 112 391 132 402 161 c 1
 414 173 443 166 439 150 c 2
 406 14 l 2
EndSplineSet
EndChar

StartChar: three
Encoding: 51 51 40
Width: 407
Flags: W
LayerCount: 2
Fore
SplineSet
253 191 m 0
 265 187 277 181 284 175 c 0
 319 145 345 108 345 51 c 0
 345 -72 257 -180 149 -180 c 0
 94 -180 54 -160 54 -119 c 0
 54 -83 92 -68 118 -83 c 0
 124 -87 129 -92 135 -96 c 0
 166 -120 180 -125 195 -125 c 0
 226 -125 254 -85 254 -13 c 0
 254 50 243 78 217 102 c 0
 193 123 170 123 139 114 c 0
 118 108 116 145 125 151 c 0
 207 202 243 259 243 313 c 0
 243 359 219 382 184 382 c 0
 115 382 103 307 75 330 c 0
 70 335 65 343 68 353 c 0
 101 419 152 458 212 458 c 0
 278 458 330 403 330 333 c 0
 330 264 296 243 251 200 c 0
 247 195 249 192 253 191 c 0
EndSplineSet
EndChar

StartChar: four
Encoding: 52 52 41
Width: 489
Flags: W
LayerCount: 2
Fore
SplineSet
435 -4 m 2
 350 -3 l 2
 348 -3 342 -9 342 -10 c 0
 344 -60 343 -123 342 -154 c 0
 342 -163 347 -178 328 -178 c 2
 272 -178 l 2
 258 -179 250 -169 250 -164 c 0
 250 -138 251 -55 251 -11 c 0
 251 -8 244 -3 237 -3 c 0
 172 -3 109 -3 37 -3 c 0
 25 -1 24 23 30 32 c 2
 302 447 l 2
 304 450 307 452 311 454 c 0
 316 456 328 458 334 457 c 0
 339 455 342 452 342 449 c 2
 342 78 l 2
 343 71 345 69 351 66 c 2
 439 67 l 2
 450 64 452 69 456 53 c 0
 458 43 457 25 457 14 c 0
 457 -2 447 -6 435 -4 c 2
248 283 m 2
 111 72 l 2
 109 69 119 66 122 66 c 0
 177 64 197 66 242 66 c 0
 246 66 252 73 252 82 c 0
 251 137 253 206 255 277 c 0
 255 289 252 289 248 283 c 2
EndSplineSet
EndChar

StartChar: five
Encoding: 53 53 42
Width: 437
Flags: W
LayerCount: 2
Fore
SplineSet
334 365 m 0
 327 358 323 357 313 357 c 2
 222 369 l 2
 215 369 214 370 210 364 c 2
 172 316 l 2
 162 305 160 305 172 298 c 0
 211 273 230 257 263 225 c 0
 320 171 358 104 358 42 c 0
 358 -26 317 -88 253 -130 c 0
 206 -161 150 -177 99 -177 c 0
 68 -177 43 -161 43 -131 c 0
 43 -108 60 -88 83 -88 c 0
 90 -88 100 -90 110 -94 c 0
 152 -109 168 -113 179 -113 c 0
 229 -113 276 -58 276 11 c 0
 276 114 165 193 82 245 c 0
 69 253 77 269 80 273 c 0
 112 318 180 405 218 446 c 0
 224 453 227 455 236 454 c 2
 346 441 l 2
 363 439 372 435 367 418 c 0
 364 404 339 370 334 365 c 0
EndSplineSet
EndChar

StartChar: six
Encoding: 54 54 43
Width: 503
Flags: W
LayerCount: 2
Fore
SplineSet
255 -14 m 0
 135 -14 45 87 45 221 c 0
 45 432 240 560 411 614 c 0
 434 621 461 609 440 581 c 1
 339 535 270 490 208 406 c 0
 200 395 225 397 228 398 c 0
 237 399 246 399 255 399 c 0
 371 399 453 317 453 199 c 0
 453 78 367 -14 255 -14 c 0
242 361 m 0
 221 361 206 358 174 343 c 1
 149 280 143 251 143 199 c 0
 143 86 187 25 252 25 c 0
 277 25 301 35 318 52 c 0
 344 78 357 120 357 183 c 0
 357 300 313 361 242 361 c 0
EndSplineSet
EndChar

StartChar: seven
Encoding: 55 55 44
Width: 489
Flags: W
LayerCount: 2
Fore
SplineSet
201 -162 m 0
 198 -170 193 -180 182 -179 c 2
 144 -174 l 2
 135 -173 122 -165 129 -150 c 2
 351 349 l 2
 353 354 344 360 341 359 c 0
 266 358 184 358 137 357 c 0
 115 357 104 357 92 312 c 2
 80 262 l 2
 75 256 39 251 42 272 c 2
 62 421 l 1
 69 439 89 442 97 442 c 0
 176 445 333 445 411 442 c 0
 420 442 434 443 438 435 c 1
 438 412 l 1
 348 175 249 -63 201 -162 c 0
EndSplineSet
EndChar

StartChar: eight
Encoding: 56 56 45
Width: 464
Flags: W
LayerCount: 2
Fore
SplineSet
239 -14 m 0
 144 -14 64 50 64 142 c 0
 64 216 113 257 167 292 c 0
 174 296 178 302 172 307 c 0
 111 356 86 406 86 467 c 0
 86 555 153 614 245 614 c 0
 333 614 398 557 398 474 c 0
 398 417 373 376 311 334 c 0
 307 331 308 325 312 321 c 0
 385 259 419 215 419 149 c 0
 419 54 337 -14 239 -14 c 0
240 575 m 0
 191 575 158 544 158 500 c 0
 158 456 188 412 266 356 c 0
 270 353 277 357 281 359 c 0
 293 367 300 373 305 383 c 0
 319 404 327 434 327 464 c 0
 327 535 291 575 240 575 c 0
206 272 m 0
 162 241 145 193 145 144 c 0
 145 79 186 29 246 29 c 0
 297 29 334 67 334 117 c 0
 334 171 308 207 225 267 c 0
 220 271 212 275 206 272 c 0
EndSplineSet
EndChar

StartChar: nine
Encoding: 57 57 46
Width: 489
Flags: W
LayerCount: 2
Fore
SplineSet
70 -176 m 0
 43 -182 31 -142 52 -134 c 0
 144 -100 241 -52 294 33 c 0
 297 38 303 54 297 52 c 0
 271 46 257 42 230 42 c 0
 120 42 35 135 35 248 c 0
 35 369 121 456 234 456 c 0
 357 456 443 350 443 214 c 0
 443 -17 265 -129 70 -176 c 0
238 417 m 0
 150 417 131 329 131 258 c 0
 131 142 176 80 246 80 c 0
 268 80 286 83 314 97 c 0
 325 103 326 105 330 119 c 0
 344 167 346 198 346 245 c 0
 346 358 301 417 238 417 c 0
EndSplineSet
EndChar

StartChar: colon
Encoding: 58 58 47
Width: 257
Flags: W
LayerCount: 2
Fore
SplineSet
129 292 m 0
 99 292 76 314 76 346 c 0
 76 379 99 401 129 401 c 0
 159 401 182 379 182 346 c 0
 182 314 159 292 129 292 c 0
129 -10 m 0
 99 -10 76 14 76 45 c 0
 76 78 99 99 129 99 c 0
 159 99 182 78 182 45 c 0
 182 13 159 -10 129 -10 c 0
EndSplineSet
EndChar

StartChar: semicolon
Encoding: 59 59 48
Width: 230
Flags: W
LayerCount: 2
Fore
SplineSet
118 289 m 0
 87 289 64 312 64 344 c 0
 64 376 87 399 118 399 c 0
 148 399 173 377 173 344 c 0
 173 312 148 289 118 289 c 0
85 -144 m 0
 68 -150 55 -115 71 -107 c 0
 115 -79 134 -49 134 -21 c 0
 134 -15 134 -13 133 -13 c 0
 125 -13 118 -16 110 -16 c 0
 83 -16 63 9 63 38 c 0
 63 71 89 94 120 94 c 0
 161 94 191 58 191 8 c 0
 191 -55 147 -118 85 -144 c 0
EndSplineSet
EndChar

StartChar: less
Encoding: 60 60 49
Width: 698
Flags: W
LayerCount: 2
Fore
SplineSet
592 85 m 0
 455 136 206 247 84 303 c 0
 71 309 70 315 70 327 c 0
 67 336 69 348 70 353 c 0
 70 363 71 370 85 376 c 0
 212 432 487 550 597 594 c 0
 627 605 630 582 630 558 c 2
 630 543 l 2
 630 531 614 519 605 515 c 0
 503 472 305 388 200 346 c 0
 193 344 188 337 198 332 c 0
 306 286 509 201 613 160 c 0
 628 154 630 144 630 132 c 2
 630 111 l 2
 630 92 623 74 592 85 c 0
EndSplineSet
EndChar

StartChar: equal
Encoding: 61 61 50
Width: 698
Flags: W
LayerCount: 2
Fore
SplineSet
600 417 m 2
 97 417 l 2
 76 415 74 429 72 440 c 2
 71 477 l 2
 74 490 87 493 97 493 c 0
 223 494 482 493 604 496 c 0
 628 497 630 480 630 460 c 0
 630 455 631 447 631 439 c 0
 631 415 620 417 600 417 c 2
630 212 m 2
 629 193 626 186 599 186 c 2
 100 186 l 2
 82 186 68 188 68 212 c 2
 68 243 l 2
 68 270 88 266 101 265 c 0
 226 263 472 263 607 263 c 0
 617 263 632 259 631 240 c 2
 630 212 l 2
EndSplineSet
EndChar

StartChar: greater
Encoding: 62 62 51
Width: 698
Flags: W
LayerCount: 2
Fore
SplineSet
606 299 m 0
 483 243 233 138 107 85 c 0
 76 72 70 93 70 111 c 0
 70 119 69 126 69 132 c 0
 69 145 72 154 86 160 c 0
 189 201 395 286 501 332 c 0
 507 335 507 343 499 346 c 0
 361 406 192 475 94 515 c 0
 77 522 70 522 70 545 c 2
 70 562 l 2
 70 590 80 603 102 594 c 0
 256 530 481 434 609 378 c 0
 621 373 629 366 629 353 c 0
 630 348 632 336 630 328 c 0
 630 313 626 308 606 299 c 0
EndSplineSet
EndChar

StartChar: question
Encoding: 63 63 52
Width: 362
Flags: W
LayerCount: 2
Fore
SplineSet
251 324 m 0
 229 309 218 302 181 288 c 0
 151 277 144 267 144 252 c 0
 144 235 152 219 184 180 c 0
 188 175 181 163 176 161 c 0
 166 158 148 163 141 171 c 0
 106 215 89 249 89 285 c 0
 89 336 113 362 171 384 c 0
 256 417 276 442 276 490 c 0
 276 539 244 568 185 568 c 0
 157 568 135 561 110 561 c 0
 71 561 42 576 42 610 c 0
 42 653 86 670 140 670 c 0
 248 670 325 590 325 475 c 0
 325 408 298 357 251 324 c 0
156 -17 m 0
 122 -17 94 8 94 43 c 0
 94 79 122 102 156 102 c 0
 191 102 218 78 218 43 c 0
 218 8 191 -17 156 -17 c 0
EndSplineSet
EndChar

StartChar: at
Encoding: 64 64 53
Width: 960
Flags: W
LayerCount: 2
Fore
SplineSet
587 473 m 0
 599 500 600 502 626 505 c 0
 635 505 659 505 666 505 c 0
 677 505 682 498 682 488 c 0
 672 455 641 342 622 274 c 0
 604 210 599 203 597 176 c 0
 596 156 601 144 618 144 c 0
 644 144 684 167 712 201 c 0
 756 254 788 331 788 406 c 0
 788 550 677 654 525 654 c 0
 333 654 177 484 177 265 c 0
 177 74 324 -54 493 -54 c 0
 638 -54 752 19 815 162 c 0
 821 174 823 178 839 178 c 0
 842 178 846 177 849 177 c 0
 864 174 861 162 859 156 c 0
 804 -4 660 -105 491 -105 c 0
 278 -105 114 57 114 276 c 0
 114 512 297 697 522 697 c 0
 704 697 837 585 837 409 c 0
 837 243 723 92 590 92 c 0
 543 92 516 116 516 162 c 0
 516 166 519 189 509 177 c 0
 474 137 422 92 370 92 c 0
 319 92 283 143 283 201 c 0
 283 275 318 369 382 435 c 0
 424 479 475 506 515 506 c 0
 544 506 565 496 580 477 c 0
 586 468 586 469 587 473 c 0
519 465 m 0
 502 465 478 453 459 430 c 0
 407 369 371 268 371 214 c 0
 371 183 390 164 408 164 c 0
 437 164 470 184 510 238 c 0
 547 287 566 352 566 412 c 0
 566 445 543 465 519 465 c 0
EndSplineSet
EndChar

StartChar: A
Encoding: 65 65 54
Width: 711
Flags: W
LayerCount: 2
Fore
SplineSet
413 -3 m 0
 397 -3 396 10 396 22 c 0
 396 42 410 45 422 45 c 0
 440 45 452 46 463 46 c 0
 495 48 503 61 493 89 c 0
 469 152 449 206 426 269 c 0
 424 273 414 278 405 278 c 0
 360 279 292 278 256 278 c 0
 246 279 240 271 236 265 c 0
 218 212 189 135 174 95 c 0
 170 83 169 73 169 65 c 0
 169 42 214 42 233 44 c 0
 239 45 245 45 253 44 c 0
 260 43 265 30 265 19 c 0
 264 8 257 -3 253 -3 c 0
 194 -2 92 0 39 -3 c 0
 35 -3 32 -3 28 -3 c 0
 13 0 12 22 14 33 c 0
 16 42 24 45 28 45 c 0
 76 45 81 47 100 92 c 0
 106 107 112 121 116 132 c 2
 300 633 l 1
 294 657 l 2
 292 664 301 671 314 672 c 0
 323 672 344 672 346 672 c 0
 362 672 383 674 393 659 c 0
 510 353 556 229 578 172 c 0
 587 146 596 120 605 95 c 0
 621 51 628 42 670 42 c 2
 677 42 l 2
 695 42 697 -5 676 -4 c 0
 613 -1 483 -1 413 -3 c 0
326 512 m 0
 309 460 283 393 268 353 c 0
 267 348 272 347 275 345 c 0
 310 346 358 346 387 345 c 0
 390 345 394 353 392 358 c 0
 377 398 353 471 338 521 c 0
 335 528 332 531 326 512 c 0
EndSplineSet
EndChar

StartChar: B
Encoding: 66 66 55
Width: 656
Flags: W
LayerCount: 2
Fore
SplineSet
499 362 m 0
 569 328 615 272 615 201 c 0
 615 108 546 23 458 6 c 0
 426 0 408 -6 325 -4 c 0
 228 -2 119 -2 34 -4 c 0
 11 -2 23 41 32 44 c 0
 40 45 50 47 58 45 c 0
 133 45 142 57 142 136 c 2
 142 512 l 2
 142 606 127 606 65 606 c 2
 42 606 l 2
 28 606 31 650 42 651 c 0
 144 663 228 660 331 660 c 0
 418 660 439 653 486 632 c 0
 541 607 577 557 577 500 c 0
 577 449 544 404 497 379 c 0
 485 373 491 366 499 362 c 0
421 590 m 0
 375 628 320 622 266 618 c 0
 259 616 253 610 253 600 c 2
 253 404 l 2
 253 394 271 390 272 390 c 0
 319 390 369 385 413 404 c 0
 443 417 461 449 461 494 c 0
 461 534 447 568 421 590 c 0
424 323 m 0
 374 353 326 344 270 344 c 0
 260 342 253 328 253 320 c 2
 253 178 l 2
 253 144 255 116 258 101 c 0
 264 66 289 49 357 49 c 0
 440 49 496 113 496 195 c 0
 496 248 469 297 424 323 c 0
EndSplineSet
EndChar

StartChar: C
Encoding: 67 67 56
Width: 762
Flags: W
LayerCount: 2
Fore
SplineSet
627 6 m 1
 611 10 609 10 602 10 c 0
 570 10 557 5 527 -5 c 0
 490 -17 450 -19 412 -19 c 0
 201 -19 53 123 53 317 c 0
 53 522 205 665 423 665 c 0
 487 665 525 654 586 631 c 0
 599 626 617 618 629 628 c 0
 636 634 660 631 662 624 c 0
 670 586 672 558 671 534 c 0
 671 512 670 493 671 474 c 1
 667 457 639 451 631 464 c 0
 598 560 530 616 429 616 c 0
 273 616 178 509 178 338 c 0
 178 163 287 34 443 34 c 0
 508 34 553 54 600 96 c 0
 625 119 632 128 657 173 c 0
 663 187 704 187 699 168 c 0
 683 116 656 54 627 6 c 1
EndSplineSet
EndChar

StartChar: D
Encoding: 68 68 57
Width: 773
Flags: W
LayerCount: 2
Fore
SplineSet
24 649 m 0
 26 650 29 650 31 651 c 0
 130 655 224 659 322 659 c 0
 451 659 528 639 600 588 c 0
 679 531 722 446 722 346 c 0
 722 196 620 60 475 18 c 0
 404 -2 351 -3 279 -3 c 2
 43 -4 l 2
 34 -4 20 -3 16 9 c 0
 13 18 10 40 28 46 c 0
 57 51 94 42 107 80 c 0
 113 98 111 118 111 137 c 2
 111 512 l 2
 111 594 113 606 34 606 c 2
 25 606 l 2
 8 606 14 646 24 649 c 0
505 558 m 0
 462 590 426 604 349 612 c 0
 306 616 283 616 240 614 c 0
 231 613 221 604 221 594 c 2
 221 106 l 2
 221 62 229 45 291 45 c 0
 474 45 602 124 602 330 c 0
 602 426 566 511 505 558 c 0
EndSplineSet
EndChar

StartChar: E
Encoding: 69 69 58
Width: 619
Flags: W
LayerCount: 2
Fore
SplineSet
565 17 m 0
 563 -4 535 -2 521 -2 c 0
 390 -1 173 -1 42 -3 c 1
 37 -2 l 2
 15 2 22 45 39 47 c 0
 53 49 66 48 81 48 c 0
 132 49 148 59 148 137 c 2
 148 511 l 2
 148 579 142 604 77 604 c 0
 64 604 53 602 45 616 c 0
 41 624 45 635 49 642 c 0
 54 652 62 650 71 650 c 0
 201 651 413 652 508 650 c 0
 520 650 531 644 532 635 c 0
 540 563 539 529 541 500 c 0
 539 490 520 488 509 492 c 0
 499 494 498 502 498 507 c 0
 485 586 476 593 399 594 c 0
 366 595 316 597 275 595 c 0
 269 595 257 588 257 577 c 2
 257 380 l 2
 257 366 272 365 275 365 c 2
 378 365 l 2
 453 365 454 365 463 433 c 0
 466 442 498 450 503 423 c 0
 505 372 503 291 503 247 c 0
 502 219 464 226 462 238 c 0
 452 302 451 305 375 306 c 2
 278 306 l 2
 261 306 257 292 257 286 c 2
 257 131 l 2
 257 58 254 57 330 57 c 2
 401 57 l 2
 475 57 486 61 501 79 c 0
 514 94 527 121 536 156 c 0
 538 166 544 170 550 171 c 0
 562 172 576 169 579 163 c 0
 585 152 575 101 565 17 c 0
EndSplineSet
EndChar

StartChar: F
Encoding: 70 70 59
Width: 543
Flags: W
LayerCount: 2
Fore
SplineSet
496 517 m 1
 485 510 473 511 464 513 c 0
 456 516 456 522 456 527 c 0
 452 582 439 592 354 592 c 2
 241 592 l 2
 233 592 229 587 226 576 c 2
 225 389 l 2
 225 384 237 377 240 377 c 0
 280 374 316 376 357 377 c 0
 427 377 435 380 439 424 c 0
 441 442 476 443 478 428 c 0
 478 418 480 302 478 250 c 0
 476 239 442 234 440 251 c 0
 435 311 427 320 353 318 c 0
 325 317 273 317 245 318 c 0
 234 317 226 306 226 298 c 2
 226 103 l 2
 226 53 239 43 293 43 c 2
 304 43 l 2
 313 41 315 33 315 18 c 0
 315 6 309 -4 302 -3 c 0
 229 -2 131 -1 56 -3 c 0
 34 -3 39 39 52 41 c 0
 106 44 118 54 118 103 c 2
 118 545 l 2
 118 595 103 604 52 606 c 0
 38 609 37 652 57 650 c 0
 171 651 365 651 478 650 c 0
 489 650 500 637 499 627 c 2
 496 517 l 1
EndSplineSet
EndChar

StartChar: G
Encoding: 71 71 60
Width: 763
Flags: W
LayerCount: 2
Fore
SplineSet
715 250 m 0
 671 248 659 235 658 187 c 0
 657 160 657 105 658 75 c 0
 658 64 657 49 646 44 c 0
 579 9 471 -19 386 -19 c 0
 191 -19 55 123 55 314 c 0
 55 414 100 508 171 574 c 0
 239 638 308 667 414 667 c 0
 468 667 505 659 578 637 c 0
 595 632 600 632 607 632 c 0
 615 632 617 633 623 639 c 0
 627 645 647 645 650 639 c 0
 655 630 657 515 654 464 c 0
 653 444 615 445 612 461 c 0
 591 567 533 621 429 621 c 0
 269 621 175 506 175 319 c 0
 175 147 271 29 418 29 c 0
 460 29 502 41 543 59 c 0
 552 63 552 78 552 87 c 0
 552 113 552 154 552 187 c 0
 552 235 538 245 481 247 c 2
 443 248 l 2
 428 248 419 290 443 293 c 0
 517 291 649 292 715 293 c 0
 730 293 732 278 730 270 c 0
 728 260 720 250 715 250 c 0
EndSplineSet
EndChar

StartChar: H
Encoding: 72 72 61
Width: 788
Flags: W
LayerCount: 2
Fore
SplineSet
751 -3 m 0
 682 -1 604 -3 471 -3 c 0
 461 -3 455 1 453 10 c 0
 449 22 453 46 470 46 c 2
 494 46 l 2
 544 46 564 56 564 103 c 2
 564 286 l 2
 563 294 548 299 541 299 c 0
 444 298 341 299 238 299 c 0
 237 299 223 293 223 280 c 2
 223 103 l 2
 223 54 236 45 288 45 c 2
 297 45 l 2
 318 48 325 1 298 -3 c 1
 234 -1 109 -3 47 -3 c 0
 39 -3 30 -2 26 7 c 0
 24 14 22 28 27 37 c 0
 34 50 48 46 61 46 c 0
 103 49 116 57 116 103 c 2
 116 545 l 2
 116 592 103 604 61 607 c 0
 52 608 50 607 47 615 c 0
 43 628 46 651 56 650 c 0
 120 647 237 647 293 650 c 0
 301 650 299 650 307 645 c 0
 314 637 312 627 310 618 c 0
 308 609 301 609 293 608 c 0
 237 608 223 589 223 545 c 2
 223 375 l 2
 223 363 230 356 240 356 c 0
 340 356 431 354 540 356 c 0
 545 356 564 363 564 377 c 0
 565 437 564 486 564 545 c 0
 564 593 537 605 494 607 c 2
 473 608 l 2
 460 610 458 629 462 641 c 0
 467 651 474 653 485 653 c 0
 556 655 673 648 732 650 c 0
 755 651 761 610 740 606 c 0
 737 605 734 605 731 605 c 0
 699 602 673 594 671 545 c 0
 668 396 671 198 671 103 c 0
 671 61 689 47 741 47 c 0
 750 47 763 46 768 36 c 0
 772 25 769 -3 751 -3 c 0
EndSplineSet
EndChar

StartChar: I
Encoding: 73 73 62
Width: 363
Flags: W
LayerCount: 2
Fore
SplineSet
294 607 m 0
 240 606 233 600 233 511 c 2
 233 103 l 2
 233 45 253 47 302 45 c 0
 310 45 313 43 317 35 c 0
 323 21 320 -4 306 -4 c 0
 245 -2 129 -2 69 -4 c 0
 60 -4 52 5 52 17 c 0
 52 23 51 32 54 37 c 0
 60 45 66 43 76 44 c 0
 120 49 127 60 128 103 c 2
 129 137 l 1
 129 511 l 1
 128 545 l 2
 127 594 122 601 74 607 c 0
 70 607 64 608 62 609 c 0
 52 616 53 634 58 643 c 0
 63 651 67 651 76 651 c 0
 154 650 179 646 296 651 c 0
 306 651 316 650 317 635 c 0
 318 629 317 620 314 615 c 0
 311 608 301 607 294 607 c 0
EndSplineSet
EndChar

StartChar: J
Encoding: 74 74 63
Width: 324
Flags: W
LayerCount: 2
Fore
SplineSet
291 609 m 0
 285 606 268 606 260 605 c 0
 230 603 216 580 216 545 c 2
 216 74 l 2
 216 -9 196 -129 151 -199 c 0
 116 -253 70 -289 10 -289 c 0
 -46 -289 -90 -263 -90 -222 c 0
 -90 -195 -69 -170 -42 -170 c 0
 -24 -170 -10 -187 3 -197 c 0
 11 -203 18 -210 27 -215 c 0
 46 -225 74 -213 87 -194 c 0
 107 -165 111 -129 111 9 c 0
 111 307 111 430 111 484 c 0
 111 505 111 524 110 545 c 0
 109 595 95 605 41 605 c 0
 37 605 32 608 29 608 c 0
 11 609 7 653 33 650 c 0
 40 650 46 650 55 649 c 0
 114 649 178 651 283 650 c 0
 306 650 301 612 291 609 c 0
EndSplineSet
EndChar

StartChar: K
Encoding: 75 75 64
Width: 740
Flags: W
LayerCount: 2
Fore
SplineSet
698 -3 m 1
 618 2 482 -3 415 -4 c 0
 408 -3 402 -2 398 5 c 0
 395 12 394 23 397 32 c 0
 401 43 408 41 417 41 c 0
 474 43 464 71 455 82 c 0
 400 151 348 226 275 278 c 0
 264 287 254 290 244 292 c 0
 235 293 234 276 234 266 c 2
 234 103 l 2
 234 60 248 44 304 44 c 0
 312 44 323 43 328 34 c 0
 331 27 331 10 328 3 c 0
 325 -3 317 -4 309 -4 c 0
 235 -1 104 -2 48 -4 c 0
 41 -4 30 -5 25 2 c 0
 18 12 16 37 36 45 c 0
 43 47 51 46 57 45 c 0
 98 45 127 57 127 103 c 2
 127 545 l 2
 127 595 113 607 57 607 c 2
 37 607 l 2
 22 608 19 632 24 642 c 0
 27 651 35 652 43 652 c 0
 163 649 255 649 308 651 c 0
 315 651 327 648 327 630 c 0
 327 614 317 607 304 607 c 0
 247 607 234 595 234 545 c 2
 234 345 l 2
 234 339 240 336 243 337 c 0
 255 341 265 348 277 359 c 0
 326 402 436 535 436 589 c 0
 436 599 435 603 390 607 c 0
 381 608 387 608 374 609 c 1
 362 618 365 635 368 642 c 0
 370 649 380 651 385 650 c 0
 482 647 584 648 632 650 c 0
 650 651 654 628 647 616 c 0
 644 611 638 609 631 610 c 0
 567 609 532 595 501 552 c 0
 490 537 481 521 472 508 c 0
 438 456 400 406 361 357 c 0
 358 353 354 348 350 344 c 1
 363 337 377 325 400 302 c 0
 464 242 514 170 570 102 c 0
 612 51 633 45 693 45 c 0
 702 45 707 45 711 36 c 0
 717 24 718 1 698 -3 c 1
EndSplineSet
EndChar

StartChar: L
Encoding: 76 76 65
Width: 595
Flags: W
LayerCount: 2
Fore
SplineSet
510 17 m 0
 504 6 494 -4 475 -4 c 0
 298 -1 73 -2 43 -3 c 0
 33 -4 25 2 23 10 c 0
 20 18 20 40 32 45 c 0
 35 46 43 46 47 47 c 0
 71 47 114 52 120 82 c 0
 121 93 122 101 122 141 c 2
 122 545 l 2
 122 595 107 606 52 606 c 2
 40 606 l 2
 27 607 24 634 31 643 c 0
 35 652 46 652 51 651 c 0
 148 649 217 650 330 652 c 0
 337 652 346 651 349 639 c 0
 353 624 351 605 332 604 c 0
 322 603 311 602 300 602 c 0
 240 600 228 595 228 555 c 2
 228 105 l 2
 228 67 251 57 288 57 c 2
 371 57 l 2
 443 57 456 59 503 121 c 2
 539 167 l 1
 548 171 558 173 566 167 c 0
 575 162 573 151 572 149 c 0
 548 93 524 38 510 17 c 0
EndSplineSet
EndChar

StartChar: M
Encoding: 77 77 66
Width: 942
Flags: W
LayerCount: 2
Fore
SplineSet
204 484 m 2
 183 142 l 2
 182 122 181 104 181 93 c 0
 181 59 192 46 245 42 c 0
 253 42 262 40 265 29 c 0
 267 22 267 10 263 4 c 0
 259 -1 252 -1 245 -3 c 0
 194 -1 115 0 48 -2 c 0
 38 0 31 -2 27 9 c 0
 24 16 24 25 27 32 c 0
 31 41 35 43 45 42 c 0
 92 39 109 50 115 92 c 0
 116 105 117 120 118 137 c 0
 127 281 144 424 144 568 c 0
 144 595 136 600 94 604 c 0
 84 605 79 608 76 613 c 0
 74 619 73 628 75 636 c 0
 77 648 84 652 93 651 c 0
 128 649 198 649 230 650 c 0
 242 650 253 650 259 637 c 2
 464 171 l 2
 466 167 474 158 479 170 c 2
 681 635 l 2
 688 647 705 650 711 650 c 0
 756 649 801 649 846 650 c 0
 863 651 867 626 862 614 c 0
 860 608 854 606 851 606 c 0
 820 603 791 608 791 570 c 0
 791 554 792 544 793 529 c 2
 820 139 l 2
 826 49 838 43 890 43 c 0
 902 43 910 43 913 28 c 0
 914 22 913 16 913 10 c 0
 911 1 905 -3 893 -3 c 0
 844 0 710 -1 645 -2 c 0
 630 -2 625 1 623 9 c 0
 621 15 622 23 623 30 c 0
 624 35 634 43 645 43 c 0
 716 43 720 67 714 134 c 0
 713 150 716 134 693 480 c 0
 693 488 686 499 683 490 c 2
 472 2 l 2
 468 -8 435 -8 430 2 c 2
 215 487 l 2
 210 498 205 499 204 484 c 2
EndSplineSet
EndChar

StartChar: N
Encoding: 78 78 67
Width: 834
Flags: W
LayerCount: 2
Fore
SplineSet
786 607 m 0
 713 605 710 602 710 529 c 2
 710 9 l 2
 710 -18 663 -13 655 -4 c 0
 490 184 364 330 216 498 c 0
 211 503 198 515 198 505 c 2
 198 142 l 2
 198 122 197 96 203 77 c 0
 209 60 220 50 245 48 c 0
 257 47 294 52 300 38 c 0
 306 23 304 -3 283 -3 c 0
 222 -2 112 -1 52 -4 c 0
 47 -4 40 1 37 8 c 0
 31 22 34 44 57 44 c 0
 118 44 126 74 126 96 c 2
 126 590 l 1
 109 601 84 606 49 607 c 0
 42 607 40 619 40 630 c 0
 40 646 49 650 61 651 c 0
 116 654 168 650 202 651 c 0
 209 651 223 645 230 637 c 2
 630 181 l 2
 633 176 640 189 640 197 c 2
 640 512 l 2
 640 562 640 581 629 590 c 0
 624 595 617 599 605 601 c 0
 591 603 573 603 551 605 c 0
 533 606 529 652 551 651 c 0
 628 648 704 650 794 652 c 0
 804 652 805 634 805 627 c 0
 806 611 800 607 786 607 c 0
EndSplineSet
EndChar

StartChar: O
Encoding: 79 79 68
Width: 827
Flags: W
LayerCount: 2
Fore
SplineSet
413 -19 m 0
 205 -19 50 125 50 312 c 0
 50 515 202 667 415 667 c 0
 623 667 772 527 772 339 c 0
 772 138 619 -19 413 -19 c 0
387 619 m 0
 256 619 171 506 171 338 c 0
 171 162 278 30 430 30 c 0
 598 30 651 160 651 309 c 0
 651 491 546 619 387 619 c 0
EndSplineSet
EndChar

StartChar: P
Encoding: 80 80 69
Width: 577
Flags: W
LayerCount: 2
Fore
SplineSet
38 609 m 2
 33 609 26 618 25 628 c 0
 25 639 30 649 38 650 c 0
 116 659 187 659 263 659 c 0
 332 659 356 656 395 646 c 0
 482 623 539 554 539 470 c 0
 539 343 444 265 288 265 c 0
 267 265 260 266 246 268 c 0
 240 269 237 268 236 253 c 2
 236 103 l 2
 236 37 272 45 321 48 c 0
 342 50 357 43 355 18 c 0
 354 4 346 -6 337 -5 c 0
 261 -2 135 -2 66 -4 c 0
 58 -4 49 -4 44 3 c 2
 43 5 l 2
 41 9 39 14 40 20 c 0
 41 44 60 47 74 47 c 0
 120 47 127 50 127 82 c 2
 127 536 l 2
 127 599 121 610 87 610 c 2
 38 609 l 2
359 600 m 0
 327 618 287 620 252 616 c 0
 237 614 236 602 236 596 c 2
 236 332 l 2
 236 325 240 313 251 310 c 0
 266 307 266 307 282 307 c 0
 379 307 423 372 423 472 c 0
 423 534 398 580 359 600 c 0
EndSplineSet
EndChar

StartChar: Q
Encoding: 81 81 70
Width: 822
Flags: W
LayerCount: 2
Fore
SplineSet
528 -8 m 0
 572 -29 611 -61 647 -92 c 0
 707 -143 739 -158 801 -161 c 1
 820 -166 796 -203 780 -207 c 0
 761 -211 748 -213 729 -213 c 0
 636 -213 558 -159 492 -103 c 0
 455 -72 438 -55 423 -44 c 0
 409 -34 398 -29 375 -20 c 1
 175 -2 43 133 43 313 c 0
 43 514 198 667 412 667 c 0
 622 667 763 526 763 338 c 0
 763 186 668 57 528 4 c 0
 522 1 520 -5 528 -8 c 0
385 619 m 0
 251 619 164 505 164 337 c 0
 164 159 273 25 426 25 c 0
 570 25 640 177 640 308 c 0
 640 492 543 619 385 619 c 0
EndSplineSet
EndChar

StartChar: R
Encoding: 82 82 71
Width: 696
Flags: W
LayerCount: 2
Fore
SplineSet
638 -15 m 0
 550 -15 513 16 487 47 c 0
 455 84 428 125 402 166 c 0
 386 191 374 218 360 244 c 0
 357 250 348 265 341 264 c 0
 308 261 280 260 246 261 c 0
 238 262 232 246 232 244 c 0
 232 193 232 154 233 103 c 0
 235 57 248 46 301 46 c 0
 314 47 333 51 339 33 c 0
 341 28 342 16 341 9 c 0
 339 0 331 -3 321 -3 c 0
 250 -3 119 2 47 -4 c 1
 31 -3 l 2
 17 -2 16 21 20 33 c 0
 25 46 44 44 55 44 c 0
 111 44 122 59 122 103 c 2
 122 137 l 1
 122 512 l 2
 122 605 124 607 35 608 c 0
 16 608 18 643 34 651 c 1
 114 659 199 659 279 659 c 0
 402 659 547 618 547 469 c 0
 547 397 508 332 450 299 c 0
 445 296 444 289 451 279 c 0
 474 243 485 226 504 197 c 2
 559 114 l 2
 581 82 588 74 620 50 c 0
 633 40 647 32 672 27 c 1
 682 19 686 5 677 -8 c 1
 666 -15 652 -15 638 -15 c 0
269 618 m 0
 256 618 232 616 232 600 c 2
 232 322 l 2
 232 312 242 306 244 306 c 0
 275 304 308 302 331 309 c 0
 395 331 428 394 428 462 c 0
 428 554 396 618 269 618 c 0
EndSplineSet
EndChar

StartChar: S
Encoding: 83 83 72
Width: 513
Flags: W
LayerCount: 2
Fore
SplineSet
253 -19 m 0
 218 -19 184 -8 150 2 c 0
 130 8 127 9 123 9 c 0
 120 9 118 9 112 -1 c 1
 103 -5 93 -5 86 -3 c 0
 80 -2 78 4 77 8 c 0
 70 49 63 100 56 162 c 0
 54 175 87 179 94 170 c 0
 114 110 131 83 166 59 c 0
 194 39 211 32 244 32 c 0
 317 32 359 77 359 137 c 0
 359 217 272 264 214 303 c 0
 140 352 59 412 59 508 c 0
 59 601 133 667 239 667 c 0
 274 667 290 661 322 650 c 0
 343 643 351 641 356 641 c 0
 360 641 361 643 369 650 c 0
 376 652 385 652 392 651 c 0
 399 652 401 645 402 639 c 0
 413 554 417 525 418 511 c 0
 416 487 384 497 382 504 c 0
 352 578 311 620 248 620 c 0
 189 620 159 586 159 537 c 0
 159 472 240 422 287 390 c 0
 363 338 461 274 461 167 c 0
 461 60 376 -19 253 -19 c 0
EndSplineSet
EndChar

StartChar: T
Encoding: 84 84 73
Width: 681
Flags: W
LayerCount: 2
Fore
SplineSet
634 476 m 0
 617 476 613 481 610 495 c 0
 593 579 578 590 548 590 c 2
 416 590 l 2
 407 590 398 582 398 560 c 0
 398 495 398 247 398 137 c 2
 398 103 l 2
 398 68 405 48 466 48 c 2
 494 48 l 2
 513 48 518 22 513 8 c 0
 509 -3 500 -3 492 -3 c 0
 414 0 265 -2 192 -4 c 0
 180 -4 176 2 175 7 c 0
 172 14 172 27 175 34 c 0
 179 41 185 44 191 45 c 0
 204 45 214 46 229 45 c 0
 256 45 287 47 287 103 c 2
 287 137 l 2
 287 259 287 550 287 563 c 0
 287 570 284 590 265 590 c 2
 159 590 l 1
 139 590 l 2
 107 590 92 578 74 483 c 1
 60 474 33 478 34 493 c 0
 36 533 44 618 50 664 c 1
 63 679 86 673 90 664 c 0
 96 649 126 650 140 650 c 0
 245 652 447 652 544 650 c 0
 589 650 590 650 596 664 c 0
 599 670 616 673 627 670 c 0
 634 668 636 665 637 656 c 2
 652 492 l 2
 653 480 643 476 634 476 c 0
EndSplineSet
EndChar

StartChar: U
Encoding: 85 85 74
Width: 815
Flags: W
LayerCount: 2
Fore
SplineSet
779 609 m 0
 707 606 693 591 693 486 c 2
 693 305 l 2
 693 203 692 129 609 55 c 0
 551 4 500 -19 402 -19 c 0
 266 -19 182 35 138 132 c 0
 117 177 115 200 115 295 c 2
 115 552 l 2
 115 598 111 605 48 607 c 0
 37 607 33 606 27 615 c 0
 22 623 22 635 28 643 c 0
 33 649 36 650 46 650 c 0
 111 650 231 650 297 650 c 0
 304 650 312 648 315 642 c 0
 322 629 317 606 306 607 c 2
 297 607 l 2
 241 607 229 596 227 545 c 0
 227 530 226 517 226 502 c 2
 226 310 l 2
 226 167 266 57 425 57 c 0
 528 57 582 99 609 170 c 0
 625 214 624 259 624 304 c 2
 624 482 l 2
 624 590 613 605 540 607 c 0
 533 609 529 609 526 616 c 0
 522 624 522 635 526 642 c 0
 528 646 534 650 539 650 c 0
 589 651 718 651 779 650 c 0
 787 650 793 640 793 630 c 0
 793 623 790 610 779 609 c 0
EndSplineSet
EndChar

StartChar: V
Encoding: 86 86 75
Width: 761
Flags: W
LayerCount: 2
Fore
SplineSet
727 610 m 0
 674 609 657 594 624 510 c 2
 426 -2 l 2
 423 -9 412 -23 403 -24 c 0
 397 -25 379 -26 364 -23 c 0
 357 -22 348 -11 345 -4 c 2
 134 525 l 2
 103 600 82 603 41 604 c 0
 32 606 28 607 24 615 c 0
 22 623 23 633 25 638 c 0
 28 649 39 650 47 650 c 0
 114 648 244 648 307 650 c 0
 315 650 328 652 333 645 c 0
 338 638 339 625 336 617 c 0
 333 608 327 607 320 604 c 0
 292 603 271 601 258 598 c 0
 223 590 237 558 249 528 c 2
 396 162 l 2
 399 156 413 146 417 157 c 2
 554 519 l 2
 565 548 585 595 541 605 c 0
 530 607 516 608 495 608 c 0
 485 608 482 608 477 617 c 0
 473 625 473 637 478 644 c 0
 481 648 491 651 498 650 c 0
 536 647 685 649 724 650 c 0
 750 651 743 611 727 610 c 0
EndSplineSet
EndChar

StartChar: W
Encoding: 87 87 76
Width: 1086
Flags: W
LayerCount: 2
Fore
SplineSet
1050 610 m 0
 995 610 981 601 952 525 c 2
 752 3 l 2
 750 -3 744 -14 735 -16 c 0
 721 -18 697 -18 685 -15 c 0
 673 -12 674 -10 669 2 c 2
 561 259 l 2
 557 268 545 257 542 248 c 2
 442 3 l 2
 436 -10 431 -16 420 -18 c 0
 405 -21 384 -20 370 -16 c 0
 362 -13 356 -5 352 6 c 2
 154 510 l 2
 118 602 117 601 43 603 c 0
 37 603 31 603 26 606 c 0
 16 612 16 631 19 640 c 0
 22 646 28 650 37 650 c 0
 91 650 191 650 282 651 c 0
 290 651 298 648 300 642 c 0
 302 634 301 622 298 615 c 0
 296 609 290 608 283 608 c 0
 241 608 240 598 240 586 c 0
 240 577 242 565 258 526 c 2
 413 138 l 2
 415 134 425 137 431 152 c 2
 510 346 l 2
 513 353 514 371 512 378 c 2
 442 542 l 2
 417 602 412 606 340 609 c 0
 329 612 323 651 342 651 c 0
 449 654 598 653 748 651 c 0
 757 651 760 651 767 647 c 0
 774 642 775 628 772 619 c 0
 768 607 766 608 755 608 c 0
 693 606 683 598 660 541 c 2
 610 421 l 2
 608 416 607 407 610 398 c 0
 653 295 721 135 721 135 c 2
 723 130 733 132 736 142 c 2
 886 534 l 2
 913 604 908 608 845 611 c 0
 824 614 833 653 850 651 c 0
 898 649 986 650 1051 652 c 0
 1059 652 1066 642 1067 631 c 0
 1067 623 1064 610 1050 610 c 0
566 505 m 0
 570 498 576 506 576 506 c 1
 587 532 599 560 609 587 c 0
 613 600 608 608 591 608 c 0
 581 607 564 608 550 608 c 0
 535 608 525 606 531 587 c 0
 535 577 540 565 544 557 c 0
 549 546 552 537 566 505 c 0
EndSplineSet
EndChar

StartChar: X
Encoding: 88 88 77
Width: 785
Flags: W
LayerCount: 2
Fore
SplineSet
753 -2 m 0
 700 0 528 -1 485 -3 c 0
 478 -4 472 -2 468 5 c 0
 463 17 467 40 479 40 c 2
 489 40 l 2
 530 40 528 50 527 56 c 0
 527 70 508 94 500 105 c 2
 379 270 l 2
 374 271 369 270 358 256 c 0
 337 229 231 96 231 96 c 2
 215 76 210 64 210 59 c 0
 210 53 210 39 263 39 c 2
 272 39 l 2
 294 39 295 -3 274 -3 c 0
 222 -2 111 1 41 -2 c 0
 33 -2 27 10 27 20 c 0
 27 30 32 42 42 42 c 0
 92 46 120 54 149 92 c 0
 209 171 264 239 325 317 c 0
 334 325 325 336 325 341 c 2
 187 517 l 2
 126 595 124 599 47 601 c 0
 43 601 29 607 27 616 c 0
 24 626 26 652 49 651 c 0
 117 648 251 648 326 652 c 0
 333 652 343 652 348 641 c 0
 350 636 350 617 344 612 c 0
 339 610 334 608 327 608 c 0
 306 607 293 607 284 606 c 0
 258 603 282 568 298 548 c 2
 394 420 l 2
 397 415 403 414 406 418 c 0
 443 466 486 520 521 571 c 0
 537 595 528 606 502 606 c 0
 493 606 472 605 466 610 c 0
 457 619 458 639 465 645 c 0
 468 648 475 650 480 650 c 0
 561 650 630 647 711 651 c 1
 735 648 732 607 711 608 c 0
 628 603 587 554 537 488 c 2
 447 369 l 2
 438 356 445 355 453 343 c 2
 618 128 l 2
 665 67 668 49 754 39 c 0
 763 38 768 28 768 17 c 0
 768 10 764 -2 753 -2 c 0
EndSplineSet
EndChar

StartChar: Y
Encoding: 89 89 78
Width: 728
Flags: W
LayerCount: 2
Fore
SplineSet
716 608 m 0
 642 604 619 552 587 498 c 2
 442 253 l 1
 443 204 442 131 442 103 c 0
 442 57 470 49 505 47 c 0
 515 47 526 50 535 45 c 0
 544 40 542 30 542 18 c 0
 542 9 538 -4 525 -4 c 0
 405 -2 362 0 255 -3 c 0
 247 -3 237 1 234 8 c 0
 230 16 231 27 233 33 c 0
 235 38 238 44 243 46 c 0
 255 52 272 48 285 48 c 0
 319 50 330 68 332 103 c 0
 334 135 335 203 333 241 c 1
 154 521 l 2
 107 594 92 606 35 607 c 0
 26 607 19 607 16 618 c 0
 15 621 15 630 16 634 c 0
 17 642 23 651 33 650 c 0
 101 649 244 648 297 650 c 0
 312 650 326 607 294 607 c 0
 243 607 242 597 242 593 c 0
 242 584 239 581 268 536 c 2
 396 340 l 2
 400 334 413 339 418 346 c 2
 523 524 l 2
 541 555 551 578 551 587 c 0
 551 599 549 608 503 608 c 2
 492 608 l 1
 480 613 475 651 501 650 c 0
 551 648 638 648 716 650 c 0
 726 650 730 640 730 630 c 0
 730 622 726 608 716 608 c 0
EndSplineSet
EndChar

StartChar: Z
Encoding: 90 90 79
Width: 705
Flags: W
LayerCount: 2
Fore
SplineSet
128 492 m 1
 127 482 94 477 86 496 c 1
 86 533 87 602 91 636 c 0
 94 645 109 649 118 650 c 2
 585 650 l 2
 606 650 627 638 610 611 c 2
 198 72 l 2
 184 58 221 58 227 58 c 2
 457 58 l 2
 565 58 581 98 591 196 c 1
 600 208 637 209 637 196 c 0
 635 147 628 60 623 14 c 0
 621 2 595 -2 588 -2 c 0
 518 -2 388 -3 276 -3 c 0
 167 -3 73 -2 61 -2 c 0
 50 -2 34 3 36 21 c 0
 36 26 39 34 42 38 c 2
 449 575 l 2
 454 581 451 592 448 592 c 2
 246 592 l 2
 151 592 140 587 128 492 c 1
 128 492 l 1
EndSplineSet
EndChar

StartChar: bracketleft
Encoding: 91 91 80
Width: 337
Flags: W
LayerCount: 2
Fore
SplineSet
249 -229 m 0
 218 -231 162 -230 131 -229 c 0
 115 -228 104 -222 104 -204 c 0
 101 12 101 444 104 659 c 0
 104 680 110 688 129 690 c 0
 160 693 218 690 250 690 c 2
 255 690 l 2
 262 690 272 688 272 678 c 2
 272 663 l 2
 272 654 268 650 260 649 c 0
 246 649 209 648 198 641 c 0
 193 638 190 633 189 616 c 0
 188 406 188 37 189 -157 c 0
 190 -181 194 -182 234 -186 c 2
 257 -188 l 2
 267 -188 272 -191 272 -204 c 2
 272 -215 l 2
 272 -225 258 -229 249 -229 c 0
EndSplineSet
EndChar

StartChar: backslash
Encoding: 92 92 81
Width: 479
Flags: W
LayerCount: 2
Fore
SplineSet
423 -14 m 2
 383 -19 l 2
 366 -21 362 -13 356 0 c 2
 41 651 l 2
 32 669 58 674 74 674 c 2
 94 674 l 2
 112 674 115 676 125 656 c 2
 435 16 l 2
 441 6 447 -11 423 -14 c 2
EndSplineSet
EndChar

StartChar: bracketright
Encoding: 93 93 82
Width: 343
Flags: W
LayerCount: 2
Fore
SplineSet
173 -229 m 0
 142 -230 86 -231 55 -229 c 0
 47 -229 32 -225 32 -215 c 2
 32 -204 l 2
 32 -161 114 -215 115 -156 c 0
 116 38 116 408 115 618 c 0
 114 641 108 644 89 646 c 0
 74 648 59 648 44 650 c 0
 38 650 32 653 32 663 c 2
 32 678 l 2
 32 687 41 690 48 690 c 2
 54 690 l 2
 86 690 144 693 175 690 c 0
 195 688 200 680 200 659 c 0
 203 444 204 12 200 -204 c 0
 200 -222 189 -228 173 -229 c 0
EndSplineSet
EndChar

StartChar: asciicircum
Encoding: 94 94 83
Width: 491
Flags: W
LayerCount: 2
Fore
SplineSet
453 336 m 2
 434 334 l 2
 415 332 410 340 402 353 c 0
 366 417 301 527 260 592 c 0
 256 600 241 604 239 600 c 0
 198 537 127 414 90 349 c 0
 81 335 74 334 59 334 c 0
 51 335 40 334 32 338 c 0
 21 342 20 353 29 367 c 0
 76 451 176 621 234 711 c 1
 262 711 l 1
 331 599 416 454 467 363 c 0
 479 343 466 337 453 336 c 2
EndSplineSet
EndChar

StartChar: underscore
Encoding: 95 95 84
Width: 523
Flags: W
LayerCount: 2
Fore
SplineSet
522 -232 m 0
 514 -233 507 -232 500 -232 c 2
 33 -232 l 2
 10 -232 -10 -228 -10 -213 c 2
 -10 -190 l 2
 -10 -182 -1 -178 15 -178 c 0
 180 -178 347 -174 511 -179 c 0
 525 -179 536 -184 536 -193 c 2
 536 -218 l 2
 536 -227 530 -231 522 -232 c 0
EndSplineSet
EndChar

StartChar: grave
Encoding: 193 96 85
Width: 348
Flags: W
LayerCount: 2
Fore
SplineSet
197 482 m 0
 166 521 112 587 71 630 c 0
 61 642 76 657 88 657 c 2
 160 658 l 2
 169 658 176 658 183 648 c 0
 199 605 219 534 229 493 c 0
 230 475 207 472 197 482 c 0
EndSplineSet
EndChar

StartChar: a
Encoding: 97 97 86
Width: 414
Flags: W
LayerCount: 2
Fore
SplineSet
227 35 m 0
 184 0 163 -12 125 -12 c 0
 67 -12 25 26 25 81 c 0
 25 135 64 168 132 186 c 0
 167 195 189 206 222 221 c 0
 225 224 230 228 230 234 c 2
 229 297 l 2
 228 352 206 379 169 379 c 0
 150 379 119 359 119 341 c 0
 119 329 118 327 123 316 c 1
 114 306 67 285 60 283 c 0
 41 277 31 279 31 303 c 0
 31 330 57 360 94 390 c 0
 131 419 156 431 189 431 c 0
 232 431 278 407 302 373 c 0
 318 350 319 341 319 279 c 2
 319 102 l 2
 319 60 327 59 335 59 c 0
 351 59 361 65 373 76 c 0
 378 79 379 80 385 80 c 0
 400 77 401 58 396 47 c 1
 355 11 315 -12 289 -12 c 0
 260 -12 243 4 235 34 c 0
 234 38 231 38 227 35 c 0
221 176 m 0
 201 166 181 157 160 148 c 0
 122 133 110 117 110 94 c 0
 110 67 131 46 159 46 c 0
 176 46 221 73 229 93 c 1
 229 160 l 2
 229 168 226 178 221 176 c 0
EndSplineSet
EndChar

StartChar: b
Encoding: 98 98 87
Width: 491
Flags: W
LayerCount: 2
Fore
SplineSet
228 -15 m 0
 199 -15 141 -7 92 4 c 0
 86 6 79 17 78 27 c 0
 80 222 79 462 78 589 c 0
 78 606 78 618 77 625 c 0
 77 634 72 636 60 638 c 0
 47 641 33 643 19 646 c 0
 5 651 5 679 19 683 c 2
 138 724 l 2
 158 731 163 720 163 702 c 0
 163 634 163 474 163 389 c 0
 163 374 166 367 172 372 c 0
 206 396 253 432 294 432 c 0
 385 432 457 339 457 230 c 0
 457 92 362 -15 228 -15 c 0
256 362 m 0
 232 362 208 349 170 321 c 0
 166 318 164 307 164 293 c 0
 164 274 163 247 163 219 c 0
 163 173 164 125 170 101 c 0
 179 64 210 39 254 39 c 0
 322 39 369 101 369 199 c 0
 369 299 320 362 256 362 c 0
EndSplineSet
EndChar

StartChar: c
Encoding: 99 99 88
Width: 432
Flags: W
LayerCount: 2
Fore
SplineSet
389 93 m 0
 346 24 285 -12 213 -12 c 0
 107 -12 30 76 30 193 c 0
 30 326 137 432 270 432 c 0
 331 432 391 408 391 364 c 0
 391 341 373 323 351 323 c 0
 328 323 312 334 287 358 c 0
 266 379 253 384 235 384 c 0
 176 384 121 309 121 216 c 0
 121 117 174 53 247 53 c 0
 294 53 330 75 357 114 c 0
 360 121 369 131 380 128 c 0
 385 126 392 118 393 112 c 0
 395 105 391 96 389 93 c 0
EndSplineSet
EndChar

StartChar: d
Encoding: 100 100 89
Width: 513
Flags: W
LayerCount: 2
Fore
SplineSet
492 39 m 0
 459 23 397 0 363 -10 c 0
 338 -18 333 12 334 26 c 0
 335 42 330 45 326 43 c 0
 270 4 230 -15 192 -15 c 0
 96 -15 22 80 22 193 c 0
 22 327 120 432 248 432 c 0
 273 432 297 427 323 419 c 0
 334 416 334 433 335 442 c 0
 336 481 335 615 335 632 c 0
 334 636 334 642 330 644 c 0
 318 651 289 650 275 652 c 0
 264 653 263 661 262 670 c 0
 261 680 265 689 276 691 c 0
 310 702 360 719 399 734 c 0
 417 741 423 725 423 711 c 2
 423 121 l 2
 423 72 426 71 444 71 c 0
 449 71 469 78 473 80 c 0
 485 82 492 85 498 68 c 0
 501 56 498 42 492 39 c 0
334 310 m 1
 299 361 268 380 227 380 c 0
 159 380 113 319 113 224 c 0
 113 123 164 55 228 55 c 0
 253 55 288 68 327 95 c 0
 328 95 333 102 334 113 c 2
 334 310 l 1
EndSplineSet
EndChar

StartChar: e
Encoding: 101 101 90
Width: 432
Flags: W
LayerCount: 2
Fore
SplineSet
386 260 m 0
 311 257 193 259 131 260 c 0
 114 260 112 238 112 227 c 0
 112 128 172 58 251 58 c 0
 295 58 330 75 367 119 c 0
 371 124 380 127 387 125 c 0
 398 123 406 107 400 97 c 0
 351 40 291 -15 212 -15 c 0
 105 -15 26 82 26 202 c 0
 26 331 113 429 231 429 c 0
 301 429 347 401 376 340 c 0
 384 323 391 308 403 293 c 1
 408 277 406 261 386 260 c 0
210 388 m 0
 173 388 144 363 125 312 c 0
 122 304 138 302 142 302 c 2
 277 302 l 2
 282 302 295 303 293 309 c 0
 279 362 248 388 210 388 c 0
EndSplineSet
EndChar

StartChar: f
Encoding: 102 102 91
Width: 321
Flags: W
LayerCount: 2
Fore
SplineSet
283 409 m 0
 288 389 291 361 291 361 c 2
 289 352 284 348 274 348 c 2
 193 349 l 2
 190 349 186 341 186 331 c 2
 186 131 l 2
 186 84 187 67 194 57 c 0
 204 45 233 44 246 44 c 0
 257 44 269 45 279 44 c 0
 293 43 295 32 297 18 c 0
 297 7 289 -3 282 -3 c 0
 220 -1 98 0 37 -3 c 0
 29 -3 24 8 24 18 c 0
 24 22 24 28 26 31 c 0
 31 42 40 41 49 41 c 0
 91 41 95 55 95 135 c 2
 95 330 l 2
 95 340 95 349 88 351 c 2
 37 351 l 2
 32 351 24 350 21 358 c 0
 18 368 19 387 25 391 c 0
 52 397 69 403 87 413 c 0
 95 417 95 423 95 431 c 0
 96 441 96 450 97 466 c 0
 101 542 113 587 168 646 c 0
 216 700 270 727 325 727 c 0
 356 727 413 713 435 680 c 0
 438 676 439 671 439 666 c 0
 439 656 428 638 419 622 c 0
 403 597 387 609 371 622 c 0
 345 643 308 659 281 659 c 0
 243 659 211 635 198 598 c 0
 189 572 184 547 185 502 c 2
 186 438 l 2
 186 427 189 420 197 420 c 2
 265 420 l 2
 282 420 280 415 283 409 c 0
EndSplineSet
EndChar

StartChar: g
Encoding: 103 103 92
Width: 483
Flags: W
LayerCount: 2
Fore
SplineSet
121 139 m 0
 78 165 51 207 51 260 c 0
 51 357 127 429 221 429 c 0
 264 429 301 415 327 388 c 1
 333 388 l 2
 338 388 395 395 420 398 c 0
 436 401 443 399 445 380 c 0
 447 363 449 348 448 330 c 0
 447 322 444 313 433 313 c 0
 428 313 400 316 379 319 c 0
 376 319 368 320 371 311 c 0
 376 295 377 285 377 268 c 0
 377 176 304 113 207 113 c 0
 194 113 182 115 169 118 c 1
 162 109 152 102 143 95 c 0
 129 82 114 68 142 60 c 0
 157 56 186 53 242 52 c 0
 300 51 352 50 398 29 c 0
 436 12 453 -24 453 -67 c 0
 453 -173 330 -250 189 -250 c 0
 124 -250 26 -209 26 -136 c 0
 26 -74 67 -49 112 -21 c 0
 118 -16 115 -12 110 -11 c 0
 62 9 44 36 44 65 c 0
 44 87 70 100 90 111 c 0
 101 117 110 122 118 127 c 0
 124 131 126 135 121 139 c 0
210 386 m 0
 168 386 135 343 135 281 c 0
 135 202 173 158 218 158 c 0
 261 158 294 194 294 262 c 0
 294 337 256 386 210 386 c 0
280 -29 m 0
 238 -25 211 -27 170 -26 c 1
 163 -35 151 -45 143 -53 c 0
 130 -67 110 -91 110 -110 c 0
 109 -156 172 -189 243 -189 c 0
 305 -189 383 -139 383 -94 c 0
 383 -54 362 -35 280 -29 c 0
EndSplineSet
EndChar

StartChar: h
Encoding: 104 104 93
Width: 542
Flags: W
LayerCount: 2
Fore
SplineSet
506 -2 m 0
 409 -4 350 -1 298 -2 c 0
 280 -2 277 14 277 20 c 0
 276 27 280 42 291 42 c 2
 297 42 l 2
 342 42 347 51 350 83 c 0
 355 125 357 169 357 217 c 0
 357 306 351 327 333 347 c 0
 320 361 300 370 277 370 c 0
 241 370 221 354 193 336 c 0
 183 330 184 309 184 298 c 2
 184 93 l 2
 184 45 191 41 230 41 c 0
 239 41 248 42 250 28 c 0
 250 25 250 17 251 13 c 0
 251 0 246 -5 233 -3 c 0
 182 -1 91 -5 34 -3 c 0
 19 -5 15 26 24 36 c 0
 29 42 41 42 48 43 c 0
 87 46 93 53 93 135 c 2
 93 586 l 1
 92 623 l 2
 92 634 83 642 72 643 c 0
 59 645 47 646 33 648 c 0
 20 650 17 680 32 686 c 0
 63 699 116 717 158 729 c 0
 172 733 184 725 184 701 c 2
 184 409 l 2
 184 404 184 381 196 388 c 0
 238 415 271 431 325 431 c 0
 380 431 419 409 435 358 c 0
 455 294 447 200 444 133 c 0
 443 112 442 90 442 68 c 0
 442 49 445 44 498 44 c 0
 516 44 516 34 518 20 c 0
 519 8 514 -2 506 -2 c 0
EndSplineSet
EndChar

StartChar: i
Encoding: 105 105 94
Width: 266
Flags: W
LayerCount: 2
Fore
SplineSet
125 553 m 0
 92 553 70 577 70 608 c 0
 70 640 95 665 126 665 c 0
 159 665 184 641 184 607 c 0
 184 575 157 553 125 553 c 0
247 10 m 0
 247 0 240 -4 227 -3 c 0
 181 0 83 -2 34 -3 c 0
 29 -3 21 7 20 17 c 0
 19 28 23 41 32 41 c 0
 102 47 95 53 95 128 c 2
 95 304 l 2
 95 330 95 340 92 346 c 0
 89 351 79 352 74 353 c 0
 59 356 49 360 35 364 c 0
 23 368 25 393 33 399 c 0
 67 412 111 428 151 441 c 0
 179 450 182 427 182 412 c 2
 182 128 l 2
 182 108 182 91 183 77 c 0
 185 45 187 44 224 44 c 0
 237 45 245 40 247 28 c 0
 247 25 247 13 247 10 c 0
EndSplineSet
EndChar

StartChar: j
Encoding: 106 106 95
Width: 247
Flags: W
LayerCount: 2
Fore
SplineSet
114 541 m 0
 80 541 56 566 56 598 c 0
 56 630 81 654 114 654 c 0
 147 654 171 630 171 598 c 0
 171 566 146 541 114 541 c 0
151 -131 m 0
 142 -155 126 -176 110 -195 c 0
 79 -230 40 -244 -7 -244 c 0
 -62 -244 -107 -220 -107 -181 c 0
 -107 -154 -92 -123 -67 -123 c 0
 -49 -123 -34 -142 -24 -155 c 0
 -11 -170 9 -185 29 -185 c 0
 65 -185 84 -158 84 -72 c 2
 84 -10 l 1
 84 307 l 2
 84 348 91 351 52 360 c 0
 41 362 31 364 23 367 c 0
 11 370 13 397 22 402 c 0
 29 405 77 425 143 447 c 0
 166 455 171 432 171 422 c 2
 171 27 l 2
 171 -59 168 -88 151 -131 c 0
EndSplineSet
EndChar

StartChar: k
Encoding: 107 107 96
Width: 518
Flags: W
LayerCount: 2
Fore
SplineSet
179 197 m 2
 169 204 169 199 169 197 c 0
 169 163 168 128 169 93 c 0
 169 64 165 42 199 40 c 0
 209 40 218 40 228 40 c 0
 234 40 241 29 241 18 c 0
 241 7 234 -3 228 -3 c 0
 179 -2 80 0 28 -3 c 0
 17 -4 12 27 18 35 c 0
 21 39 25 41 36 41 c 0
 78 41 81 45 81 135 c 2
 81 570 l 2
 81 589 81 603 80 622 c 0
 79 633 58 637 50 638 c 0
 48 639 28 644 26 644 c 0
 9 648 14 679 25 681 c 0
 78 695 101 712 139 722 c 0
 160 727 167 722 168 700 c 2
 169 296 l 2
 169 290 172 276 180 282 c 2
 283 357 l 2
 307 375 315 384 287 385 c 0
 278 385 272 386 268 386 c 0
 259 388 250 388 252 407 c 0
 253 420 256 426 271 426 c 0
 331 425 407 426 452 426 c 0
 463 427 468 415 468 405 c 0
 468 396 461 383 457 383 c 0
 410 382 380 370 339 339 c 0
 306 313 276 292 241 267 c 0
 238 263 234 260 240 253 c 0
 299 192 356 133 417 71 c 0
 439 49 450 39 481 39 c 2
 492 39 l 1
 509 32 503 -4 490 -3 c 0
 436 0 330 -1 279 -3 c 0
 273 -3 265 8 265 19 c 0
 265 35 270 39 285 39 c 0
 320 39 320 46 293 75 c 2
 179 197 l 2
EndSplineSet
EndChar

StartChar: l
Encoding: 108 108 97
Width: 272
Flags: W
LayerCount: 2
Fore
SplineSet
239 -2 m 0
 149 -1 109 0 41 -2 c 0
 38 -2 27 3 25 10 c 0
 24 15 22 25 26 33 c 0
 31 43 35 41 46 41 c 0
 93 41 99 51 99 101 c 2
 99 619 l 2
 99 627 96 630 88 631 c 0
 72 635 56 637 40 640 c 0
 27 643 25 673 40 678 c 0
 65 685 111 698 167 720 c 0
 179 721 187 704 187 694 c 2
 187 102 l 2
 187 45 188 41 230 41 c 0
 238 41 252 43 254 31 c 0
 255 27 254 23 254 18 c 0
 254 8 252 -2 239 -2 c 0
EndSplineSet
EndChar

StartChar: m
Encoding: 109 109 98
Width: 825
Flags: W
LayerCount: 2
Fore
SplineSet
248 -3 m 0
 199 -1 96 -1 39 -3 c 0
 22 -4 22 20 26 31 c 0
 30 41 44 41 53 41 c 0
 91 42 99 50 99 134 c 2
 99 274 l 2
 99 327 98 342 97 344 c 0
 94 349 89 353 61 357 c 2
 38 360 l 2
 20 362 32 394 37 397 c 0
 65 409 121 427 167 439 c 0
 184 443 189 431 189 416 c 2
 189 370 l 2
 189 368 191 361 193 362 c 0
 236 392 293 429 351 429 c 0
 396 429 433 403 448 361 c 0
 450 357 454 356 459 360 c 0
 506 393 554 429 614 429 c 0
 658 429 694 406 711 367 c 0
 724 337 726 308 726 229 c 0
 726 177 722 126 722 75 c 0
 722 49 725 43 781 43 c 0
 786 44 797 44 803 40 c 0
 809 37 811 25 810 17 c 0
 810 6 801 -3 794 -3 c 0
 726 0 643 -2 576 -3 c 2
 571 -3 l 2
 549 -4 552 39 570 39 c 2
 580 39 l 2
 619 39 627 47 630 85 c 0
 634 125 634 163 634 221 c 0
 634 346 617 369 571 369 c 0
 544 369 506 348 457 315 c 1
 457 92 l 2
 457 47 465 39 505 39 c 0
 519 39 523 33 524 19 c 0
 524 11 519 -3 508 -3 c 0
 459 -2 358 -1 304 -2 c 0
 281 -2 287 32 299 38 c 0
 304 41 309 40 314 40 c 0
 360 40 368 46 368 134 c 2
 368 293 l 2
 368 343 344 369 307 369 c 0
 267 369 221 336 189 315 c 1
 189 92 l 2
 189 46 195 39 242 39 c 0
 248 40 248 39 256 37 c 0
 261 36 262 20 262 10 c 0
 260 0 254 -3 248 -3 c 0
EndSplineSet
EndChar

StartChar: n
Encoding: 110 110 99
Width: 523
Flags: W
LayerCount: 2
Fore
SplineSet
501 -1 m 0
 497 -2 492 -2 488 -2 c 0
 439 -3 354 0 303 -2 c 0
 286 -3 282 4 281 19 c 0
 281 28 286 41 295 41 c 2
 301 41 l 1
 342 45 352 54 356 91 c 0
 362 147 362 205 362 262 c 0
 362 336 338 365 296 365 c 0
 271 365 223 342 181 310 c 1
 181 92 l 2
 181 45 188 41 235 41 c 0
 242 41 248 29 249 19 c 0
 249 5 245 -2 230 -3 c 0
 180 -1 95 -4 43 -2 c 2
 40 -2 l 2
 34 -2 27 0 25 6 c 0
 21 18 25 39 38 39 c 2
 43 39 l 2
 83 39 94 47 94 135 c 2
 94 269 l 2
 94 326 92 341 90 346 c 0
 89 349 87 352 56 358 c 2
 36 362 l 2
 22 365 26 395 36 399 c 0
 63 408 96 421 122 431 c 0
 132 435 142 439 152 441 c 0
 171 445 181 434 181 419 c 2
 181 376 l 2
 181 372 187 360 189 362 c 0
 229 390 285 428 336 428 c 0
 440 428 450 317 450 247 c 0
 450 189 442 130 442 71 c 0
 442 46 445 41 484 41 c 0
 491 44 500 43 505 36 c 0
 510 28 512 4 501 -1 c 0
EndSplineSet
EndChar

StartChar: o
Encoding: 111 111 100
Width: 518
Flags: W
LayerCount: 2
Fore
SplineSet
261 -15 m 0
 131 -15 32 82 32 208 c 0
 32 336 130 430 258 430 c 0
 386 430 487 334 487 207 c 0
 486 83 387 -15 261 -15 c 0
244 384 m 0
 180 384 129 323 129 237 c 0
 129 119 196 32 272 32 c 0
 337 32 386 102 386 192 c 0
 386 304 320 384 244 384 c 0
EndSplineSet
EndChar

StartChar: p
Encoding: 112 112 101
Width: 503
Flags: W
LayerCount: 2
Fore
SplineSet
254 -17 m 0
 229 -17 209 -12 181 -3 c 0
 177 -2 176 -9 176 -21 c 2
 176 -129 l 2
 176 -224 183 -231 232 -231 c 2
 246 -231 l 2
 254 -231 265 -234 269 -242 c 0
 271 -250 271 -265 267 -271 c 0
 264 -278 254 -279 250 -279 c 0
 181 -276 95 -279 25 -278 c 0
 19 -278 13 -279 10 -272 c 0
 3 -261 7 -234 21 -234 c 2
 30 -234 l 2
 79 -234 87 -224 87 -129 c 2
 87 279 l 1
 87 303 l 2
 87 325 86 326 66 331 c 0
 54 334 43 339 32 342 c 0
 17 345 21 365 24 370 c 0
 26 374 28 376 32 379 c 2
 139 447 l 2
 155 457 176 458 176 435 c 2
 176 382 l 2
 176 372 178 361 182 364 c 0
 243 407 278 424 317 424 c 0
 404 424 477 328 477 223 c 0
 477 96 373 -17 254 -17 c 0
268 354 m 0
 242 354 213 340 180 314 c 0
 179 312 176 307 176 300 c 2
 176 87 l 1
 210 55 247 37 281 37 c 0
 341 37 386 102 386 190 c 0
 386 289 334 354 268 354 c 0
EndSplineSet
EndChar

StartChar: q
Encoding: 113 113 102
Width: 504
Flags: W
LayerCount: 2
Fore
SplineSet
332 38 m 0
 286 0 245 -17 200 -17 c 0
 102 -17 31 74 31 193 c 0
 31 323 126 426 249 426 c 0
 286 426 324 417 363 397 c 0
 367 395 370 395 371 397 c 0
 379 407 389 417 399 424 c 0
 405 428 427 430 433 419 c 1
 428 399 426 372 426 345 c 2
 426 301 l 1
 426 -127 l 2
 426 -220 435 -232 472 -232 c 2
 482 -232 l 2
 497 -232 501 -268 484 -277 c 0
 480 -277 477 -277 474 -277 c 0
 412 -275 316 -275 256 -277 c 0
 246 -277 232 -275 232 -257 c 0
 232 -246 231 -237 244 -231 c 0
 257 -229 270 -230 283 -230 c 0
 331 -230 338 -223 338 -127 c 2
 338 17 l 2
 335 31 338 43 332 38 c 0
336 285 m 0
 335 299 333 307 329 318 c 0
 317 356 280 383 239 383 c 0
 166 383 117 323 117 220 c 0
 117 119 174 46 243 46 c 0
 269 46 301 61 334 89 c 0
 335 90 339 106 339 117 c 0
 338 198 340 230 336 285 c 0
EndSplineSet
EndChar

StartChar: r
Encoding: 114 114 103
Width: 350
Flags: W
LayerCount: 2
Fore
SplineSet
176 350 m 1
 184 368 199 409 217 419 c 0
 253 438 285 415 318 407 c 0
 321 406 324 406 327 405 c 0
 332 403 342 396 339 386 c 0
 332 364 321 342 309 320 c 1
 291 321 283 325 268 333 c 0
 256 339 246 343 235 343 c 0
 220 343 202 332 178 286 c 1
 178 197 178 161 178 141 c 0
 178 121 178 118 179 92 c 0
 180 46 184 41 229 41 c 2
 251 41 l 2
 267 41 270 8 260 -1 c 0
 257 -3 253 -3 250 -3 c 0
 179 -3 108 1 37 -3 c 0
 22 -4 20 7 20 19 c 0
 20 33 19 40 38 40 c 0
 78 40 89 48 89 134 c 2
 89 311 l 2
 87 317 88 329 82 331 c 0
 70 336 50 343 35 350 c 0
 28 353 24 357 23 366 c 2
 23 374 l 2
 23 384 27 388 34 390 c 0
 52 399 72 405 91 411 c 0
 111 418 132 425 150 434 c 0
 165 443 174 431 175 418 c 0
 175 396 175 371 176 350 c 1
EndSplineSet
EndChar

StartChar: s
Encoding: 115 115 104
Width: 314
Flags: W
LayerCount: 2
Fore
SplineSet
220 311 m 0
 211 363 184 388 153 388 c 0
 125 388 106 368 106 342 c 0
 106 299 177 263 208 241 c 0
 250 212 288 174 288 119 c 0
 288 48 226 -10 154 -10 c 0
 134 -10 114 -7 95 1 c 0
 92 2 89 3 87 4 c 0
 86 3 83 2 79 -8 c 1
 72 -10 66 -14 58 -12 c 0
 51 -11 44 -7 44 2 c 0
 40 42 37 80 35 114 c 0
 34 126 49 129 62 127 c 0
 70 124 71 118 72 114 c 0
 85 56 114 31 151 31 c 0
 183 31 206 57 206 88 c 0
 206 175 31 194 31 312 c 0
 31 385 92 435 169 435 c 0
 195 435 224 428 255 415 c 1
 257 386 258 337 256 311 c 0
 256 308 247 301 238 301 c 0
 231 301 222 303 220 311 c 0
EndSplineSet
EndChar

StartChar: t
Encoding: 116 116 105
Width: 319
Flags: W
LayerCount: 2
Fore
SplineSet
176 -11 m 0
 112 -11 68 43 68 117 c 2
 68 157 l 1
 68 353 l 2
 68 357 63 358 58 359 c 0
 44 360 39 361 26 362 c 1
 21 370 18 382 21 390 c 0
 23 393 30 398 32 399 c 0
 67 418 95 457 117 520 c 0
 120 534 155 538 154 518 c 0
 153 496 151 455 154 433 c 0
 154 426 159 427 166 425 c 2
 265 425 l 2
 274 425 286 420 281 403 c 0
 280 393 276 379 272 369 c 0
 267 360 264 358 252 359 c 2
 163 360 l 2
 160 361 155 356 154 353 c 2
 154 181 l 2
 154 78 168 57 208 57 c 0
 224 57 242 69 261 105 c 0
 265 118 285 113 292 106 c 0
 296 101 295 85 294 82 c 0
 268 24 227 -11 176 -11 c 0
EndSplineSet
EndChar

StartChar: u
Encoding: 117 117 106
Width: 534
Flags: W
LayerCount: 2
Fore
SplineSet
350 54 m 0
 306 22 260 -10 203 -10 c 0
 122 -10 87 46 87 130 c 2
 87 337 l 2
 87 356 85 363 69 368 c 0
 56 372 43 375 30 379 c 0
 24 380 8 409 30 414 c 0
 60 421 120 438 155 445 c 0
 170 448 177 432 177 421 c 2
 177 185 l 2
 177 80 195 58 255 58 c 0
 284 58 321 78 358 107 c 0
 360 112 362 117 362 122 c 2
 362 289 l 2
 362 314 367 366 334 373 c 0
 326 374 319 375 312 377 c 0
 307 378 299 379 279 382 c 1
 267 389 268 414 282 418 c 0
 322 427 389 442 424 446 c 0
 437 447 450 442 450 425 c 2
 450 113 l 1
 450 82 l 2
 450 57 469 62 485 66 c 0
 492 68 499 70 506 72 c 0
 525 75 527 34 509 30 c 0
 480 17 432 1 398 -6 c 0
 380 -10 364 -11 363 13 c 0
 362 15 362 33 360 46 c 0
 359 59 355 58 350 54 c 0
EndSplineSet
EndChar

StartChar: v
Encoding: 118 118 107
Width: 516
Flags: W
LayerCount: 2
Fore
SplineSet
493 379 m 0
 455 375 446 362 410 280 c 2
 290 5 l 2
 286 -3 282 -8 273 -10 c 0
 266 -11 248 -11 244 -9 c 0
 235 -5 234 1 231 9 c 2
 104 300 l 2
 94 323 89 336 85 344 c 0
 71 374 52 373 23 378 c 0
 5 381 12 418 27 419 c 0
 48 421 170 416 233 419 c 0
 238 419 244 409 244 398 c 0
 244 388 238 378 231 378 c 2
 222 378 l 2
 179 378 179 371 179 363 c 0
 179 348 264 152 278 120 c 0
 283 113 291 132 292 135 c 0
 314 190 352 282 377 334 c 0
 392 367 352 375 324 377 c 0
 316 378 311 375 308 384 c 0
 303 395 305 419 317 419 c 0
 362 418 437 418 491 419 c 0
 499 419 504 410 504 399 c 0
 503 389 497 380 493 379 c 0
EndSplineSet
EndChar

StartChar: w
Encoding: 119 119 108
Width: 767
Flags: W
LayerCount: 2
Fore
SplineSet
535 122 m 2
 538 113 542 117 546 127 c 0
 548 130 565 171 585 221 c 0
 606 271 626 323 629 336 c 0
 638 383 591 373 562 376 c 0
 554 379 548 417 565 417 c 0
 608 416 678 416 736 417 c 0
 759 421 755 378 742 376 c 0
 726 374 706 374 696 359 c 0
 691 352 683 334 676 315 c 0
 633 212 592 109 550 5 c 0
 545 -7 547 -7 532 -9 c 0
 528 -10 518 -9 509 -8 c 0
 499 -7 495 -5 491 3 c 2
 391 242 l 2
 389 247 385 251 382 245 c 0
 344 166 315 85 281 5 c 0
 278 -2 273 -9 264 -11 c 0
 260 -13 239 -12 235 -11 c 0
 226 -9 224 -4 221 4 c 2
 101 297 l 2
 71 370 66 373 20 376 c 0
 12 377 5 401 12 412 c 0
 16 418 23 417 30 416 c 0
 91 416 150 414 213 417 c 0
 222 417 227 414 229 404 c 0
 233 394 229 377 219 377 c 0
 176 375 175 365 175 360 c 0
 175 341 254 156 268 122 c 0
 269 120 272 110 276 116 c 2
 359 311 l 1
 351 326 342 347 330 359 c 0
 317 372 308 374 291 375 c 0
 285 375 280 376 274 376 c 0
 268 376 261 386 261 396 c 0
 260 407 266 417 272 417 c 0
 316 416 417 414 471 416 c 1
 477 417 l 2
 503 419 499 382 490 376 c 1
 446 375 442 366 442 356 c 0
 442 349 444 339 456 310 c 2
 535 122 l 2
EndSplineSet
EndChar

StartChar: x
Encoding: 120 120 109
Width: 522
Flags: W
LayerCount: 2
Fore
SplineSet
496 -2 m 0
 446 -1 353 -1 295 -3 c 0
 284 -3 281 10 281 16 c 0
 281 23 282 36 293 36 c 2
 302 36 l 2
 326 36 331 39 331 46 c 0
 331 55 312 74 307 82 c 2
 253 156 l 2
 248 162 240 167 236 162 c 0
 222 146 154 74 154 59 c 0
 154 48 157 40 200 36 c 1
 207 36 l 2
 214 35 220 26 220 15 c 0
 220 5 214 -4 207 -3 c 0
 156 -1 67 -1 20 -2 c 0
 15 -2 8 6 7 17 c 0
 7 28 12 37 20 37 c 0
 65 38 78 46 131 106 c 2
 205 193 l 2
 211 199 209 206 205 212 c 2
 134 306 l 2
 88 368 79 375 25 378 c 0
 15 381 11 418 31 417 c 0
 83 414 175 416 221 417 c 0
 226 417 232 418 236 413 c 0
 244 402 237 379 231 379 c 2
 222 379 l 2
 205 379 191 378 200 362 c 0
 215 336 257 283 267 273 c 0
 272 266 278 269 284 277 c 0
 300 293 343 339 343 361 c 0
 343 370 341 377 304 378 c 0
 297 379 293 376 288 386 c 0
 286 392 286 402 287 407 c 0
 289 418 300 418 305 417 c 0
 378 416 449 415 489 417 c 0
 497 418 502 417 507 409 c 0
 512 396 510 378 493 378 c 0
 435 380 417 362 380 321 c 2
 343 280 l 1
 306 238 l 2
 302 233 303 228 305 225 c 0
 350 167 367 144 378 129 c 2
 414 84 l 2
 440 50 458 41 499 38 c 1
 508 33 511 23 511 15 c 0
 511 8 507 -4 496 -2 c 0
EndSplineSet
EndChar

StartChar: y
Encoding: 121 121 110
Width: 488
Flags: W
LayerCount: 2
Fore
SplineSet
465 379 m 1
 429 376 413 361 374 254 c 2
 255 -74 l 2
 238 -121 225 -153 214 -180 c 0
 203 -206 192 -224 178 -241 c 0
 166 -256 143 -264 125 -264 c 0
 98 -264 72 -238 72 -211 c 0
 72 -184 95 -173 126 -165 c 0
 163 -155 198 -132 212 -50 c 2
 221 -6 l 1
 100 288 l 2
 66 372 64 375 19 379 c 0
 7 382 0 420 28 419 c 0
 30 419 38 419 40 419 c 0
 90 419 176 419 205 419 c 0
 235 420 223 381 213 379 c 0
 169 378 170 369 170 359 c 0
 170 354 172 347 181 327 c 0
 212 256 234 193 263 120 c 0
 266 116 270 111 271 115 c 2
 329 270 l 2
 336 289 352 329 352 349 c 0
 352 368 350 378 299 379 c 0
 290 383 286 416 302 418 c 0
 305 419 308 418 311 418 c 0
 369 418 405 419 458 419 c 0
 488 419 474 379 465 379 c 1
 465 379 l 1
EndSplineSet
EndChar

StartChar: z
Encoding: 122 122 111
Width: 410
Flags: W
LayerCount: 2
Fore
SplineSet
241 360 m 0
 198 360 165 357 121 357 c 0
 100 357 91 354 70 270 c 0
 64 256 28 258 31 278 c 0
 31 279 31 281 32 282 c 0
 40 331 54 410 61 438 c 0
 64 444 99 444 99 436 c 0
 99 418 102 415 135 416 c 0
 192 417 291 418 347 418 c 0
 358 417 372 421 382 411 c 1
 384 401 385 390 379 383 c 0
 297 275 190 120 154 67 c 0
 150 62 154 56 161 56 c 0
 197 56 237 55 295 57 c 0
 326 57 332 67 355 120 c 1
 359 125 l 2
 366 140 401 137 395 119 c 2
 355 9 l 2
 352 3 345 -1 340 -2 c 0
 274 -1 105 -2 21 -2 c 0
 16 -2 13 12 15 23 c 0
 16 30 21 31 24 37 c 2
 250 350 l 2
 255 357 250 360 241 360 c 0
EndSplineSet
EndChar

StartChar: braceleft
Encoding: 123 123 112
Width: 501
Flags: W
LayerCount: 2
Fore
SplineSet
385 670 m 0
 318 654 284 614 284 560 c 0
 284 541 287 517 293 488 c 0
 300 452 304 422 304 400 c 0
 304 353 284 311 249 276 c 0
 229 257 215 246 194 236 c 0
 185 232 186 229 195 225 c 0
 264 187 304 130 304 61 c 0
 304 43 300 7 294 -25 c 0
 288 -53 285 -79 285 -97 c 0
 285 -151 316 -189 387 -209 c 0
 391 -210 395 -212 397 -215 c 0
 399 -216 400 -218 400 -219 c 0
 403 -228 403 -234 400 -242 c 0
 396 -249 390 -250 384 -249 c 0
 271 -231 194 -146 194 -42 c 0
 194 -20 198 8 204 38 c 0
 211 69 216 99 216 112 c 0
 216 158 182 195 114 210 c 0
 108 212 105 218 105 223 c 0
 103 228 103 233 105 238 c 0
 106 245 111 250 116 251 c 0
 179 265 215 304 215 347 c 0
 215 362 211 386 203 420 c 0
 196 452 193 480 193 503 c 0
 193 607 272 694 385 711 c 0
 389 711 395 709 397 702 c 0
 399 693 399 687 399 684 c 2
 399 685 l 2
 399 678 390 672 385 670 c 0
EndSplineSet
EndChar

StartChar: bar
Encoding: 124 124 113
Width: 534
Flags: W
LayerCount: 2
Fore
SplineSet
300 5 m 0
 300 -12 294 -22 276 -22 c 0
 270 -21 263 -21 256 -22 c 0
 238 -22 236 -9 236 10 c 2
 236 830 l 2
 236 850 242 860 261 860 c 0
 269 858 276 856 285 858 c 0
 307 858 301 844 301 828 c 2
 301 422 l 2
 301 303 303 143 300 5 c 0
EndSplineSet
EndChar

StartChar: braceright
Encoding: 125 125 114
Width: 501
Flags: W
LayerCount: 2
Fore
SplineSet
383 209 m 0
 322 195 289 157 289 115 c 0
 289 62 312 12 312 -41 c 0
 312 -143 237 -226 131 -247 c 0
 118 -249 104 -242 106 -231 c 0
 106 -228 107 -224 107 -220 c 0
 108 -215 111 -209 118 -208 c 0
 185 -193 220 -152 220 -99 c 0
 220 -45 199 7 199 61 c 0
 199 107 220 150 255 185 c 0
 274 205 288 216 311 226 c 0
 316 229 314 235 309 237 c 0
 239 275 199 332 199 400 c 0
 199 451 219 505 219 558 c 0
 219 669 99 652 106 692 c 0
 106 700 110 713 120 711 c 0
 233 693 311 608 311 504 c 0
 311 451 288 402 288 350 c 0
 288 306 319 270 381 254 c 0
 390 252 399 243 399 233 c 0
 399 221 398 212 383 209 c 0
EndSplineSet
EndChar

StartChar: asciitilde
Encoding: 126 126 115
Width: 567
Flags: W
LayerCount: 2
Fore
SplineSet
404 241 m 0
 352 241 304 264 260 286 c 0
 228 302 182 330 145 330 c 0
 105 330 74 302 67 253 c 0
 64 230 23 235 24 258 c 0
 28 348 90 415 170 415 c 0
 221 415 265 393 306 371 c 0
 340 353 382 328 422 328 c 0
 463 328 492 353 501 402 c 0
 502 410 509 420 518 419 c 2
 529 418 l 2
 539 417 549 410 547 402 c 0
 541 310 483 241 404 241 c 0
EndSplineSet
EndChar

StartChar: Adieresis
Encoding: 275 196 116
Width: 711
Flags: W
LayerCount: 2
Fore
SplineSet
442 722 m 0
 406 722 377 751 377 786 c 0
 377 822 406 851 442 851 c 0
 479 851 507 822 507 786 c 0
 507 751 479 722 442 722 c 0
267 722 m 0
 232 722 203 750 203 786 c 0
 203 822 232 851 267 851 c 0
 303 851 333 822 333 786 c 0
 333 750 303 722 267 722 c 0
413 -3 m 0
 397 -3 396 10 396 22 c 0
 396 42 410 45 422 45 c 0
 440 45 452 46 463 46 c 0
 495 48 503 61 493 89 c 0
 469 152 449 206 426 269 c 0
 424 273 414 278 405 278 c 0
 360 279 292 278 256 278 c 0
 246 279 240 271 236 265 c 0
 218 212 189 135 174 95 c 0
 170 83 169 73 169 65 c 0
 169 42 214 42 233 44 c 0
 239 45 245 45 253 44 c 0
 260 43 265 30 265 19 c 0
 264 8 257 -3 253 -3 c 0
 194 -2 92 0 39 -3 c 0
 35 -3 32 -3 28 -3 c 0
 13 0 12 22 14 33 c 0
 16 42 24 45 28 45 c 0
 76 45 81 47 100 92 c 0
 106 107 112 121 116 132 c 2
 300 633 l 1
 294 657 l 2
 292 664 301 671 314 672 c 0
 323 672 344 672 346 672 c 0
 362 672 383 674 393 659 c 0
 510 353 556 229 578 172 c 0
 587 146 596 120 605 95 c 0
 621 51 628 42 670 42 c 2
 677 42 l 2
 695 42 697 -5 676 -4 c 0
 613 -1 483 -1 413 -3 c 0
326 512 m 0
 309 460 283 393 268 353 c 0
 267 348 272 347 275 345 c 0
 310 346 358 346 387 345 c 0
 390 345 394 353 392 358 c 0
 377 398 353 471 338 521 c 0
 335 528 332 531 326 512 c 0
EndSplineSet
EndChar

StartChar: Aring
Encoding: 276 197 117
Width: 711
Flags: W
LayerCount: 2
Fore
SplineSet
347 722 m 0
 290 722 244 768 244 825 c 0
 244 882 290 928 347 928 c 0
 402 928 448 882 448 825 c 0
 448 768 402 722 347 722 c 0
347 873 m 0
 320 873 299 852 299 825 c 0
 299 798 320 777 347 777 c 0
 371 777 393 798 393 825 c 0
 393 852 371 873 347 873 c 0
413 -3 m 0
 397 -3 396 10 396 22 c 0
 396 42 410 45 422 45 c 0
 440 45 452 46 463 46 c 0
 495 48 503 61 493 89 c 0
 469 152 449 206 426 269 c 0
 424 273 414 278 405 278 c 0
 360 279 292 278 256 278 c 0
 246 279 240 271 236 265 c 0
 218 212 189 135 174 95 c 0
 170 83 169 73 169 65 c 0
 169 42 214 42 233 44 c 0
 239 45 245 45 253 44 c 0
 260 43 265 30 265 19 c 0
 264 8 257 -3 253 -3 c 0
 194 -2 92 0 39 -3 c 0
 35 -3 32 -3 28 -3 c 0
 13 0 12 22 14 33 c 0
 16 42 24 45 28 45 c 0
 76 45 81 47 100 92 c 0
 106 107 112 121 116 132 c 2
 300 633 l 1
 294 657 l 2
 292 664 301 671 314 672 c 0
 323 672 344 672 346 672 c 0
 362 672 383 674 393 659 c 0
 510 353 556 229 578 172 c 0
 587 146 596 120 605 95 c 0
 621 51 628 42 670 42 c 2
 677 42 l 2
 695 42 697 -5 676 -4 c 0
 613 -1 483 -1 413 -3 c 0
326 512 m 0
 309 460 283 393 268 353 c 0
 267 348 272 347 275 345 c 0
 310 346 358 346 387 345 c 0
 390 345 394 353 392 358 c 0
 377 398 353 471 338 521 c 0
 335 528 332 531 326 512 c 0
EndSplineSet
EndChar

StartChar: Ccedilla
Encoding: 277 199 118
Width: 762
Flags: W
LayerCount: 2
Fore
SplineSet
422 -71 m 0
 451 -83 471 -112 471 -148 c 0
 471 -201 429 -253 377 -253 c 0
 365 -253 352 -252 336 -246 c 0
 322 -240 323 -235 327 -229 c 0
 329 -226 332 -219 334 -217 c 0
 336 -212 343 -210 348 -211 c 0
 357 -213 363 -214 367 -214 c 0
 390 -214 409 -185 409 -164 c 0
 409 -145 398 -133 385 -133 c 0
 375 -133 368 -134 333 -152 c 0
 323 -156 316 -144 325 -129 c 2
 384 -31 l 2
 390 -21 380 -18 374 -17 c 0
 184 -1 55 136 55 318 c 0
 55 523 205 665 423 665 c 0
 487 665 525 654 586 631 c 0
 599 626 617 618 629 628 c 0
 636 634 660 631 662 624 c 0
 670 586 672 558 671 534 c 0
 671 512 670 493 671 474 c 1
 667 457 639 451 631 464 c 0
 598 560 530 617 429 617 c 0
 273 617 178 509 178 338 c 0
 178 163 287 34 443 34 c 0
 508 34 553 54 600 96 c 0
 625 119 632 128 657 173 c 0
 663 187 704 187 699 168 c 0
 683 116 656 54 627 6 c 1
 611 10 609 10 602 10 c 0
 570 10 557 5 527 -5 c 0
 499 -14 469 -17 440 -18 c 0
 434 -19 428 -22 424 -28 c 2
 409 -57 l 2
 405 -65 414 -68 422 -71 c 0
EndSplineSet
EndChar

StartChar: Eacute
Encoding: 278 201 119
Width: 619
Flags: W
LayerCount: 2
Fore
SplineSet
425 868 m 1
 425 866 l 2
 424 865 424 863 423 862 c 2
 283 692 l 2
 274 683 242 684 249 706 c 2
 297 868 l 2
 300 879 311 885 320 885 c 2
 407 886 l 2
 417 886 427 882 426 869 c 0
 425 868 425 868 425 868 c 1
565 17 m 0
 563 -4 535 -2 521 -2 c 0
 387 -2 172 -2 42 -3 c 1
 37 -2 l 2
 15 2 22 42 39 44 c 0
 53 46 66 45 81 45 c 0
 141 47 149 54 149 138 c 2
 149 513 l 2
 149 592 145 607 77 607 c 0
 64 607 53 605 45 619 c 0
 41 626 45 638 49 645 c 0
 54 655 62 653 71 653 c 0
 201 654 413 655 508 653 c 0
 520 653 531 647 532 638 c 0
 540 566 539 531 541 502 c 0
 539 492 522 490 511 494 c 0
 501 496 500 505 500 510 c 0
 487 588 476 595 399 597 c 0
 366 597 309 599 268 598 c 0
 263 597 254 586 254 581 c 2
 254 382 l 2
 254 372 261 366 263 366 c 2
 378 366 l 2
 453 366 454 367 463 435 c 0
 464 436 496 463 503 425 c 1
 505 374 503 292 503 248 c 0
 502 220 464 227 462 239 c 0
 452 304 451 307 376 307 c 2
 263 307 l 2
 258 306 254 304 254 298 c 2
 254 132 l 2
 254 58 254 57 323 57 c 2
 401 57 l 2
 475 57 488 61 503 79 c 0
 516 95 529 122 538 157 c 0
 540 167 546 170 552 172 c 0
 564 173 576 170 579 164 c 0
 578 92 568 44 565 17 c 0
EndSplineSet
EndChar

StartChar: Ntilde
Encoding: 279 209 120
Width: 834
Flags: W
LayerCount: 2
Fore
SplineSet
568 839 m 0
 568 767 526 711 465 711 c 0
 437 711 405 725 368 751 c 0
 331 776 324 778 313 778 c 0
 299 778 290 771 282 737 c 0
 282 731 280 724 279 718 c 0
 273 707 245 701 242 720 c 0
 246 805 279 858 343 858 c 0
 374 858 398 848 442 818 c 0
 472 797 487 792 497 792 c 0
 512 792 523 799 531 852 c 0
 531 858 540 863 548 863 c 0
 554 864 565 861 566 852 c 0
 568 846 568 842 568 839 c 0
786 607 m 0
 713 605 710 602 710 529 c 2
 710 9 l 2
 710 -18 663 -13 655 -4 c 0
 490 184 364 330 216 498 c 0
 211 503 198 515 198 505 c 2
 198 142 l 2
 198 122 197 96 203 77 c 0
 209 60 220 50 245 48 c 0
 257 47 294 52 300 38 c 0
 306 23 304 -3 283 -3 c 0
 222 -2 112 -1 52 -4 c 0
 47 -4 40 1 37 8 c 0
 31 22 34 44 57 44 c 0
 118 44 126 74 126 96 c 2
 126 590 l 1
 109 601 84 606 49 607 c 0
 42 607 40 619 40 630 c 0
 40 646 49 650 61 651 c 0
 116 654 168 650 202 651 c 0
 209 651 223 645 230 637 c 2
 630 181 l 2
 633 176 640 189 640 197 c 2
 640 512 l 2
 640 562 640 581 629 590 c 0
 624 595 617 599 605 601 c 0
 591 603 573 603 551 605 c 0
 533 606 529 652 551 651 c 0
 628 648 704 650 794 652 c 0
 804 652 805 634 805 627 c 0
 806 611 800 607 786 607 c 0
EndSplineSet
EndChar

StartChar: Odieresis
Encoding: 280 214 121
Width: 827
Flags: W
LayerCount: 2
Fore
SplineSet
502 695 m 0
 466 695 437 724 437 759 c 0
 437 795 466 824 502 824 c 0
 538 824 567 795 567 759 c 0
 567 724 538 695 502 695 c 0
327 695 m 0
 292 695 262 723 262 759 c 0
 262 795 292 824 327 824 c 0
 363 824 392 795 392 759 c 0
 392 723 363 695 327 695 c 0
413 -19 m 0
 205 -19 50 125 50 312 c 0
 50 515 202 667 415 667 c 0
 623 667 772 527 772 339 c 0
 772 138 619 -19 413 -19 c 0
387 619 m 0
 256 619 171 506 171 338 c 0
 171 162 278 30 430 30 c 0
 598 30 651 160 651 309 c 0
 651 491 546 619 387 619 c 0
EndSplineSet
EndChar

StartChar: Udieresis
Encoding: 281 220 122
Width: 815
Flags: W
LayerCount: 2
Fore
SplineSet
533 695 m 0
 497 695 467 724 467 759 c 0
 467 795 497 824 533 824 c 0
 569 824 597 795 597 759 c 0
 597 724 569 695 533 695 c 0
308 695 m 0
 273 695 243 723 243 759 c 0
 243 795 272 824 308 824 c 0
 344 824 373 795 373 759 c 0
 373 723 344 695 308 695 c 0
780 611 m 0
 708 608 694 593 694 488 c 2
 694 306 l 2
 694 204 693 129 610 55 c 0
 552 4 501 -19 403 -19 c 0
 267 -19 183 35 139 132 c 0
 118 178 116 201 116 296 c 2
 116 553 l 2
 116 603 111 609 38 610 c 0
 27 610 11 650 38 652 c 0
 66 654 223 654 305 652 c 0
 326 652 321 608 304 610 c 2
 295 610 l 2
 239 610 230 597 228 547 c 0
 228 532 227 518 227 504 c 2
 227 311 l 2
 227 168 267 57 426 57 c 0
 529 57 584 99 611 171 c 0
 627 215 626 259 626 305 c 2
 626 484 l 2
 626 593 615 607 542 609 c 1
 535 611 l 2
 522 613 517 652 536 652 c 0
 586 653 719 653 780 652 c 0
 788 652 794 642 794 632 c 0
 794 625 791 613 780 611 c 0
EndSplineSet
EndChar

StartChar: aacute
Encoding: 282 225 123
Width: 414
Flags: W
LayerCount: 2
Fore
SplineSet
323 644 m 1
 323 642 l 2
 323 641 322 639 321 638 c 2
 182 469 l 2
 174 459 142 461 149 483 c 2
 196 644 l 2
 199 655 210 661 219 661 c 2
 305 661 l 2
 315 661 326 658 324 645 c 0
 323 644 323 644 323 644 c 1
227 35 m 0
 184 0 163 -12 125 -12 c 0
 67 -12 25 26 25 81 c 0
 25 135 64 168 132 186 c 0
 167 195 189 206 222 221 c 0
 225 224 230 228 230 234 c 2
 229 297 l 2
 228 352 206 379 169 379 c 0
 150 379 119 359 119 341 c 0
 119 329 118 327 123 316 c 1
 114 306 67 285 60 283 c 0
 41 277 31 279 31 303 c 0
 31 330 57 360 94 390 c 0
 131 419 156 431 189 431 c 0
 232 431 278 407 302 373 c 0
 318 350 319 341 319 279 c 2
 319 102 l 2
 319 60 327 59 335 59 c 0
 351 59 361 65 373 76 c 0
 378 79 379 80 385 80 c 0
 400 77 401 58 396 47 c 1
 355 11 315 -12 289 -12 c 0
 260 -12 243 4 235 34 c 0
 234 38 231 38 227 35 c 0
221 176 m 0
 201 166 181 157 160 148 c 0
 122 133 110 117 110 94 c 0
 110 67 131 46 159 46 c 0
 176 46 221 73 229 93 c 1
 229 160 l 2
 229 168 226 178 221 176 c 0
EndSplineSet
EndChar

StartChar: agrave
Encoding: 283 224 124
Width: 414
Flags: W
LayerCount: 2
Fore
SplineSet
233 474 m 0
 202 515 145 583 102 629 c 0
 92 641 107 657 121 657 c 2
 195 658 l 2
 205 658 213 657 218 647 c 0
 234 602 257 528 267 485 c 1
 267 463 241 466 233 474 c 0
227 35 m 0
 184 0 163 -12 125 -12 c 0
 67 -12 25 26 25 81 c 0
 25 135 64 168 132 186 c 0
 167 195 189 206 222 221 c 0
 225 224 230 228 230 234 c 2
 229 297 l 2
 228 352 206 379 169 379 c 0
 150 379 119 359 119 341 c 0
 119 329 118 327 123 316 c 1
 114 306 67 285 60 283 c 0
 41 277 31 279 31 303 c 0
 31 330 57 360 94 390 c 0
 131 419 156 431 189 431 c 0
 232 431 278 407 302 373 c 0
 318 350 319 341 319 279 c 2
 319 102 l 2
 319 60 327 59 335 59 c 0
 351 59 361 65 373 76 c 0
 378 79 379 80 385 80 c 0
 400 77 401 58 396 47 c 1
 355 11 315 -12 289 -12 c 0
 260 -12 243 4 235 34 c 0
 234 38 231 38 227 35 c 0
221 176 m 0
 201 166 181 157 160 148 c 0
 122 133 110 117 110 94 c 0
 110 67 131 46 159 46 c 0
 176 46 221 73 229 93 c 1
 229 160 l 2
 229 168 226 178 221 176 c 0
EndSplineSet
EndChar

StartChar: acircumflex
Encoding: 284 226 125
Width: 414
Flags: W
LayerCount: 2
Fore
SplineSet
323 474 m 0
 316 472 304 473 299 477 c 2
 188 572 l 1
 84 477 l 2
 72 467 45 476 53 489 c 2
 140 636 l 2
 144 642 150 646 156 648 c 0
 164 649 207 650 220 649 c 0
 231 648 235 646 241 637 c 2
 327 494 l 2
 330 487 334 477 323 474 c 0
227 35 m 0
 184 0 163 -12 125 -12 c 0
 67 -12 25 26 25 81 c 0
 25 135 64 168 132 186 c 0
 167 195 189 206 222 221 c 0
 225 224 230 228 230 234 c 2
 229 297 l 2
 228 352 206 379 169 379 c 0
 150 379 119 359 119 341 c 0
 119 329 118 327 123 316 c 1
 114 306 67 285 60 283 c 0
 41 277 31 279 31 303 c 0
 31 330 57 360 94 390 c 0
 131 419 156 431 189 431 c 0
 232 431 278 407 302 373 c 0
 318 350 319 341 319 279 c 2
 319 102 l 2
 319 60 327 59 335 59 c 0
 351 59 361 65 373 76 c 0
 378 79 379 80 385 80 c 0
 400 77 401 58 396 47 c 1
 355 11 315 -12 289 -12 c 0
 260 -12 243 4 235 34 c 0
 234 38 231 38 227 35 c 0
221 176 m 0
 201 166 181 157 160 148 c 0
 122 133 110 117 110 94 c 0
 110 67 131 46 159 46 c 0
 176 46 221 73 229 93 c 1
 229 160 l 2
 229 168 226 178 221 176 c 0
EndSplineSet
EndChar

StartChar: adieresis
Encoding: 285 228 126
Width: 414
Flags: W
LayerCount: 2
Fore
SplineSet
290 475 m 0
 257 475 229 502 229 537 c 0
 229 570 257 598 290 598 c 0
 325 598 351 570 351 537 c 0
 351 503 325 475 290 475 c 0
126 475 m 0
 93 475 65 501 65 537 c 0
 65 570 93 598 126 598 c 0
 160 598 187 570 187 537 c 0
 187 501 159 475 126 475 c 0
227 35 m 0
 184 0 163 -12 125 -12 c 0
 67 -12 25 26 25 81 c 0
 25 135 64 168 132 186 c 0
 167 195 189 206 222 221 c 0
 225 224 230 228 230 234 c 2
 229 297 l 2
 228 352 206 379 169 379 c 0
 150 379 119 359 119 341 c 0
 119 329 118 327 123 316 c 1
 114 306 67 285 60 283 c 0
 41 277 31 279 31 303 c 0
 31 330 57 360 94 390 c 0
 131 419 156 431 189 431 c 0
 232 431 278 407 302 373 c 0
 318 350 319 341 319 279 c 2
 319 102 l 2
 319 60 327 59 335 59 c 0
 351 59 361 65 373 76 c 0
 378 79 379 80 385 80 c 0
 400 77 401 58 396 47 c 1
 355 11 315 -12 289 -12 c 0
 260 -12 243 4 235 34 c 0
 234 38 231 38 227 35 c 0
221 176 m 0
 201 166 181 157 160 148 c 0
 122 133 110 117 110 94 c 0
 110 67 131 46 159 46 c 0
 176 46 221 73 229 93 c 1
 229 160 l 2
 229 168 226 178 221 176 c 0
EndSplineSet
EndChar

StartChar: atilde
Encoding: 286 227 127
Width: 414
Flags: W
LayerCount: 2
Fore
SplineSet
265 467 m 0
 237 467 205 479 168 504 c 0
 132 528 125 532 114 532 c 0
 100 532 91 525 84 493 c 0
 83 487 81 481 81 475 c 0
 75 464 47 459 44 476 c 0
 48 558 81 607 144 607 c 0
 175 607 198 598 242 569 c 0
 272 550 286 545 296 545 c 0
 311 545 322 551 329 602 c 0
 330 607 338 612 347 612 c 0
 353 613 363 610 364 602 c 0
 366 596 366 592 366 589 c 0
 366 521 325 467 265 467 c 0
227 35 m 0
 184 0 163 -12 125 -12 c 0
 67 -12 25 26 25 81 c 0
 25 135 64 168 132 186 c 0
 167 195 189 206 222 221 c 0
 225 224 230 228 230 234 c 2
 229 297 l 2
 228 352 206 379 169 379 c 0
 150 379 119 359 119 341 c 0
 119 329 118 327 123 316 c 1
 114 306 67 285 60 283 c 0
 41 277 31 279 31 303 c 0
 31 330 57 360 94 390 c 0
 131 419 156 431 189 431 c 0
 232 431 278 407 302 373 c 0
 318 350 319 341 319 279 c 2
 319 102 l 2
 319 60 327 59 335 59 c 0
 351 59 361 65 373 76 c 0
 378 79 379 80 385 80 c 0
 400 77 401 58 396 47 c 1
 355 11 315 -12 289 -12 c 0
 260 -12 243 4 235 34 c 0
 234 38 231 38 227 35 c 0
221 176 m 0
 201 166 181 157 160 148 c 0
 122 133 110 117 110 94 c 0
 110 67 131 46 159 46 c 0
 176 46 221 73 229 93 c 1
 229 160 l 2
 229 168 226 178 221 176 c 0
EndSplineSet
EndChar

StartChar: aring
Encoding: 287 229 128
Width: 414
Flags: W
LayerCount: 2
Fore
SplineSet
197 474 m 0
 140 474 94 520 94 577 c 0
 94 634 140 680 197 680 c 0
 252 680 298 634 298 577 c 0
 298 520 252 474 197 474 c 0
197 625 m 0
 170 625 149 604 149 577 c 0
 149 550 170 529 197 529 c 0
 221 529 243 550 243 577 c 0
 243 604 221 625 197 625 c 0
227 35 m 0
 184 0 163 -12 125 -12 c 0
 67 -12 25 26 25 81 c 0
 25 135 64 168 132 186 c 0
 167 195 189 206 222 221 c 0
 225 224 230 228 230 234 c 2
 229 297 l 2
 228 352 206 379 169 379 c 0
 150 379 119 359 119 341 c 0
 119 329 118 327 123 316 c 1
 114 306 67 285 60 283 c 0
 41 277 31 279 31 303 c 0
 31 330 57 360 94 390 c 0
 131 419 156 431 189 431 c 0
 232 431 278 407 302 373 c 0
 318 350 319 341 319 279 c 2
 319 102 l 2
 319 60 327 59 335 59 c 0
 351 59 361 65 373 76 c 0
 378 79 379 80 385 80 c 0
 400 77 401 58 396 47 c 1
 355 11 315 -12 289 -12 c 0
 260 -12 243 4 235 34 c 0
 234 38 231 38 227 35 c 0
221 176 m 0
 201 166 181 157 160 148 c 0
 122 133 110 117 110 94 c 0
 110 67 131 46 159 46 c 0
 176 46 221 73 229 93 c 1
 229 160 l 2
 229 168 226 178 221 176 c 0
EndSplineSet
EndChar

StartChar: ccedilla
Encoding: 288 231 129
Width: 432
Flags: W
LayerCount: 2
Fore
SplineSet
390 90 m 0
 353 33 305 -3 248 -13 c 1
 232 -43 l 2
 231 -45 229 -52 233 -53 c 0
 269 -62 300 -95 300 -136 c 0
 300 -190 253 -234 200 -234 c 0
 186 -234 174 -233 157 -227 c 0
 150 -225 146 -213 150 -204 c 0
 152 -202 153 -200 154 -197 c 0
 161 -184 180 -194 190 -194 c 0
 214 -194 237 -174 237 -153 c 0
 237 -116 195 -112 161 -141 c 0
 154 -147 132 -141 141 -125 c 2
 200 -26 l 2
 205 -19 200 -15 196 -15 c 0
 98 -6 30 81 30 192 c 0
 30 326 138 432 271 432 c 0
 332 432 392 408 392 364 c 0
 392 340 374 322 352 322 c 0
 329 322 313 333 288 358 c 0
 267 379 254 384 236 384 c 0
 177 384 120 308 120 214 c 0
 120 115 175 48 248 48 c 0
 295 48 331 73 358 111 c 0
 360 117 369 129 381 126 c 0
 385 124 393 115 394 110 c 0
 397 103 392 93 390 90 c 0
EndSplineSet
EndChar

StartChar: eacute
Encoding: 289 233 130
Width: 432
Flags: W
LayerCount: 2
Fore
SplineSet
345 638 m 2
 207 469 l 2
 198 459 166 461 173 483 c 2
 221 644 l 2
 224 655 235 661 243 661 c 2
 329 661 l 2
 340 661 350 657 348 646 c 0
 348 643 347 640 345 638 c 2
386 260 m 0
 311 257 194 259 132 260 c 0
 115 260 113 238 113 227 c 0
 113 128 172 58 251 58 c 0
 296 58 331 75 367 119 c 0
 372 124 380 127 387 125 c 0
 398 123 406 107 400 97 c 0
 352 40 292 -15 212 -15 c 0
 105 -15 26 82 26 202 c 0
 26 331 113 429 232 429 c 0
 301 429 348 401 376 340 c 0
 384 323 391 308 403 293 c 1
 409 277 406 261 386 260 c 0
210 388 m 0
 174 388 144 363 125 312 c 0
 122 304 138 302 142 302 c 2
 277 302 l 2
 283 302 295 303 294 309 c 0
 280 362 249 388 210 388 c 0
EndSplineSet
EndChar

StartChar: egrave
Encoding: 290 232 131
Width: 432
Flags: W
LayerCount: 2
Fore
SplineSet
257 474 m 0
 225 515 168 583 127 629 c 0
 115 641 132 657 145 657 c 2
 219 658 l 2
 230 658 237 657 242 647 c 0
 259 602 280 528 291 485 c 1
 291 463 265 466 257 474 c 0
386 260 m 0
 311 257 194 259 132 260 c 0
 115 260 113 238 113 227 c 0
 113 128 172 58 251 58 c 0
 296 58 331 75 367 119 c 0
 372 124 380 127 387 125 c 0
 398 123 406 107 400 97 c 0
 352 40 292 -15 212 -15 c 0
 105 -15 26 82 26 202 c 0
 26 331 113 429 232 429 c 0
 301 429 348 401 376 340 c 0
 384 323 391 308 403 293 c 1
 409 277 406 261 386 260 c 0
210 388 m 0
 174 388 144 363 125 312 c 0
 122 304 138 302 142 302 c 2
 277 302 l 2
 283 302 295 303 294 309 c 0
 280 362 249 388 210 388 c 0
EndSplineSet
EndChar

StartChar: ecircumflex
Encoding: 291 234 132
Width: 432
Flags: W
LayerCount: 2
Fore
SplineSet
365 474 m 0
 358 472 346 473 341 477 c 2
 230 572 l 1
 126 477 l 2
 114 467 87 476 95 489 c 2
 182 636 l 2
 186 642 192 646 198 648 c 0
 206 649 249 650 262 649 c 0
 273 648 277 646 283 637 c 2
 369 494 l 2
 372 487 376 477 365 474 c 0
386 260 m 0
 311 257 194 259 132 260 c 0
 115 260 113 238 113 227 c 0
 113 128 172 58 251 58 c 0
 296 58 331 75 367 119 c 0
 372 124 380 127 387 125 c 0
 398 123 406 107 400 97 c 0
 352 40 292 -15 212 -15 c 0
 105 -15 26 82 26 202 c 0
 26 331 113 429 232 429 c 0
 301 429 348 401 376 340 c 0
 384 323 391 308 403 293 c 1
 409 277 406 261 386 260 c 0
210 388 m 0
 174 388 144 363 125 312 c 0
 122 304 138 302 142 302 c 2
 277 302 l 2
 283 302 295 303 294 309 c 0
 280 362 249 388 210 388 c 0
EndSplineSet
EndChar

StartChar: edieresis
Encoding: 292 235 133
Width: 432
Flags: W
LayerCount: 2
Fore
SplineSet
314 475 m 0
 281 475 253 502 253 537 c 0
 253 570 281 598 314 598 c 0
 349 598 375 570 375 537 c 0
 375 503 349 475 314 475 c 0
151 475 m 0
 117 475 89 501 89 537 c 0
 89 570 117 598 151 598 c 0
 184 598 212 570 212 537 c 0
 212 501 184 475 151 475 c 0
386 260 m 0
 311 257 194 259 132 260 c 0
 115 260 113 238 113 227 c 0
 113 128 172 58 251 58 c 0
 296 58 331 75 367 119 c 0
 372 124 380 127 387 125 c 0
 398 123 406 107 400 97 c 0
 352 40 292 -15 212 -15 c 0
 105 -15 26 82 26 202 c 0
 26 331 113 429 232 429 c 0
 301 429 348 401 376 340 c 0
 384 323 391 308 403 293 c 1
 409 277 406 261 386 260 c 0
210 388 m 0
 174 388 144 363 125 312 c 0
 122 304 138 302 142 302 c 2
 277 302 l 2
 283 302 295 303 294 309 c 0
 280 362 249 388 210 388 c 0
EndSplineSet
EndChar

StartChar: iacute
Encoding: 293 237 134
Width: 266
Flags: W
LayerCount: 2
Fore
SplineSet
246 639 m 2
 112 477 l 2
 104 467 73 469 79 490 c 2
 125 645 l 2
 128 655 139 661 147 661 c 2
 231 661 l 2
 240 661 250 658 249 647 c 0
 249 644 247 641 246 639 c 2
247 10 m 0
 247 0 240 -4 227 -3 c 0
 181 0 83 -2 34 -3 c 0
 29 -3 21 7 20 17 c 0
 19 28 23 41 32 41 c 0
 102 47 95 53 95 128 c 2
 95 304 l 2
 95 330 95 340 92 346 c 0
 89 351 79 352 74 353 c 0
 59 356 49 360 35 364 c 0
 23 368 25 393 33 399 c 0
 67 412 111 428 151 441 c 0
 179 450 182 427 182 412 c 2
 182 128 l 2
 182 108 182 91 183 77 c 0
 185 45 187 44 224 44 c 0
 237 45 245 40 247 28 c 0
 247 25 247 13 247 10 c 0
EndSplineSet
EndChar

StartChar: igrave
Encoding: 294 236 135
Width: 266
Flags: W
LayerCount: 2
Fore
SplineSet
157 482 m 0
 126 521 71 586 30 630 c 0
 20 642 35 657 48 657 c 2
 120 658 l 2
 128 658 136 658 143 648 c 0
 158 604 179 534 189 492 c 1
 189 471 164 474 157 482 c 0
247 10 m 0
 247 0 240 -4 227 -3 c 0
 181 0 83 -2 34 -3 c 0
 29 -3 21 7 20 17 c 0
 19 28 23 41 32 41 c 0
 102 47 95 53 95 128 c 2
 95 304 l 2
 95 330 95 340 92 346 c 0
 89 351 79 352 74 353 c 0
 59 356 49 360 35 364 c 0
 23 368 25 393 33 399 c 0
 67 412 111 428 151 441 c 0
 179 450 182 427 182 412 c 2
 182 128 l 2
 182 108 182 91 183 77 c 0
 185 45 187 44 224 44 c 0
 237 45 245 40 247 28 c 0
 247 25 247 13 247 10 c 0
EndSplineSet
EndChar

StartChar: icircumflex
Encoding: 295 238 136
Width: 266
Flags: W
LayerCount: 2
Fore
SplineSet
247 10 m 0
 247 0 240 -4 227 -3 c 0
 181 0 83 -2 34 -3 c 0
 29 -3 21 7 20 17 c 0
 19 28 23 41 32 41 c 0
 102 47 95 53 95 128 c 2
 95 304 l 2
 95 330 95 340 92 346 c 0
 89 351 79 352 74 353 c 0
 59 356 49 360 35 364 c 0
 23 368 25 393 33 399 c 0
 67 412 111 428 151 441 c 0
 179 450 182 427 182 412 c 2
 182 128 l 2
 182 108 182 91 183 77 c 0
 185 45 187 44 224 44 c 0
 237 45 245 40 247 28 c 0
 247 25 247 13 247 10 c 0
272 474 m 0
 265 472 253 473 248 477 c 2
 137 572 l 1
 33 477 l 2
 21 467 -6 476 2 489 c 2
 89 636 l 2
 93 642 99 646 105 648 c 0
 113 649 156 650 169 649 c 0
 180 648 184 646 190 637 c 2
 276 494 l 2
 279 487 283 477 272 474 c 0
EndSplineSet
EndChar

StartChar: idieresis
Encoding: 296 239 137
Width: 266
Flags: W
LayerCount: 2
Fore
SplineSet
219 481 m 0
 184 481 155 508 155 541 c 0
 155 574 184 601 219 601 c 0
 255 601 282 574 282 541 c 0
 282 508 255 481 219 481 c 0
47 481 m 0
 12 481 -16 507 -16 541 c 0
 -16 574 12 601 47 601 c 0
 83 601 111 574 111 541 c 0
 111 507 82 481 47 481 c 0
247 10 m 0
 247 0 240 -4 227 -3 c 0
 181 0 83 -2 34 -3 c 0
 29 -3 21 7 20 17 c 0
 19 28 23 41 32 41 c 0
 102 47 95 53 95 128 c 2
 95 304 l 2
 95 330 95 340 92 346 c 0
 89 351 79 352 74 353 c 0
 59 356 49 360 35 364 c 0
 23 368 25 393 33 399 c 0
 67 412 111 428 151 441 c 0
 179 450 182 427 182 412 c 2
 182 128 l 2
 182 108 182 91 183 77 c 0
 185 45 187 44 224 44 c 0
 237 45 245 40 247 28 c 0
 247 25 247 13 247 10 c 0
EndSplineSet
EndChar

StartChar: ntilde
Encoding: 297 241 138
Width: 523
Flags: W
LayerCount: 2
Fore
SplineSet
426 619 m 0
 426 547 385 492 324 492 c 0
 296 492 264 505 226 531 c 0
 190 556 183 559 172 559 c 0
 157 559 149 552 141 517 c 0
 141 511 139 505 138 499 c 0
 132 487 104 482 101 500 c 0
 105 586 138 638 202 638 c 0
 233 638 257 628 301 598 c 0
 331 577 346 572 356 572 c 0
 371 572 382 579 389 632 c 0
 390 638 399 643 407 643 c 0
 413 644 424 641 424 633 c 0
 426 626 426 622 426 619 c 0
506 36 m 0
 511 28 512 4 502 -1 c 0
 498 -2 493 -2 489 -2 c 0
 440 -3 354 0 303 -2 c 0
 287 -3 283 4 282 19 c 0
 282 29 287 41 295 41 c 2
 302 41 l 1
 343 45 352 54 355 91 c 0
 361 148 361 206 361 264 c 0
 361 339 339 367 296 367 c 0
 271 367 225 345 182 312 c 1
 182 93 l 2
 182 45 189 41 236 41 c 0
 242 41 249 29 250 19 c 0
 250 5 245 -2 231 -3 c 0
 181 -1 95 -4 44 -2 c 2
 40 -2 l 2
 34 -2 28 0 25 6 c 0
 21 18 25 39 38 39 c 2
 44 39 l 2
 84 39 93 48 93 136 c 2
 93 271 l 2
 93 328 92 343 90 348 c 0
 88 352 88 354 57 361 c 2
 37 365 l 2
 23 367 27 397 37 402 c 0
 57 408 96 424 123 434 c 0
 133 438 143 442 152 444 c 0
 173 449 182 443 182 422 c 2
 182 378 l 2
 182 371 185 361 190 364 c 0
 230 392 288 431 336 431 c 0
 440 431 450 319 450 249 c 0
 450 190 443 131 443 71 c 0
 443 47 446 41 485 41 c 1
 492 45 501 43 506 36 c 0
EndSplineSet
EndChar

StartChar: oacute
Encoding: 298 243 139
Width: 518
Flags: W
LayerCount: 2
Fore
SplineSet
396 642 m 2
 396 641 l 2
 395 638 255 469 255 469 c 2
 246 459 214 461 221 483 c 2
 269 645 l 2
 273 655 283 661 291 661 c 2
 378 661 l 2
 388 661 400 657 397 646 c 0
 397 645 397 643 396 642 c 2
260 -15 m 0
 130 -15 32 82 32 209 c 0
 32 338 129 434 257 434 c 0
 386 434 486 336 485 208 c 0
 485 83 386 -15 260 -15 c 0
243 387 m 0
 179 387 128 327 128 240 c 0
 128 121 195 32 272 32 c 0
 336 32 387 93 387 184 c 0
 387 297 319 387 243 387 c 0
EndSplineSet
EndChar

StartChar: ograve
Encoding: 299 242 140
Width: 518
Flags: W
LayerCount: 2
Fore
SplineSet
306 474 m 0
 274 515 217 583 174 629 c 0
 163 641 180 657 193 657 c 2
 268 658 l 2
 276 658 284 658 291 647 c 0
 308 602 330 528 339 485 c 0
 341 462 313 467 306 474 c 0
260 -15 m 0
 130 -15 32 82 32 209 c 0
 32 338 129 434 257 434 c 0
 386 434 486 336 485 208 c 0
 485 83 386 -15 260 -15 c 0
243 387 m 0
 179 387 128 327 128 240 c 0
 128 121 195 32 272 32 c 0
 336 32 387 93 387 184 c 0
 387 297 319 387 243 387 c 0
EndSplineSet
EndChar

StartChar: ocircumflex
Encoding: 300 244 141
Width: 518
Flags: W
LayerCount: 2
Fore
SplineSet
485 206 m 0
 485 82 386 -15 260 -15 c 0
 130 -15 32 81 32 207 c 0
 32 335 129 430 257 430 c 0
 386 430 486 333 485 206 c 0
387 183 m 0
 387 295 319 384 243 384 c 0
 179 384 128 324 128 238 c 0
 128 120 195 32 272 32 c 0
 336 32 387 93 387 183 c 0
391 483 m 0
 384 481 372 482 367 486 c 2
 256 581 l 1
 152 486 l 2
 140 476 113 485 121 498 c 2
 208 645 l 2
 212 651 218 655 224 657 c 0
 232 658 275 659 288 658 c 0
 299 657 303 655 309 646 c 2
 395 503 l 2
 398 496 402 486 391 483 c 0
EndSplineSet
EndChar

StartChar: odieresis
Encoding: 301 246 142
Width: 518
Flags: W
LayerCount: 2
Fore
SplineSet
342 475 m 0
 309 475 281 502 281 537 c 0
 281 570 309 598 342 598 c 0
 377 598 404 570 404 537 c 0
 404 503 377 475 342 475 c 0
178 475 m 0
 145 475 117 501 117 537 c 0
 117 570 145 598 178 598 c 0
 211 598 239 570 239 537 c 0
 239 501 211 475 178 475 c 0
260 -15 m 0
 130 -15 32 82 32 208 c 0
 32 337 129 433 257 433 c 0
 386 433 486 335 485 207 c 0
 485 83 386 -15 260 -15 c 0
243 387 m 0
 179 387 128 326 128 240 c 0
 128 121 195 32 272 32 c 0
 336 32 387 93 387 184 c 0
 387 297 319 387 243 387 c 0
EndSplineSet
EndChar

StartChar: otilde
Encoding: 302 245 143
Width: 518
Flags: W
LayerCount: 2
Fore
SplineSet
260 -15 m 0
 130 -15 32 81 32 207 c 0
 32 335 129 430 257 430 c 0
 386 430 486 333 485 206 c 0
 485 82 386 -15 260 -15 c 0
243 384 m 0
 179 384 128 324 128 238 c 0
 128 120 195 32 272 32 c 0
 336 32 387 93 387 183 c 0
 387 295 319 384 243 384 c 0
325 478 m 0
 297 478 265 490 228 515 c 0
 192 539 185 543 174 543 c 0
 160 543 151 536 144 504 c 0
 143 498 141 492 141 486 c 0
 135 475 107 470 104 487 c 0
 108 569 141 618 204 618 c 0
 235 618 258 609 302 580 c 0
 332 561 346 556 356 556 c 0
 371 556 382 562 389 613 c 0
 390 618 398 623 407 623 c 0
 413 624 423 621 424 613 c 0
 426 607 426 603 426 600 c 0
 426 532 385 478 325 478 c 0
EndSplineSet
EndChar

StartChar: uacute
Encoding: 303 250 144
Width: 534
Flags: W
LayerCount: 2
Fore
SplineSet
388 642 m 2
 388 641 l 2
 387 638 247 469 247 469 c 2
 237 459 206 461 212 483 c 2
 260 645 l 2
 265 655 274 661 283 661 c 2
 370 661 l 2
 380 661 391 657 389 646 c 0
 389 645 388 643 388 642 c 2
350 54 m 0
 306 22 260 -10 203 -10 c 0
 122 -10 87 46 87 130 c 2
 87 337 l 2
 87 356 85 363 69 368 c 0
 56 372 43 375 30 379 c 0
 24 380 8 409 30 414 c 0
 60 421 120 438 155 445 c 0
 170 448 177 432 177 421 c 2
 177 185 l 2
 177 80 195 58 255 58 c 0
 284 58 321 78 358 107 c 0
 360 112 362 117 362 122 c 2
 362 289 l 2
 362 314 367 366 334 373 c 0
 326 374 319 375 312 377 c 0
 307 378 299 379 279 382 c 1
 267 389 268 414 282 418 c 0
 322 427 389 442 424 446 c 0
 437 447 450 442 450 425 c 2
 450 113 l 1
 450 82 l 2
 450 57 469 62 485 66 c 0
 492 68 499 70 506 72 c 0
 525 75 527 34 509 30 c 0
 480 17 432 1 398 -6 c 0
 380 -10 364 -11 363 13 c 0
 362 15 362 33 360 46 c 0
 359 59 355 58 350 54 c 0
EndSplineSet
EndChar

StartChar: ugrave
Encoding: 304 249 145
Width: 534
Flags: W
LayerCount: 2
Fore
SplineSet
297 474 m 0
 266 515 208 583 165 629 c 0
 155 641 172 657 184 657 c 2
 259 658 l 2
 267 658 276 658 283 647 c 0
 300 602 321 528 331 485 c 0
 333 462 304 467 297 474 c 0
350 54 m 0
 306 22 260 -10 203 -10 c 0
 122 -10 87 46 87 130 c 2
 87 337 l 2
 87 356 85 363 69 368 c 0
 56 372 43 375 30 379 c 0
 24 380 8 409 30 414 c 0
 60 421 120 438 155 445 c 0
 170 448 177 432 177 421 c 2
 177 185 l 2
 177 80 195 58 255 58 c 0
 284 58 321 78 358 107 c 0
 360 112 362 117 362 122 c 2
 362 289 l 2
 362 314 367 366 334 373 c 0
 326 374 319 375 312 377 c 0
 307 378 299 379 279 382 c 1
 267 389 268 414 282 418 c 0
 322 427 389 442 424 446 c 0
 437 447 450 442 450 425 c 2
 450 113 l 1
 450 82 l 2
 450 57 469 62 485 66 c 0
 492 68 499 70 506 72 c 0
 525 75 527 34 509 30 c 0
 480 17 432 1 398 -6 c 0
 380 -10 364 -11 363 13 c 0
 362 15 362 33 360 46 c 0
 359 59 355 58 350 54 c 0
EndSplineSet
EndChar

StartChar: ucircumflex
Encoding: 305 251 146
Width: 534
Flags: W
LayerCount: 2
Fore
SplineSet
390 483 m 0
 383 481 371 482 366 486 c 2
 255 581 l 1
 151 486 l 2
 139 476 112 485 120 498 c 2
 207 645 l 2
 211 651 217 655 223 657 c 0
 231 658 274 659 287 658 c 0
 298 657 302 655 308 646 c 2
 394 503 l 2
 397 496 401 486 390 483 c 0
350 54 m 0
 306 22 260 -10 203 -10 c 0
 122 -10 87 46 87 130 c 2
 87 337 l 2
 87 356 85 363 69 368 c 0
 56 372 43 375 30 379 c 0
 24 380 8 409 30 414 c 0
 60 421 120 438 155 445 c 0
 170 448 177 432 177 421 c 2
 177 185 l 2
 177 80 195 58 255 58 c 0
 284 58 321 78 358 107 c 0
 360 112 362 117 362 122 c 2
 362 289 l 2
 362 314 367 366 334 373 c 0
 326 374 319 375 312 377 c 0
 307 378 299 379 279 382 c 1
 267 389 268 414 282 418 c 0
 322 427 389 442 424 446 c 0
 437 447 450 442 450 425 c 2
 450 113 l 1
 450 82 l 2
 450 57 469 62 485 66 c 0
 492 68 499 70 506 72 c 0
 525 75 527 34 509 30 c 0
 480 17 432 1 398 -6 c 0
 380 -10 364 -11 363 13 c 0
 362 15 362 33 360 46 c 0
 359 59 355 58 350 54 c 0
EndSplineSet
EndChar

StartChar: udieresis
Encoding: 306 252 147
Width: 534
Flags: W
LayerCount: 2
Fore
SplineSet
356 475 m 0
 322 475 294 502 294 537 c 0
 294 570 322 598 356 598 c 0
 391 598 417 570 417 537 c 0
 417 503 391 475 356 475 c 0
191 475 m 0
 158 475 130 501 130 537 c 0
 130 570 158 598 191 598 c 0
 225 598 253 570 253 537 c 0
 253 501 225 475 191 475 c 0
350 54 m 0
 306 22 260 -10 203 -10 c 0
 122 -10 87 46 87 130 c 2
 87 337 l 2
 87 356 85 363 69 368 c 0
 56 372 43 375 30 379 c 0
 24 380 8 409 30 414 c 0
 60 421 120 438 155 445 c 0
 170 448 177 432 177 421 c 2
 177 185 l 2
 177 80 195 58 255 58 c 0
 284 58 321 78 358 107 c 0
 360 112 362 117 362 122 c 2
 362 289 l 2
 362 314 367 366 334 373 c 0
 326 374 319 375 312 377 c 0
 307 378 299 379 279 382 c 1
 267 389 268 414 282 418 c 0
 322 427 389 442 424 446 c 0
 437 447 450 442 450 425 c 2
 450 113 l 1
 450 82 l 2
 450 57 469 62 485 66 c 0
 492 68 499 70 506 72 c 0
 525 75 527 34 509 30 c 0
 480 17 432 1 398 -6 c 0
 380 -10 364 -11 363 13 c 0
 362 15 362 33 360 46 c 0
 359 59 355 58 350 54 c 0
EndSplineSet
EndChar

StartChar: dagger
Encoding: 178 8224 148
Width: 523
Flags: W
LayerCount: 2
Fore
SplineSet
476 352 m 0
 461 352 435 356 404 361 c 0
 374 366 340 373 306 377 c 0
 295 378 294 367 295 356 c 2
 323 -181 l 2
 328 -203 327 -232 295 -230 c 0
 271 -229 255 -229 234 -230 c 0
 202 -226 205 -199 206 -183 c 2
 235 351 l 2
 236 376 235 378 222 376 c 0
 166 368 119 364 67 354 c 0
 63 353 58 352 53 352 c 0
 34 352 28 369 28 394 c 2
 28 431 l 2
 28 453 32 468 51 468 c 0
 59 468 66 465 73 465 c 2
 214 444 l 2
 234 441 235 454 233 465 c 0
 225 535 217 593 210 664 c 0
 208 685 219 689 247 689 c 2
 284 689 l 2
 305 689 320 686 320 667 c 0
 320 595 304 531 296 459 c 0
 295 451 302 441 312 442 c 0
 330 445 359 451 394 457 c 0
 429 463 464 468 477 468 c 0
 501 468 502 451 502 431 c 2
 502 394 l 2
 502 370 497 352 476 352 c 0
EndSplineSet
EndChar

StartChar: degree
Encoding: 307 176 149
Width: 415
Flags: W
LayerCount: 2
Fore
SplineSet
208 352 m 0
 119 352 48 425 48 514 c 0
 48 604 119 677 208 677 c 0
 297 677 369 604 369 514 c 0
 369 425 297 352 208 352 c 0
208 613 m 0
 155 613 111 569 111 514 c 0
 111 460 155 416 208 416 c 0
 262 416 306 460 306 514 c 0
 306 569 262 613 208 613 c 0
EndSplineSet
EndChar

StartChar: cent
Encoding: 162 162 150
Width: 447
Flags: W
LayerCount: 2
Fore
SplineSet
370 323 m 0
 355 323 343 328 330 340 c 0
 326 344 322 338 320 333 c 2
 215 67 l 2
 206 44 256 45 267 45 c 0
 316 45 345 70 378 111 c 0
 389 124 396 117 407 110 c 0
 417 104 413 91 407 82 c 0
 361 15 302 -20 231 -20 c 0
 212 -20 202 -18 189 -15 c 0
 185 -14 182 -16 180 -22 c 0
 173 -40 162 -71 151 -100 c 0
 140 -129 129 -155 124 -166 c 0
 115 -187 106 -182 88 -178 c 0
 79 -176 79 -168 81 -162 c 2
 84 -157 l 1
 142 -9 l 2
 145 0 144 2 139 5 c 0
 84 42 48 114 48 190 c 0
 48 326 156 435 289 435 c 0
 295 435 299 435 303 434 c 0
 310 434 315 437 318 444 c 2
 360 556 l 2
 366 567 376 565 386 564 c 0
 398 564 406 557 400 543 c 2
 358 433 l 2
 355 427 358 424 361 423 c 0
 391 411 413 391 413 364 c 0
 413 341 395 323 370 323 c 0
256 386 m 0
 195 386 136 311 136 213 c 0
 136 167 149 125 173 93 c 0
 175 90 183 96 184 99 c 2
 291 375 l 1
 281 383 269 386 256 386 c 0
EndSplineSet
EndChar

StartChar: sterling
Encoding: 163 163 151
Width: 796
Flags: W
LayerCount: 2
Fore
SplineSet
731 571 m 0
 710 571 696 583 684 595 c 0
 679 599 675 603 671 608 c 0
 653 625 635 641 604 641 c 0
 580 641 552 624 529 594 c 0
 505 561 483 523 449 438 c 0
 406 330 363 222 315 117 c 0
 312 110 309 106 319 106 c 0
 367 106 412 107 460 107 c 0
 483 107 474 88 471 75 c 0
 469 66 463 56 443 57 c 2
 287 59 l 1
 268 20 250 -8 230 -36 c 0
 227 -41 228 -45 235 -43 c 0
 257 -36 280 -33 303 -33 c 0
 371 -33 421 -66 465 -99 c 0
 486 -114 507 -130 530 -143 c 0
 551 -155 572 -163 595 -163 c 0
 641 -163 675 -132 675 -97 c 0
 675 -68 647 -48 647 -19 c 0
 647 8 667 28 693 28 c 0
 729 28 750 -10 750 -52 c 0
 750 -148 651 -235 548 -235 c 0
 512 -235 472 -224 440 -203 c 0
 386 -168 319 -90 253 -90 c 0
 230 -90 212 -95 181 -110 c 2
 179 -111 l 1
 144 -181 95 -234 54 -234 c 0
 34 -234 15 -219 15 -198 c 0
 15 -157 76 -103 138 -77 c 1
 161 -36 170 -17 190 36 c 0
 193 45 201 59 191 59 c 2
 77 59 l 2
 75 59 72 58 69 58 c 0
 65 58 62 59 60 60 c 0
 49 64 54 80 56 88 c 0
 58 101 65 106 80 106 c 2
 216 106 l 1
 265 238 305 374 376 497 c 0
 432 592 520 699 643 699 c 0
 709 699 776 665 776 614 c 0
 776 588 755 571 731 571 c 0
EndSplineSet
EndChar

StartChar: section
Encoding: 167 167 152
Width: 491
Flags: W
LayerCount: 2
Fore
SplineSet
201 -237 m 0
 139 -237 67 -207 67 -160 c 0
 67 -137 86 -111 111 -111 c 0
 136 -111 149 -132 163 -149 c 0
 185 -173 212 -186 234 -186 c 0
 277 -186 316 -150 316 -116 c 0
 316 -89 303 -58 260 2 c 0
 208 77 156 152 111 232 c 0
 73 301 53 365 53 428 c 0
 53 574 161 699 291 699 c 0
 325 699 430 677 430 620 c 0
 430 595 407 572 382 572 c 0
 361 572 347 585 336 597 c 0
 331 601 327 605 323 610 c 0
 305 629 288 646 261 646 c 0
 215 646 179 612 179 572 c 0
 179 529 247 439 273 402 c 0
 380 248 411 194 430 120 c 0
 438 89 441 50 441 21 c 0
 441 -117 330 -237 201 -237 c 0
126 520 m 0
 97 443 117 356 153 286 c 0
 203 186 275 99 329 0 c 0
 345 -27 354 -44 360 -60 c 0
 363 -68 366 -67 368 -61 c 0
 377 -39 380 -16 380 12 c 0
 380 101 353 165 307 237 c 0
 269 296 229 354 191 414 c 0
 163 458 152 477 135 520 c 0
 131 530 129 530 126 520 c 0
EndSplineSet
EndChar

StartChar: bullet
Encoding: 183 8226 153
Width: 371
Flags: W
LayerCount: 2
Fore
SplineSet
186 215 m 0
 124 215 75 265 75 328 c 0
 75 390 124 441 186 441 c 0
 248 441 299 390 299 328 c 0
 299 265 248 215 186 215 c 0
EndSplineSet
EndChar

StartChar: paragraph
Encoding: 182 182 154
Width: 480
Flags: W
LayerCount: 2
Fore
SplineSet
459 602 m 2
 423 602 l 2
 415 602 415 595 415 589 c 2
 415 -228 l 2
 415 -246 412 -249 393 -249 c 2
 376 -249 l 2
 367 -249 354 -246 354 -229 c 2
 355 589 l 2
 355 596 353 600 343 600 c 2
 296 600 l 2
 289 600 288 598 288 591 c 2
 289 -232 l 2
 289 -246 280 -249 268 -249 c 2
 246 -249 l 2
 228 -249 226 -241 226 -228 c 2
 226 245 l 2
 226 252 225 254 213 254 c 0
 107 256 49 290 14 356 c 0
 -2 386 -9 420 -9 456 c 0
 -9 584 80 659 224 660 c 0
 285 660 405 658 458 661 c 0
 472 662 481 653 481 642 c 2
 481 619 l 2
 481 604 471 602 459 602 c 2
EndSplineSet
EndChar

StartChar: germandbls
Encoding: 251 223 155
Width: 545
Flags: W
LayerCount: 2
Fore
SplineSet
360 381 m 0
 445 350 504 281 504 187 c 0
 504 59 420 -17 321 -17 c 0
 291 -17 263 -2 263 27 c 0
 263 48 278 67 298 67 c 0
 312 67 323 59 334 52 c 0
 350 45 355 43 359 43 c 0
 378 43 402 89 402 175 c 0
 402 281 365 343 305 355 c 0
 290 359 272 360 255 360 c 0
 246 360 241 362 237 366 c 0
 234 370 234 377 234 381 c 0
 234 393 236 397 249 399 c 0
 333 411 379 461 379 539 c 0
 379 618 337 666 276 666 c 0
 244 666 220 651 203 625 c 0
 183 594 176 564 176 496 c 2
 176 432 l 1
 176 135 l 1
 176 91 l 2
 176 44 177 41 220 41 c 0
 236 39 241 34 241 16 c 0
 241 13 241 7 239 3 c 0
 237 -2 233 -6 225 -4 c 0
 168 -2 84 -2 36 -4 c 0
 22 -5 19 4 19 16 c 0
 19 29 19 38 36 39 c 0
 84 42 83 44 83 97 c 2
 83 135 l 1
 83 385 l 2
 83 539 91 582 134 638 c 0
 172 687 224 711 287 711 c 0
 389 711 471 641 471 548 c 0
 471 482 425 426 355 391 c 0
 349 388 351 384 360 381 c 0
EndSplineSet
EndChar

StartChar: registered
Encoding: 308 174 156
Width: 796
Flags: W
LayerCount: 2
Fore
SplineSet
396 -20 m 0
 194 -20 31 145 31 348 c 0
 31 552 194 717 396 717 c 0
 597 717 761 552 761 348 c 0
 761 145 597 -20 396 -20 c 0
396 663 m 0
 223 663 84 522 84 348 c 0
 84 174 223 33 396 33 c 0
 568 33 709 174 709 348 c 0
 709 522 568 663 396 663 c 0
580 131 m 0
 556 132 534 132 514 131 c 0
 506 131 496 135 492 140 c 2
 358 326 l 1
 343 326 l 2
 339 326 339 315 339 309 c 2
 339 224 l 1
 339 188 l 2
 339 179 343 171 383 170 c 0
 390 170 395 162 395 155 c 2
 395 144 l 2
 395 134 379 131 372 131 c 0
 324 134 260 134 220 131 c 0
 217 131 200 135 200 147 c 2
 200 157 l 2
 200 167 210 170 216 170 c 0
 246 170 250 174 250 225 c 2
 250 475 l 2
 250 528 246 529 220 530 c 0
 213 530 206 533 206 544 c 0
 206 548 206 552 206 557 c 0
 206 568 216 568 224 568 c 0
 265 565 354 567 399 568 c 0
 486 568 550 522 550 450 c 0
 550 396 518 361 459 339 c 0
 455 338 454 334 456 331 c 2
 543 207 l 2
 563 178 572 171 591 170 c 0
 599 169 602 165 602 163 c 2
 602 148 l 2
 602 134 588 131 580 131 c 0
368 525 m 0
 357 525 351 525 339 521 c 1
 339 388 l 2
 339 384 339 367 343 367 c 0
 417 367 453 398 453 444 c 0
 453 491 418 525 368 525 c 0
EndSplineSet
EndChar

StartChar: copyright
Encoding: 309 169 157
Width: 796
Flags: W
LayerCount: 2
Fore
SplineSet
400 -13 m 0
 203 -13 40 149 40 348 c 0
 40 547 203 709 400 709 c 0
 597 709 760 548 760 348 c 0
 760 149 597 -13 400 -13 c 0
400 657 m 0
 231 657 94 519 94 348 c 0
 94 178 231 39 400 39 c 0
 569 39 706 178 706 348 c 0
 706 519 569 657 400 657 c 0
395 131 m 0
 268 131 169 226 169 349 c 0
 169 480 274 577 412 577 c 0
 443 577 453 575 500 559 c 0
 509 556 513 556 515 556 c 0
 521 556 523 558 530 577 c 1
 552 577 l 2
 559 577 566 573 567 562 c 0
 567 553 574 482 575 444 c 0
 576 442 575 439 575 436 c 0
 575 430 571 425 563 425 c 2
 548 425 l 2
 541 425 538 428 536 433 c 0
 534 437 534 442 531 446 c 0
 509 506 467 535 406 535 c 0
 323 535 267 472 267 363 c 0
 267 242 321 180 411 180 c 0
 476 180 504 204 546 250 c 0
 556 261 567 252 577 246 c 0
 586 242 584 233 579 225 c 0
 531 162 472 131 395 131 c 0
EndSplineSet
EndChar

StartChar: trademark
Encoding: 310 8482 158
Width: 1025
Flags: W
LayerCount: 2
Fore
SplineSet
736 448 m 2
 846 682 l 2
 853 696 857 701 866 701 c 0
 901 700 955 701 987 701 c 0
 1002 701 1012 699 1012 681 c 0
 1012 672 1012 662 1001 661 c 0
 998 660 994 660 991 660 c 0
 961 659 957 653 957 604 c 2
 957 372 l 2
 957 324 959 320 993 318 c 0
 996 317 998 317 1001 317 c 0
 1013 317 1012 305 1012 296 c 0
 1012 283 1007 278 991 278 c 0
 948 278 862 280 820 278 c 0
 801 277 790 279 790 293 c 2
 790 308 l 2
 790 317 796 318 804 318 c 0
 807 318 810 317 814 318 c 0
 847 320 851 327 851 371 c 2
 851 539 l 2
 851 553 848 564 843 554 c 2
 721 293 l 2
 716 281 711 278 704 278 c 2
 690 278 l 2
 682 278 685 276 679 288 c 2
 555 553 l 2
 548 567 548 550 548 550 c 1
 548 372 l 2
 548 319 553 317 584 317 c 2
 599 317 l 2
 606 317 613 315 613 307 c 0
 613 298 613 279 604 276 c 2
 595 276 l 1
 577 282 481 279 462 278 c 0
 453 276 437 274 437 288 c 2
 437 299 l 2
 437 314 447 317 456 317 c 0
 490 318 494 323 494 371 c 2
 494 603 l 2
 494 656 491 659 458 660 c 0
 447 660 442 662 439 666 c 0
 437 674 437 673 437 683 c 0
 437 699 444 701 456 701 c 0
 486 700 554 699 585 700 c 0
 598 701 604 692 608 683 c 2
 726 439 l 2
 727 434 734 444 736 448 c 2
321 316 m 0
 328 313 329 289 323 282 c 0
 319 276 308 278 302 278 c 0
 253 280 175 279 142 278 c 0
 121 278 116 280 116 298 c 0
 116 307 115 314 126 317 c 0
 128 317 129 317 132 318 c 0
 164 322 166 325 166 371 c 2
 166 636 l 2
 166 648 156 649 139 649 c 0
 82 649 64 635 54 579 c 1
 32 579 l 2
 14 579 15 588 17 608 c 2
 26 680 l 2
 28 698 35 701 52 701 c 0
 130 699 296 699 384 701 c 0
 405 702 413 699 416 676 c 2
 424 603 l 2
 424 597 426 591 423 585 c 0
 421 581 416 579 406 579 c 2
 387 579 l 1
 379 635 360 649 299 649 c 0
 285 649 273 651 273 635 c 2
 273 372 l 2
 273 326 276 321 313 318 c 0
 316 318 318 318 321 316 c 0
EndSplineSet
EndChar

StartChar: acute
Encoding: 194 180 159
Width: 349
Flags: W
LayerCount: 2
Fore
SplineSet
287 643 m 2
 287 642 l 2
 286 639 152 477 152 477 c 2
 144 467 112 469 118 490 c 2
 164 645 l 2
 169 655 178 661 187 661 c 2
 269 661 l 2
 279 662 290 658 288 647 c 0
 288 645 288 644 287 643 c 2
EndSplineSet
EndChar

StartChar: dieresis
Encoding: 200 168 160
Width: 348
Flags: W
LayerCount: 2
Fore
SplineSet
260 481 m 0
 225 481 197 508 197 541 c 0
 197 574 225 601 260 601 c 0
 296 601 324 574 324 541 c 0
 324 508 296 481 260 481 c 0
89 481 m 0
 54 481 26 507 26 541 c 0
 26 574 54 601 89 601 c 0
 124 601 152 574 152 541 c 0
 152 507 124 481 89 481 c 0
EndSplineSet
EndChar

StartChar: AE
Encoding: 225 198 161
Width: 915
Flags: W
LayerCount: 2
Fore
SplineSet
861 19 m 0
 859 -1 839 -4 827 -4 c 0
 742 -1 465 -4 316 -4 c 0
 311 -4 296 -3 296 12 c 2
 296 22 l 2
 296 39 311 43 325 42 c 0
 374 41 426 44 427 103 c 2
 428 138 l 1
 428 237 l 2
 428 245 416 250 410 250 c 2
 229 250 l 2
 220 250 218 248 214 241 c 2
 134 110 l 2
 112 74 112 67 112 60 c 0
 112 50 118 38 170 38 c 0
 189 38 187 25 188 11 c 0
 189 -1 183 -6 171 -6 c 0
 119 -6 13 -2 -37 -6 c 0
 -53 -7 -54 10 -56 21 c 0
 -58 35 -49 38 -35 39 c 0
 6 44 25 59 67 129 c 0
 155 274 244 422 331 568 c 0
 337 577 344 587 344 598 c 0
 344 610 344 617 298 617 c 0
 285 617 278 620 279 630 c 2
 280 644 l 2
 282 653 286 658 298 658 c 0
 424 654 716 661 796 658 c 0
 809 658 825 650 826 641 c 0
 828 598 832 553 835 510 c 0
 835 508 835 506 834 504 c 0
 834 498 830 496 824 496 c 2
 809 496 l 2
 793 496 792 512 789 524 c 0
 775 588 761 599 738 599 c 2
 710 599 l 1
 554 599 l 2
 542 599 535 595 535 587 c 2
 535 388 l 2
 535 382 537 368 551 368 c 2
 666 370 l 2
 679 370 712 370 723 378 c 0
 732 384 737 397 744 429 c 0
 745 438 748 445 760 445 c 0
 765 444 769 445 774 445 c 0
 782 445 788 435 788 424 c 0
 788 379 787 293 789 248 c 0
 790 233 788 228 777 228 c 0
 770 226 765 226 758 227 c 0
 750 227 746 234 745 244 c 0
 737 306 729 310 668 309 c 2
 548 307 l 2
 540 307 535 298 535 287 c 2
 535 122 l 2
 535 56 546 55 603 55 c 0
 632 52 669 54 705 55 c 0
 769 57 779 60 797 83 c 0
 814 105 824 131 831 157 c 0
 833 167 833 171 846 171 c 2
 859 171 l 2
 874 171 874 157 874 147 c 0
 870 64 864 45 861 19 c 0
428 579 m 2
 428 581 428 597 419 582 c 0
 373 513 311 408 258 315 c 0
 255 311 261 310 270 310 c 2
 407 310 l 2
 417 310 428 323 428 331 c 2
 428 579 l 2
EndSplineSet
EndChar

StartChar: Oslash
Encoding: 233 216 162
Width: 851
Flags: W
LayerCount: 2
Fore
SplineSet
429 -22 m 0
 356 -22 283 -3 221 31 c 0
 214 35 203 31 196 22 c 2
 126 -60 l 2
 112 -76 106 -73 93 -62 c 0
 83 -54 79 -45 89 -34 c 2
 159 45 l 2
 166 52 172 63 164 70 c 0
 91 132 48 219 48 317 c 0
 48 520 216 675 432 675 c 0
 509 675 580 658 646 618 c 0
 650 615 658 620 664 628 c 2
 720 696 l 2
 724 700 734 706 745 698 c 2
 753 692 l 2
 764 683 759 672 749 661 c 2
 700 605 l 2
 696 600 688 589 695 583 c 0
 770 518 807 441 807 342 c 0
 807 136 641 -22 429 -22 c 0
403 627 m 0
 268 627 170 513 170 344 c 0
 170 268 189 199 226 145 c 0
 234 134 239 136 252 152 c 0
 338 256 491 437 578 532 c 0
 584 538 595 552 588 558 c 0
 539 604 475 627 403 627 c 0
610 500 m 0
 523 400 364 215 279 115 c 0
 272 107 272 93 276 89 c 0
 327 46 383 27 447 27 c 0
 528 27 583 54 629 119 c 0
 703 226 705 394 634 505 c 0
 628 515 618 510 610 500 c 0
EndSplineSet
EndChar

StartChar: plusminus
Encoding: 311 177 163
Width: 698
Flags: W
LayerCount: 2
Fore
SplineSet
388 369 m 2
 388 165 l 2
 388 142 384 140 363 140 c 0
 352 137 340 137 332 140 c 0
 320 140 315 142 313 147 c 2
 312 150 l 2
 311 157 312 158 312 165 c 2
 312 367 l 2
 312 374 306 383 300 383 c 2
 97 383 l 2
 79 383 71 385 71 407 c 2
 71 434 l 2
 71 453 81 459 103 459 c 2
 299 459 l 2
 307 459 312 468 312 475 c 2
 312 663 l 2
 312 668 311 672 311 676 c 0
 311 689 314 704 330 704 c 2
 364 704 l 2
 380 704 388 699 388 677 c 2
 388 472 l 2
 389 464 397 459 402 459 c 2
 604 459 l 2
 625 459 630 453 630 437 c 2
 630 406 l 2
 630 383 619 383 601 383 c 2
 407 383 l 2
 397 383 388 380 388 369 c 2
591 -25 m 0
 479 -26 214 -26 104 -26 c 0
 79 -26 72 -22 72 4 c 2
 72 26 l 2
 72 41 74 54 96 52 c 0
 130 49 433 49 605 52 c 0
 624 52 630 45 630 27 c 2
 630 1 l 2
 630 -24 611 -25 591 -25 c 0
EndSplineSet
EndChar

StartChar: yen
Encoding: 165 165 164
Width: 523
Flags: W
LayerCount: 2
Fore
SplineSet
514 659 m 0
 482 659 467 650 440 588 c 0
 423 548 420 544 433 544 c 2
 507 544 l 2
 521 544 527 533 527 525 c 2
 527 506 l 2
 527 492 521 484 507 484 c 2
 406 484 l 2
 400 484 396 482 394 478 c 2
 364 411 l 2
 362 406 369 404 375 404 c 2
 510 406 l 2
 517 404 527 401 527 387 c 2
 527 363 l 2
 527 349 516 344 502 344 c 2
 357 345 l 2
 353 345 335 346 333 341 c 2
 315 302 l 1
 315 129 l 2
 315 48 325 43 370 43 c 2
 381 43 l 2
 393 43 401 36 401 25 c 2
 401 11 l 2
 401 -6 392 -5 379 -4 c 0
 307 0 192 -1 141 -4 c 0
 132 -4 123 1 124 12 c 0
 126 26 122 42 142 42 c 2
 150 42 l 2
 202 42 210 43 210 129 c 2
 210 291 l 1
 189 338 l 2
 185 346 181 345 173 345 c 2
 22 345 l 2
 12 345 -1 348 -1 366 c 2
 -1 389 l 2
 -1 403 7 406 24 406 c 2
 145 404 l 2
 150 404 162 403 158 411 c 2
 132 474 l 2
 128 482 125 484 121 484 c 2
 19 484 l 2
 8 484 -1 489 -1 504 c 2
 -1 526 l 2
 -1 541 5 544 16 544 c 2
 92 544 l 2
 118 544 63 631 55 641 c 0
 43 653 31 658 12 659 c 0
 2 659 0 665 -1 672 c 0
 -4 677 -3 685 -2 690 c 0
 -4 701 6 704 12 704 c 0
 65 702 169 702 225 705 c 0
 237 706 242 699 242 692 c 0
 242 688 244 669 243 666 c 0
 242 660 238 660 231 659 c 0
 223 659 179 657 179 639 c 0
 179 637 181 629 188 614 c 2
 213 551 l 2
 215 545 227 544 234 544 c 2
 344 544 l 2
 350 544 356 548 358 553 c 0
 359 557 389 622 389 640 c 0
 389 649 385 656 357 658 c 0
 347 659 332 657 332 671 c 2
 332 687 l 2
 332 695 336 701 345 701 c 0
 406 701 451 697 512 702 c 0
 523 703 528 696 528 692 c 2
 528 673 l 2
 528 663 525 659 514 659 c 0
315 484 m 2
 253 484 l 2
 251 484 244 478 245 475 c 2
 281 388 l 2
 282 385 284 378 289 391 c 2
 325 478 l 2
 326 480 317 484 315 484 c 2
EndSplineSet
EndChar

StartChar: mu
Encoding: 312 181 165
Width: 524
Flags: W
LayerCount: 2
Fore
SplineSet
414 -23 m 0
 371 -23 344 0 332 44 c 0
 330 52 325 54 320 49 c 0
 291 17 271 2 235 -12 c 0
 203 -25 156 -31 125 -6 c 0
 121 -3 115 1 115 -8 c 0
 117 -32 121 -56 132 -110 c 0
 136 -131 139 -149 139 -164 c 0
 139 -200 116 -232 81 -232 c 0
 47 -232 27 -202 27 -165 c 0
 27 -125 40 -85 50 -48 c 0
 54 -30 58 25 58 65 c 0
 60 158 60 351 58 434 c 0
 57 468 64 475 92 475 c 2
 117 475 l 2
 150 475 159 480 161 427 c 0
 163 369 161 253 161 195 c 2
 161 162 l 2
 161 87 183 61 221 61 c 0
 254 61 288 80 325 122 c 1
 328 200 328 351 325 431 c 0
 324 463 327 474 357 475 c 2
 396 476 l 2
 418 477 429 470 429 451 c 0
 430 446 429 441 429 435 c 2
 429 134 l 2
 429 105 428 111 428 106 c 0
 428 67 442 54 453 54 c 0
 462 54 473 63 481 106 c 0
 482 113 486 116 491 116 c 2
 515 116 l 2
 519 115 524 109 524 106 c 0
 515 21 480 -23 414 -23 c 0
EndSplineSet
EndChar

StartChar: ordfeminine
Encoding: 227 170 166
Width: 272
Flags: W
LayerCount: 2
Fore
SplineSet
198 402 m 0
 181 402 170 410 163 423 c 0
 162 426 161 431 155 427 c 0
 131 409 116 402 91 402 c 0
 53 402 23 426 23 463 c 0
 23 498 52 518 95 528 c 0
 118 533 135 539 155 550 c 1
 155 592 l 2
 155 622 143 636 119 636 c 0
 112 636 105 633 97 627 c 0
 88 616 92 613 96 599 c 1
 41 574 l 2
 38 573 33 573 32 578 c 0
 27 589 27 592 27 595 c 0
 27 613 47 633 70 650 c 0
 94 667 111 674 133 674 c 0
 194 674 221 646 221 580 c 2
 221 501 l 1
 221 474 l 2
 221 456 223 453 228 453 c 0
 233 453 236 454 256 467 c 0
 261 470 265 466 265 464 c 2
 271 449 l 2
 272 446 273 443 268 439 c 0
 240 417 214 402 198 402 c 0
150 513 m 0
 145 511 140 508 133 505 c 0
 86 487 86 482 86 470 c 0
 86 455 97 444 113 444 c 0
 127 444 155 465 155 476 c 2
 155 505 l 2
 155 511 153 514 150 513 c 0
EndSplineSet
EndChar

StartChar: ordmasculine
Encoding: 235 186 167
Width: 360
Flags: W
LayerCount: 2
Fore
SplineSet
182 402 m 0
 97 402 29 460 29 538 c 0
 29 616 96 674 180 674 c 0
 264 674 331 616 331 538 c 0
 331 461 264 402 182 402 c 0
171 638 m 0
 132 638 100 605 100 556 c 0
 100 488 143 439 190 439 c 0
 229 439 261 473 261 524 c 0
 261 589 218 638 171 638 c 0
EndSplineSet
EndChar

StartChar: ae
Encoding: 241 230 168
Width: 654
Flags: W
LayerCount: 2
Fore
SplineSet
602 258 m 2
 366 258 l 2
 350 258 344 254 344 242 c 0
 344 206 348 163 355 141 c 0
 371 92 421 57 471 57 c 0
 512 57 537 72 577 114 c 0
 583 120 599 123 605 116 c 2
 612 108 l 2
 620 101 615 90 610 84 c 0
 567 34 504 -17 434 -17 c 0
 380 -17 333 8 299 52 c 0
 295 57 289 62 282 55 c 0
 241 13 184 -17 139 -17 c 0
 81 -17 36 23 36 77 c 0
 36 139 69 165 169 190 c 0
 207 200 227 209 255 227 c 1
 255 289 l 2
 255 349 231 377 191 377 c 0
 159 377 135 357 135 338 c 0
 135 325 142 312 126 305 c 2
 72 280 l 2
 53 271 45 276 45 305 c 0
 45 333 68 359 112 393 c 0
 147 420 176 431 208 431 c 0
 248 431 289 413 315 384 c 0
 323 376 325 382 332 388 c 0
 367 417 409 433 458 433 c 0
 544 433 578 388 610 315 c 0
 614 306 616 303 627 292 c 1
 627 275 l 2
 627 260 614 258 602 258 c 2
436 389 m 0
 393 389 363 360 350 303 c 0
 349 300 364 300 366 300 c 2
 505 300 l 2
 508 300 516 304 515 305 c 0
 504 360 471 389 436 389 c 0
255 165 m 2
 255 169 254 176 248 174 c 0
 235 167 218 159 191 150 c 0
 137 132 125 118 125 91 c 0
 125 60 145 43 174 43 c 0
 197 43 224 56 255 85 c 1
 255 165 l 2
EndSplineSet
EndChar

StartChar: oslash
Encoding: 249 248 169
Width: 545
Flags: W
LayerCount: 2
Fore
SplineSet
488 437 m 1
 488 438 494 428 480 413 c 0
 467 398 455 383 443 369 c 0
 442 368 439 366 441 364 c 0
 484 320 505 270 505 207 c 0
 505 80 405 -18 278 -18 c 0
 232 -18 187 -5 147 20 c 0
 144 22 143 22 140 18 c 2
 87 -47 l 2
 80 -54 70 -54 63 -48 c 2
 53 -39 l 2
 38 -27 74 5 107 43 c 0
 110 46 113 48 110 50 c 0
 67 93 45 143 45 205 c 0
 45 335 144 432 275 432 c 0
 324 432 366 419 408 392 c 0
 409 392 412 395 413 397 c 2
 457 449 l 2
 464 456 471 455 477 450 c 0
 478 449 487 439 488 437 c 1
355 338 m 0
 328 370 296 386 261 386 c 0
 195 386 145 326 145 237 c 0
 145 196 151 160 168 125 c 0
 169 124 177 124 178 127 c 2
 351 325 l 2
 354 328 357 335 355 338 c 0
375 290 m 2
 200 88 l 2
 198 86 195 79 196 78 c 0
 223 46 255 30 289 30 c 0
 354 30 407 91 407 182 c 0
 407 218 399 253 383 288 c 0
 381 293 378 294 375 290 c 2
EndSplineSet
EndChar

StartChar: questiondown
Encoding: 191 191 170
Width: 371
Flags: W
LayerCount: 2
Fore
SplineSet
206 313 m 0
 171 313 144 339 144 374 c 0
 144 408 171 434 206 434 c 0
 240 434 268 409 268 374 c 0
 268 339 240 313 206 313 c 0
222 -249 m 0
 114 -249 40 -169 40 -54 c 0
 40 11 64 63 111 96 c 0
 133 113 144 118 181 132 c 0
 211 143 218 153 218 169 c 0
 218 186 215 196 182 235 c 0
 170 249 183 257 186 258 c 0
 196 263 215 260 222 250 c 0
 257 206 273 172 273 136 c 0
 273 85 249 59 192 37 c 0
 106 3 85 -21 85 -69 c 0
 85 -118 117 -149 176 -149 c 0
 204 -149 226 -142 251 -142 c 0
 290 -142 320 -155 320 -189 c 0
 320 -232 276 -249 222 -249 c 0
EndSplineSet
EndChar

StartChar: exclamdown
Encoding: 161 161 171
Width: 272
Flags: W
LayerCount: 2
Fore
SplineSet
137 313 m 0
 104 313 79 339 79 374 c 0
 79 408 104 434 137 434 c 0
 170 434 195 409 195 374 c 0
 195 339 170 313 137 313 c 0
153 -249 m 2
 124 -249 l 2
 85 -249 83 -232 85 -203 c 2
 119 254 l 1
 124 266 149 266 154 254 c 1
 190 -204 l 2
 193 -233 189 -249 153 -249 c 2
EndSplineSet
EndChar

StartChar: logicalnot
Encoding: 313 172 172
Width: 698
Flags: W
LayerCount: 2
Fore
SplineSet
554 182 m 1
 554 422 l 1
 71 422 l 1
 71 497 l 1
 630 497 l 1
 630 182 l 1
 554 182 l 1
EndSplineSet
EndChar

StartChar: florin
Encoding: 166 402 173
Width: 523
Flags: W
LayerCount: 2
Fore
SplineSet
481 615 m 0
 461 615 439 632 439 655 c 0
 439 662 441 671 445 678 c 0
 448 684 449 686 449 687 c 0
 449 688 447 689 442 689 c 0
 419 689 407 677 392 593 c 0
 389 579 377 518 372 483 c 0
 371 480 370 469 375 469 c 2
 439 469 l 2
 449 469 458 464 458 455 c 2
 451 426 l 2
 449 415 438 414 429 413 c 2
 364 413 l 2
 362 413 358 409 357 406 c 0
 347 343 342 323 318 226 c 0
 301 156 283 90 266 27 c 0
 222 -136 158 -231 71 -231 c 0
 32 -231 -2 -205 -2 -165 c 0
 -2 -135 19 -108 49 -108 c 0
 72 -108 92 -126 92 -149 c 0
 92 -163 81 -175 81 -179 c 2
 81 -179 81 -178 84 -178 c 0
 108 -178 134 -138 156 -32 c 2
 200 188 l 1
 248 390 l 2
 250 396 252 412 248 413 c 2
 181 413 l 2
 170 414 165 422 168 429 c 2
 175 458 l 2
 179 468 186 470 195 471 c 0
 261 474 263 476 290 555 c 0
 327 663 352 704 403 727 c 0
 416 733 431 736 445 736 c 0
 490 736 527 708 527 665 c 0
 527 638 508 615 481 615 c 0
EndSplineSet
EndChar

StartChar: guillemotleft
Encoding: 171 171 174
Width: 371
Flags: W
LayerCount: 2
Fore
SplineSet
125 232 m 1
 217 48 l 2
 222 38 221 32 213 32 c 2
 191 32 l 2
 185 32 183 33 176 43 c 2
 37 221 l 2
 30 230 36 242 41 249 c 2
 178 422 l 2
 185 431 183 429 190 429 c 2
 212 429 l 2
 221 429 224 427 221 422 c 2
 125 232 l 1
299 412 m 2
 322 412 l 2
 330 412 330 406 327 399 c 2
 265 232 l 1
 326 64 l 2
 328 58 329 49 320 49 c 2
 299 49 l 2
 291 49 294 47 287 57 c 2
 176 223 l 2
 171 231 175 239 182 249 c 2
 286 402 l 2
 294 414 291 412 299 412 c 2
EndSplineSet
EndChar

StartChar: guillemotright
Encoding: 187 187 175
Width: 371
Flags: W
LayerCount: 2
Fore
SplineSet
247 231 m 1
 154 415 l 2
 150 424 150 430 159 430 c 2
 181 430 l 2
 187 430 189 429 196 420 c 2
 335 241 l 2
 341 233 336 220 330 214 c 2
 194 40 l 2
 187 32 189 33 182 33 c 2
 159 33 l 2
 151 33 148 35 150 40 c 2
 247 231 l 1
73 51 m 2
 50 51 l 2
 41 51 42 56 44 63 c 2
 106 230 l 1
 45 398 l 2
 43 404 42 413 51 413 c 2
 73 413 l 2
 80 413 78 415 85 405 c 2
 195 239 l 2
 201 231 196 223 190 213 c 2
 86 60 l 2
 78 49 80 51 73 51 c 2
EndSplineSet
EndChar

StartChar: ellipsis
Encoding: 188 8230 176
Width: 1056
Flags: W
LayerCount: 2
Fore
SplineSet
874 -17 m 0
 837 -17 809 10 809 42 c 0
 809 76 837 101 873 101 c 0
 911 101 937 72 937 39 c 0
 937 6 912 -17 874 -17 c 0
535 -17 m 0
 497 -17 469 6 469 38 c 0
 469 72 497 100 534 100 c 0
 571 100 598 71 598 38 c 0
 598 5 572 -17 535 -17 c 0
192 -17 m 0
 154 -17 126 9 126 42 c 0
 126 75 155 101 192 101 c 0
 229 101 255 72 255 39 c 0
 255 7 229 -17 192 -17 c 0
EndSplineSet
EndChar

StartChar: Agrave
Encoding: 315 192 178
Width: 711
Flags: W
LayerCount: 2
Fore
SplineSet
379 696 m 0
 347 738 289 806 247 852 c 0
 235 864 252 880 265 880 c 2
 340 881 l 2
 351 881 359 880 364 870 c 0
 381 825 402 751 414 707 c 1
 414 685 387 689 379 696 c 0
413 -3 m 0
 397 -3 396 10 396 22 c 0
 396 42 410 45 422 45 c 0
 440 45 452 46 463 46 c 0
 495 48 503 61 493 89 c 0
 469 152 449 206 426 269 c 0
 424 273 414 278 405 278 c 0
 360 279 292 278 256 278 c 0
 246 279 240 271 236 265 c 0
 218 212 189 135 174 95 c 0
 170 83 169 73 169 65 c 0
 169 42 214 42 233 44 c 0
 239 45 245 45 253 44 c 0
 260 43 265 30 265 19 c 0
 264 8 257 -3 253 -3 c 0
 194 -2 92 0 39 -3 c 0
 35 -3 32 -3 28 -3 c 0
 13 0 12 22 14 33 c 0
 16 42 24 45 28 45 c 0
 76 45 81 47 100 92 c 0
 106 107 112 121 116 132 c 2
 300 633 l 1
 294 657 l 2
 292 664 301 671 314 672 c 0
 323 672 344 672 346 672 c 0
 362 672 383 674 393 659 c 0
 510 353 556 229 578 172 c 0
 587 146 596 120 605 95 c 0
 621 51 628 42 670 42 c 2
 677 42 l 2
 695 42 697 -5 676 -4 c 0
 613 -1 483 -1 413 -3 c 0
326 512 m 0
 309 460 283 393 268 353 c 0
 267 348 272 347 275 345 c 0
 310 346 358 346 387 345 c 0
 390 345 394 353 392 358 c 0
 377 398 353 471 338 521 c 0
 335 528 332 531 326 512 c 0
EndSplineSet
EndChar

StartChar: Atilde
Encoding: 316 195 179
Width: 711
Flags: W
LayerCount: 2
Fore
SplineSet
508 859 m 0
 508 787 467 732 406 732 c 0
 378 732 346 745 308 771 c 0
 272 796 265 799 254 799 c 0
 239 799 231 792 223 757 c 0
 223 751 221 745 220 739 c 0
 214 727 186 722 183 740 c 0
 187 826 220 878 284 878 c 0
 315 878 339 868 383 838 c 0
 413 817 428 812 438 812 c 0
 453 812 464 819 471 872 c 0
 472 878 481 883 489 883 c 0
 495 884 506 881 506 873 c 0
 508 866 508 862 508 859 c 0
413 -3 m 0
 397 -3 396 10 396 22 c 0
 396 42 410 45 422 45 c 0
 440 45 452 46 463 46 c 0
 495 48 503 61 493 89 c 0
 469 152 449 206 426 269 c 0
 424 273 414 278 405 278 c 0
 360 279 292 278 256 278 c 0
 246 279 240 271 236 265 c 0
 218 212 189 135 174 95 c 0
 170 83 169 73 169 65 c 0
 169 42 214 42 233 44 c 0
 239 45 245 45 253 44 c 0
 260 43 265 30 265 19 c 0
 264 8 257 -3 253 -3 c 0
 194 -2 92 0 39 -3 c 0
 35 -3 32 -3 28 -3 c 0
 13 0 12 22 14 33 c 0
 16 42 24 45 28 45 c 0
 76 45 81 47 100 92 c 0
 106 107 112 121 116 132 c 2
 300 633 l 1
 294 657 l 2
 292 664 301 671 314 672 c 0
 323 672 344 672 346 672 c 0
 362 672 383 674 393 659 c 0
 510 353 556 229 578 172 c 0
 587 146 596 120 605 95 c 0
 621 51 628 42 670 42 c 2
 677 42 l 2
 695 42 697 -5 676 -4 c 0
 613 -1 483 -1 413 -3 c 0
326 512 m 0
 309 460 283 393 268 353 c 0
 267 348 272 347 275 345 c 0
 310 346 358 346 387 345 c 0
 390 345 394 353 392 358 c 0
 377 398 353 471 338 521 c 0
 335 528 332 531 326 512 c 0
EndSplineSet
EndChar

StartChar: Otilde
Encoding: 317 213 180
Width: 827
Flags: W
LayerCount: 2
Fore
SplineSet
473 701 m 0
 446 701 413 714 377 738 c 0
 340 762 333 766 323 766 c 0
 308 766 300 760 292 727 c 0
 292 721 290 715 289 710 c 0
 283 698 255 693 252 711 c 0
 256 792 289 842 352 842 c 0
 383 842 406 833 450 804 c 0
 480 784 494 779 504 779 c 0
 520 779 530 786 538 836 c 0
 539 842 547 846 555 846 c 0
 561 847 572 845 572 837 c 0
 574 831 574 826 574 824 c 0
 574 756 533 701 473 701 c 0
413 -19 m 0
 205 -19 50 125 50 312 c 0
 50 515 202 667 415 667 c 0
 623 667 772 527 772 339 c 0
 772 138 619 -19 413 -19 c 0
387 619 m 0
 256 619 171 506 171 338 c 0
 171 162 278 30 430 30 c 0
 598 30 651 160 651 309 c 0
 651 491 546 619 387 619 c 0
EndSplineSet
EndChar

StartChar: OE
Encoding: 234 338 181
Width: 1036
Flags: W
LayerCount: 2
Fore
SplineSet
979 19 m 0
 976 -4 960 -4 942 -4 c 0
 823 -4 713 -3 593 -3 c 0
 526 -3 460 -12 394 -12 c 0
 208 -12 54 135 54 321 c 0
 54 454 133 574 248 630 c 0
 297 654 346 664 418 664 c 0
 456 664 492 662 528 660 c 0
 562 658 574 657 584 657 c 0
 595 657 606 658 638 658 c 2
 922 658 l 2
 940 658 945 654 947 636 c 0
 949 624 959 516 953 503 c 0
 950 498 946 497 940 497 c 0
 926 497 918 490 913 511 c 2
 908 530 l 2
 892 594 885 599 835 599 c 2
 677 599 l 2
 676 599 651 594 651 583 c 2
 651 384 l 2
 651 372 668 368 674 368 c 2
 789 368 l 2
 827 368 840 371 848 378 c 0
 858 389 862 418 864 432 c 0
 864 437 867 448 879 448 c 2
 893 448 l 2
 905 448 905 440 906 432 c 0
 908 379 907 301 906 249 c 0
 906 241 904 228 893 228 c 2
 879 228 l 2
 868 228 864 238 864 248 c 0
 859 302 848 309 798 309 c 2
 665 309 l 2
 657 309 651 284 651 279 c 2
 651 76 l 2
 651 68 661 55 673 55 c 2
 814 55 l 2
 891 55 902 59 920 81 c 0
 935 100 949 133 953 156 c 0
 954 167 958 169 969 169 c 2
 980 169 l 2
 991 169 994 163 993 148 c 0
 993 108 984 55 979 19 c 0
539 507 m 2
 539 581 500 618 405 618 c 0
 260 618 174 517 174 341 c 0
 174 166 279 37 413 37 c 0
 449 37 477 47 501 65 c 0
 533 89 539 107 539 228 c 2
 539 507 l 2
EndSplineSet
EndChar

StartChar: oe
Encoding: 250 339 182
Width: 775
Flags: W
LayerCount: 2
Fore
SplineSet
729 258 m 2
 494 258 l 2
 481 258 471 260 471 249 c 0
 471 134 530 50 597 50 c 0
 624 50 658 69 707 118 c 0
 716 127 724 124 731 116 c 0
 740 106 745 99 734 87 c 0
 709 60 678 33 649 14 c 0
 618 -6 585 -17 552 -17 c 0
 505 -17 465 5 434 48 c 0
 433 49 432 49 432 48 c 0
 392 4 341 -17 278 -17 c 0
 148 -17 47 77 47 205 c 0
 47 329 149 431 276 431 c 0
 333 431 384 410 419 369 c 0
 421 366 424 365 430 371 c 0
 471 413 515 431 571 431 c 0
 645 431 693 399 719 333 c 0
 727 312 732 304 747 290 c 1
 747 273 l 2
 747 260 735 258 729 258 c 2
556 392 m 0
 516 392 488 364 477 304 c 0
 476 299 485 300 493 300 c 2
 622 300 l 2
 628 300 630 303 630 308 c 0
 625 359 593 392 556 392 c 0
258 386 m 0
 198 386 145 324 145 233 c 0
 145 122 216 31 287 31 c 0
 345 31 385 81 385 182 c 0
 385 307 328 386 258 386 c 0
EndSplineSet
EndChar

StartChar: endash
Encoding: 177 8211 183
Width: 610
Flags: W
LayerCount: 2
Fore
SplineSet
553 212 m 0
 431 210 207 211 54 212 c 0
 46 212 38 221 38 228 c 0
 39 242 32 267 56 271 c 0
 207 275 448 273 555 271 c 0
 566 271 574 262 574 255 c 2
 574 224 l 2
 573 214 562 212 553 212 c 0
EndSplineSet
EndChar

StartChar: emdash
Encoding: 208 8212 184
Width: 855
Flags: W
LayerCount: 2
Fore
SplineSet
764 233 m 0
 763 228 762 222 761 214 c 0
 758 208 751 201 742 201 c 0
 585 199 290 200 107 201 c 0
 99 201 85 204 86 217 c 0
 86 226 83 232 84 243 c 0
 85 250 90 263 110 263 c 0
 266 262 582 262 742 263 c 1
 762 258 767 250 764 233 c 0
EndSplineSet
EndChar

StartChar: quotedblleft
Encoding: 170 8220 185
Width: 502
Flags: W
LayerCount: 2
Fore
SplineSet
378 452 m 0
 331 452 298 491 298 540 c 0
 298 603 343 664 410 692 c 0
 417 694 429 696 436 687 c 0
 440 680 445 665 431 657 c 0
 384 631 361 598 361 570 c 0
 361 563 362 561 366 561 c 0
 373 561 380 565 388 565 c 0
 419 565 440 540 440 511 c 0
 440 477 412 452 378 452 c 0
160 452 m 0
 113 452 80 491 80 540 c 0
 80 603 125 664 192 692 c 0
 217 702 229 667 213 657 c 0
 166 630 143 598 143 570 c 0
 143 558 149 563 155 563 c 0
 161 564 164 565 170 565 c 0
 200 565 222 540 222 511 c 0
 222 477 194 452 160 452 c 0
EndSplineSet
EndChar

StartChar: quotedblright
Encoding: 186 8221 186
Width: 501
Flags: W
LayerCount: 2
Fore
SplineSet
329 455 m 0
 320 452 307 449 300 457 c 0
 294 465 290 482 303 489 c 0
 353 516 375 547 375 575 c 0
 375 578 374 590 368 584 c 1
 361 583 354 581 347 581 c 0
 318 581 295 605 295 635 c 0
 295 669 323 694 358 694 c 0
 403 694 438 656 438 605 c 0
 438 545 394 485 329 455 c 0
110 455 m 0
 100 452 89 450 82 459 c 0
 52 500 157 506 157 575 c 0
 157 583 156 586 154 586 c 0
 147 586 138 581 129 581 c 0
 99 581 77 605 77 635 c 0
 77 669 105 694 140 694 c 0
 185 694 220 656 220 605 c 0
 220 545 174 485 110 455 c 0
EndSplineSet
EndChar

StartChar: quoteleft
Encoding: 96 8216 187
Width: 272
Flags: W
LayerCount: 2
Fore
SplineSet
136 562 m 1
 142 563 148 565 154 565 c 0
 183 565 203 540 203 511 c 0
 203 477 178 452 145 452 c 0
 101 452 69 495 69 544 c 0
 69 609 115 668 182 695 c 0
 198 701 217 674 195 658 c 0
 151 631 129 598 129 570 c 0
 129 567 136 562 136 562 c 1
EndSplineSet
EndChar

StartChar: quoteright
Encoding: 39 8217 188
Width: 272
Flags: W
LayerCount: 2
Fore
SplineSet
104 456 m 0
 71 440 63 479 79 489 c 0
 125 517 146 547 146 575 c 0
 146 579 147 586 142 585 c 0
 135 583 128 581 120 581 c 0
 91 581 71 605 71 635 c 0
 71 669 98 694 130 694 c 0
 174 694 205 656 205 605 c 0
 205 545 164 486 104 456 c 0
EndSplineSet
EndChar

StartChar: divide
Encoding: 318 247 189
Width: 699
Flags: W
LayerCount: 2
Fore
SplineSet
350 499 m 0
 323 499 302 521 302 549 c 0
 303 575 326 592 350 592 c 0
 375 592 397 572 397 546 c 0
 397 520 376 499 350 499 c 0
595 301 m 2
 111 301 l 2
 100 301 74 312 74 328 c 2
 74 353 l 2
 74 374 94 376 110 376 c 2
 579 376 l 1
 596 376 l 2
 633 376 629 359 631 327 c 0
 633 304 612 301 595 301 c 2
350 87 m 0
 325 87 302 108 302 134 c 0
 302 161 325 181 350 181 c 0
 377 181 397 161 397 134 c 0
 397 109 377 87 350 87 c 0
EndSplineSet
EndChar

StartChar: ydieresis
Encoding: 319 255 190
Width: 488
Flags: W
LayerCount: 2
Fore
SplineSet
341 478 m 0
 306 478 277 507 277 542 c 0
 277 578 306 607 341 607 c 0
 377 607 406 578 406 542 c 0
 406 507 377 478 341 478 c 0
168 478 m 0
 133 478 103 506 103 542 c 0
 103 578 133 607 168 607 c 0
 203 607 232 578 232 542 c 0
 232 506 203 478 168 478 c 0
465 379 m 1
 429 376 413 361 374 254 c 2
 255 -74 l 2
 238 -121 225 -153 214 -180 c 0
 203 -206 192 -224 178 -241 c 0
 166 -256 143 -264 125 -264 c 0
 98 -264 72 -238 72 -211 c 0
 72 -184 95 -173 126 -165 c 0
 163 -155 198 -132 212 -50 c 2
 221 -6 l 1
 100 288 l 2
 66 372 64 375 19 379 c 0
 7 382 0 420 28 419 c 0
 30 419 38 419 40 419 c 0
 89 419 176 419 205 419 c 0
 235 420 223 381 213 379 c 0
 169 378 170 369 170 359 c 0
 170 354 172 347 181 327 c 0
 212 256 234 193 263 120 c 0
 266 116 270 111 271 115 c 2
 329 270 l 2
 336 289 352 329 352 349 c 0
 352 368 350 378 299 379 c 0
 290 383 286 416 302 418 c 0
 305 419 308 418 311 418 c 0
 369 418 405 419 458 419 c 0
 488 419 474 379 465 379 c 1
 465 379 l 1
EndSplineSet
EndChar

StartChar: Ydieresis
Encoding: 320 376 191
Width: 729
Flags: W
LayerCount: 2
Fore
SplineSet
459 695 m 0
 423 695 394 724 394 759 c 0
 394 795 423 824 459 824 c 0
 495 824 523 795 523 759 c 0
 523 724 495 695 459 695 c 0
284 695 m 0
 249 695 219 723 219 759 c 0
 219 795 249 824 284 824 c 0
 320 824 349 795 349 759 c 0
 349 723 320 695 284 695 c 0
717 610 m 0
 643 607 620 554 588 500 c 2
 443 254 l 1
 444 205 443 131 443 103 c 0
 443 57 468 42 508 44 c 0
 527 46 543 41 543 18 c 0
 543 9 539 -4 526 -4 c 0
 406 -2 357 0 250 -3 c 0
 232 -3 230 23 234 33 c 0
 238 44 250 46 259 46 c 0
 268 47 277 45 286 45 c 0
 320 47 334 69 336 103 c 0
 338 135 339 204 337 242 c 1
 158 523 l 2
 111 596 93 608 36 609 c 2
 32 609 l 2
 17 609 14 624 17 636 c 0
 18 646 25 652 33 652 c 0
 101 651 245 651 298 652 c 0
 313 653 327 611 295 611 c 0
 244 611 239 601 239 597 c 0
 239 588 240 583 269 538 c 2
 401 335 l 2
 405 329 414 340 419 348 c 2
 524 526 l 2
 551 572 555 581 555 590 c 0
 555 603 550 610 504 610 c 2
 493 610 l 1
 480 615 472 653 497 652 c 0
 547 651 639 650 717 652 c 0
 727 653 731 642 731 632 c 0
 731 624 726 610 717 610 c 0
EndSplineSet
EndChar

StartChar: fraction
Encoding: 164 8260 192
Width: 242
Flags: W
LayerCount: 2
Fore
SplineSet
-2 -204 m 1
 -59 -204 l 1
 288 691 l 1
 345 691 l 1
 -2 -204 l 1
EndSplineSet
EndChar

StartChar: Euro
Encoding: 321 8364 193
Width: 464
Flags: W
LayerCount: 2
Fore
SplineSet
309 201 m 2
 166 201 l 1
 177 89 207 33 272 33 c 0
 332 33 369 82 385 137 c 0
 390 155 439 156 436 138 c 0
 427 90 415 49 400 4 c 1
 391 8 385 8 381 8 c 0
 342 8 316 -14 260 -14 c 0
 166 -14 89 59 66 201 c 1
 24 201 l 2
 10 201 -1 206 -1 220 c 2
 -1 237 l 2
 -1 251 9 256 16 256 c 2
 61 256 l 1
 60 267 60 279 60 292 c 2
 60 321 l 1
 24 321 l 2
 10 321 -1 326 -1 340 c 2
 -1 357 l 2
 -1 371 9 376 16 376 c 2
 65 376 l 1
 86 539 171 614 271 614 c 0
 305 614 326 608 358 587 c 0
 365 582 374 575 381 584 c 0
 384 589 418 587 418 580 c 0
 420 532 422 501 423 451 c 0
 421 436 383 438 379 450 c 0
 361 539 324 565 271 565 c 0
 200 565 171 495 164 376 c 1
 317 376 l 2
 324 376 334 371 334 357 c 2
 334 340 l 2
 334 326 323 321 309 321 c 2
 162 321 l 1
 162 311 l 2
 162 291 162 273 163 256 c 1
 317 256 l 2
 324 256 334 251 334 237 c 2
 334 220 l 2
 334 206 323 201 309 201 c 2
EndSplineSet
EndChar

StartChar: guilsinglleft
Encoding: 172 8249 194
Width: 880
Flags: W
LayerCount: 2
Fore
SplineSet
640 -4 m 0
 633 -4 628 6 628 17 c 0
 628 30 629 44 650 41 c 0
 701 41 699 46 699 135 c 2
 699 287 l 2
 699 328 693 355 649 357 c 0
 619 357 552 360 512 358 c 0
 505 357 499 348 498 344 c 2
 497 135 l 2
 496 59 496 41 552 41 c 2
 571 41 l 2
 592 41 592 31 592 17 c 0
 592 6 585 -4 581 -4 c 0
 486 -2 412 -3 344 -5 c 0
 336 -5 331 5 331 15 c 0
 331 24 335 36 343 39 c 2
 352 39 l 2
 401 39 402 41 402 133 c 2
 402 331 l 2
 401 340 399 351 389 352 c 0
 343 355 243 354 214 351 c 0
 209 350 204 344 203 334 c 0
 203 256 201 171 203 90 c 0
 204 49 210 42 255 42 c 0
 266 42 276 43 287 41 c 0
 306 33 298 -7 285 -5 c 0
 191 -2 106 -2 39 -5 c 0
 25 -6 17 26 33 36 c 0
 39 41 45 39 52 39 c 0
 101 39 107 48 107 96 c 2
 107 334 l 2
 107 340 98 347 96 347 c 2
 53 347 l 2
 43 347 32 345 28 357 c 0
 26 364 26 378 29 385 c 0
 34 389 38 390 43 393 c 0
 69 398 87 401 108 414 c 1
 111 449 113 501 125 533 c 0
 136 565 158 592 200 631 c 0
 266 690 403 740 484 672 c 0
 500 655 513 662 518 665 c 0
 587 715 700 750 773 689 c 0
 784 680 791 665 791 653 c 0
 791 635 751 604 733 604 c 0
 721 604 714 611 706 619 c 0
 675 648 654 658 619 658 c 0
 567 658 515 614 504 561 c 0
 498 538 497 517 497 443 c 0
 497 436 501 424 509 423 c 0
 538 420 611 421 681 424 c 0
 710 425 722 425 766 440 c 0
 781 445 791 423 791 411 c 2
 791 92 l 2
 791 43 799 41 834 41 c 0
 839 42 845 42 850 41 c 0
 867 38 858 -1 849 -4 c 0
 794 -2 709 -2 640 -4 c 0
417 607 m 0
 386 636 358 641 324 641 c 0
 272 641 221 598 209 545 c 0
 204 521 203 509 203 434 c 0
 203 429 204 417 211 417 c 0
 257 414 330 414 393 419 c 0
 409 420 403 453 404 464 c 0
 406 511 412 547 431 582 c 0
 436 590 422 602 417 607 c 0
EndSplineSet
EndChar

StartChar: guilsinglright
Encoding: 173 8250 195
Width: 860
Flags: W
LayerCount: 2
Fore
SplineSet
826 -4 m 0
 823 -5 820 -4 817 -4 c 0
 771 -2 675 -2 618 -4 c 0
 610 -4 605 -3 602 6 c 0
 600 12 599 20 601 26 c 0
 605 36 609 38 618 40 c 0
 627 42 637 39 647 40 c 0
 674 43 677 49 677 135 c 2
 678 336 l 2
 678 351 672 355 666 356 c 0
 616 357 542 360 502 356 c 0
 493 355 491 352 487 337 c 1
 487 91 l 2
 487 46 494 37 539 37 c 0
 543 38 548 38 552 37 c 0
 567 34 568 -4 550 -4 c 0
 488 -2 413 -3 339 -4 c 0
 336 -4 332 0 329 5 c 0
 323 16 326 37 341 38 c 0
 381 43 390 41 391 85 c 0
 392 96 392 112 392 135 c 2
 392 327 l 2
 392 347 391 351 377 351 c 0
 337 350 259 349 218 351 c 0
 211 351 206 348 204 337 c 2
 204 134 l 2
 204 63 205 63 212 53 c 0
 218 43 220 39 257 39 c 0
 265 41 278 39 288 37 c 0
 306 29 300 -6 286 -5 c 0
 192 -1 103 -2 37 -5 c 0
 21 -6 13 32 39 39 c 0
 49 42 58 40 69 40 c 0
 97 42 108 48 108 96 c 2
 108 336 l 2
 108 344 103 347 100 347 c 2
 55 347 l 2
 44 347 35 345 29 357 c 0
 28 365 27 380 31 385 c 0
 34 392 39 390 44 393 c 0
 71 398 87 401 108 414 c 1
 111 451 113 498 125 533 c 0
 136 565 159 593 201 631 c 0
 268 691 398 741 479 673 c 0
 488 665 493 659 498 664 c 0
 536 696 575 711 624 711 c 0
 645 711 666 706 687 706 c 0
 704 706 714 710 729 729 c 1
 744 735 769 735 769 718 c 2
 769 91 l 2
 769 45 768 43 802 41 c 0
 813 41 831 45 835 30 c 0
 837 24 837 12 835 6 c 0
 833 0 831 -3 826 -4 c 0
677 620 m 1
 645 642 610 655 583 655 c 0
 559 655 540 641 525 620 c 0
 505 592 488 532 487 436 c 0
 487 426 488 422 506 422 c 0
 567 419 622 422 661 422 c 0
 667 422 677 425 677 436 c 2
 677 620 l 1
424 594 m 0
 421 598 418 601 411 607 c 0
 380 637 359 641 324 641 c 0
 273 641 222 598 210 545 c 0
 205 521 204 505 204 430 c 0
 204 425 208 417 214 417 c 0
 260 414 324 416 373 417 c 0
 389 417 392 417 393 430 c 0
 396 478 406 527 426 570 c 0
 431 582 428 588 424 594 c 0
EndSplineSet
EndChar

StartChar: fi
Encoding: 174 64257 196
Width: 559
Flags: W
LayerCount: 2
Fore
SplineSet
511 -4 m 1
 480 -2 451 -2 417 -2 c 0
 388 -2 358 0 330 -3 c 0
 321 -3 317 0 314 9 c 0
 306 36 325 36 343 38 c 0
 373 42 372 45 372 117 c 2
 372 287 l 2
 372 342 369 344 332 345 c 0
 303 345 235 346 207 345 c 0
 195 344 191 344 191 322 c 2
 191 117 l 2
 191 44 194 41 222 38 c 2
 251 35 l 2
 267 34 263 0 249 -4 c 1
 208 -2 179 -1 145 -1 c 0
 113 -1 88 -2 60 -4 c 0
 52 -4 45 -4 40 7 c 0
 37 15 37 29 50 35 c 1
 73 38 l 2
 102 42 104 45 104 117 c 2
 104 322 l 2
 104 338 101 342 89 343 c 2
 54 346 l 1
 45 351 37 370 50 378 c 0
 56 383 72 387 80 391 c 0
 89 394 104 400 104 411 c 0
 104 468 112 525 134 579 c 0
 156 630 216 715 329 715 c 0
 396 715 456 679 456 632 c 0
 456 597 426 585 410 585 c 0
 394 585 384 593 379 602 c 0
 351 649 316 665 294 665 c 0
 224 665 191 589 191 436 c 0
 191 429 191 418 194 412 c 0
 195 407 199 403 212 403 c 0
 243 402 295 402 320 403 c 0
 356 404 406 405 433 410 c 1
 439 413 l 2
 449 416 457 415 463 405 c 1
 461 368 459 320 459 280 c 2
 459 117 l 2
 459 45 462 42 491 38 c 2
 511 35 l 2
 530 33 524 2 511 -4 c 1
EndSplineSet
EndChar

StartChar: fl
Encoding: 175 64258 197
Width: 539
Flags: W
LayerCount: 2
Fore
SplineSet
515 -3 m 0
 456 -1 370 -3 310 -3 c 2
 306 -3 l 2
 300 -3 295 -1 292 7 c 0
 288 18 292 37 304 38 c 2
 312 38 l 2
 369 38 369 40 369 136 c 2
 369 336 l 2
 369 344 363 357 356 358 c 0
 307 358 239 357 194 357 c 0
 187 357 184 347 183 341 c 2
 183 92 l 2
 183 47 189 38 234 38 c 0
 238 39 243 39 246 38 c 0
 261 35 262 0 247 -3 c 2
 241 -3 l 2
 207 -3 118 1 43 -3 c 0
 16 -4 16 34 34 38 c 0
 37 39 40 38 43 38 c 0
 73 41 77 44 82 51 c 0
 89 61 91 66 91 136 c 2
 91 343 l 2
 91 352 86 355 80 356 c 2
 35 356 l 2
 25 356 22 377 25 385 c 0
 27 390 32 395 37 396 c 2
 86 417 l 2
 89 419 90 422 91 424 c 0
 95 501 115 581 168 640 c 0
 212 688 257 715 318 715 c 0
 340 715 359 710 380 710 c 0
 397 710 407 714 421 733 c 1
 436 739 457 739 459 728 c 2
 459 92 l 2
 459 51 462 40 503 40 c 0
 508 42 512 39 518 38 c 0
 529 36 535 -4 515 -3 c 0
369 621 m 1
 337 643 304 656 278 656 c 0
 253 656 234 642 219 621 c 0
 198 592 183 529 183 427 c 0
 183 422 196 423 199 423 c 0
 260 420 318 423 355 423 c 0
 361 423 368 428 369 439 c 2
 369 621 l 1
EndSplineSet
EndChar

StartChar: daggerdbl
Encoding: 179 8225 198
Width: 627
Flags: W
LayerCount: 2
Fore
SplineSet
723 619 m 0
 707 594 690 607 674 620 c 0
 648 641 610 656 583 656 c 0
 545 656 510 632 496 595 c 0
 478 542 483 485 484 431 c 0
 484 420 487 418 501 419 c 2
 568 420 l 2
 580 420 583 419 589 410 c 0
 592 402 596 369 597 359 c 0
 597 348 587 347 577 347 c 2
 499 348 l 2
 495 348 484 338 484 322 c 2
 484 137 l 2
 484 57 488 42 548 42 c 0
 557 44 571 44 580 43 c 0
 593 42 594 42 598 28 c 0
 599 24 598 20 598 17 c 0
 600 -1 595 -5 586 -5 c 0
 523 -3 403 -4 342 -5 c 0
 331 -5 327 1 327 10 c 0
 327 16 324 26 327 32 c 0
 331 40 340 42 349 42 c 0
 396 42 392 53 392 141 c 2
 392 334 l 2
 391 341 387 348 378 349 c 0
 324 350 268 349 216 348 c 0
 206 348 201 340 199 333 c 0
 199 253 197 180 199 98 c 0
 200 72 199 44 232 42 c 0
 249 41 261 43 278 40 c 0
 282 38 288 36 290 31 c 0
 293 23 291 8 289 2 c 0
 286 -4 279 -4 274 -4 c 0
 185 -2 103 -2 38 -4 c 0
 34 -4 24 -2 22 3 c 0
 17 10 14 37 36 41 c 0
 40 41 42 43 47 42 c 0
 99 42 105 49 105 100 c 2
 105 340 l 2
 105 347 97 347 95 347 c 2
 51 347 l 1
 51 347 43 347 33 348 c 0
 29 352 27 355 26 358 c 0
 24 364 22 379 27 385 c 0
 31 389 38 392 42 393 c 0
 67 398 84 401 105 414 c 1
 108 440 109 462 111 480 c 0
 119 552 143 582 197 631 c 0
 263 691 393 740 475 672 c 0
 483 662 489 665 490 665 c 0
 535 707 578 724 626 724 c 0
 659 724 716 711 739 678 c 0
 742 674 743 667 743 664 c 0
 743 653 733 634 723 619 c 0
419 595 m 0
 415 599 411 603 407 607 c 0
 376 636 354 641 320 641 c 0
 268 641 218 598 206 545 c 0
 201 521 199 505 199 430 c 0
 199 425 202 417 209 417 c 0
 253 414 322 415 370 417 c 0
 383 417 392 418 393 428 c 0
 394 482 397 537 423 585 c 0
 423 586 423 589 419 595 c 0
EndSplineSet
EndChar

StartChar: periodcentered
Encoding: 180 183 199
Width: 257
Flags: W
LayerCount: 2
Fore
SplineSet
129 287 m 0
 100 287 74 314 74 343 c 0
 74 373 100 399 129 399 c 0
 159 399 184 373 184 343 c 0
 184 314 159 287 129 287 c 0
EndSplineSet
EndChar

StartChar: quotesinglbase
Encoding: 184 8218 200
Width: 257
Flags: W
LayerCount: 2
Fore
SplineSet
75 -112 m 0
 118 -85 137 -57 137 -30 c 0
 137 -25 138 -22 133 -22 c 0
 129 -23 125 -24 120 -25 c 2
 113 -25 l 2
 86 -25 67 -2 67 26 c 0
 67 58 93 81 123 81 c 0
 164 81 191 42 191 -4 c 0
 191 -65 150 -121 88 -147 c 0
 81 -150 74 -144 71 -133 c 0
 70 -124 72 -115 75 -112 c 0
EndSplineSet
EndChar

StartChar: quotedblbase
Encoding: 185 8222 201
Width: 473
Flags: W
LayerCount: 2
Fore
SplineSet
300 -147 m 0
 285 -152 275 -119 286 -112 c 0
 332 -86 353 -57 353 -30 c 0
 353 -24 353 -22 351 -22 c 2
 350 -22 l 1
 338 -26 332 -25 327 -25 c 0
 299 -25 277 -2 277 26 c 0
 277 58 305 81 337 81 c 0
 380 81 411 43 411 -4 c 0
 411 -65 365 -122 300 -147 c 0
95 -147 m 0
 82 -152 62 -120 81 -112 c 0
 127 -85 148 -57 148 -30 c 0
 148 -24 147 -22 145 -22 c 0
 141 -22 139 -25 135 -25 c 0
 131 -26 126 -26 122 -26 c 0
 93 -26 72 -2 72 26 c 0
 72 58 100 81 132 81 c 0
 175 81 206 43 206 -4 c 0
 206 -65 160 -121 95 -147 c 0
EndSplineSet
EndChar

StartChar: perthousand
Encoding: 189 8240 202
Width: 1047
Flags: W
LayerCount: 2
Fore
SplineSet
848 -33 m 0
 770 -33 702 29 702 114 c 0
 702 202 767 264 847 264 c 0
 927 264 996 205 994 117 c 0
 992 29 929 -33 848 -33 c 0
845 222 m 0
 800 222 770 184 770 116 c 0
 770 46 802 10 848 10 c 0
 896 10 928 46 928 117 c 0
 928 187 896 222 845 222 c 0
217 317 m 0
 139 317 70 380 70 464 c 0
 70 553 136 615 215 615 c 0
 295 615 364 555 363 467 c 0
 361 380 298 317 217 317 c 0
214 572 m 0
 169 572 138 535 138 466 c 0
 138 396 170 361 217 361 c 0
 265 361 295 397 295 467 c 0
 295 538 263 572 214 572 c 0
201 -47 m 2
 194 -59 182 -62 170 -59 c 0
 148 -54 145 -44 153 -31 c 2
 538 638 l 2
 546 648 560 649 567 647 c 2
 579 643 l 2
 589 639 588 625 585 618 c 2
 201 -47 l 2
526 -33 m 0
 448 -33 379 29 379 114 c 0
 379 202 445 264 524 264 c 0
 604 264 673 205 672 117 c 0
 670 29 607 -33 526 -33 c 0
523 222 m 0
 478 222 448 184 448 116 c 0
 448 45 479 10 526 10 c 0
 574 10 605 46 605 117 c 0
 605 187 572 222 523 222 c 0
EndSplineSet
EndChar

StartChar: Acircumflex
Encoding: 322 194 203
Width: 711
Flags: W
LayerCount: 2
Fore
SplineSet
486 693 m 0
 478 691 467 691 462 696 c 2
 345 795 l 1
 235 696 l 2
 223 685 196 694 204 708 c 2
 291 862 l 2
 295 869 301 872 307 875 c 0
 316 876 370 877 383 876 c 0
 394 875 398 873 404 863 c 2
 490 713 l 2
 495 705 495 695 486 693 c 0
413 -3 m 0
 397 -3 396 10 396 22 c 0
 396 42 410 45 422 45 c 0
 440 45 452 46 463 46 c 0
 495 48 503 61 493 89 c 0
 469 152 449 206 426 269 c 0
 424 273 414 278 405 278 c 0
 360 279 292 278 256 278 c 0
 246 279 240 271 236 265 c 0
 218 212 189 135 174 95 c 0
 170 83 169 73 169 65 c 0
 169 42 214 42 233 44 c 0
 239 45 245 45 253 44 c 0
 260 43 265 30 265 19 c 0
 264 8 257 -3 253 -3 c 0
 194 -2 92 0 39 -3 c 0
 35 -3 32 -3 28 -3 c 0
 13 0 12 22 14 33 c 0
 16 42 24 45 28 45 c 0
 76 45 81 47 100 92 c 0
 106 107 112 121 116 132 c 2
 300 633 l 1
 294 657 l 2
 292 664 301 671 314 672 c 0
 323 672 344 672 346 672 c 0
 362 672 383 674 393 659 c 0
 510 353 556 229 578 172 c 0
 587 146 596 120 605 95 c 0
 621 51 628 42 670 42 c 2
 677 42 l 2
 695 42 697 -5 676 -4 c 0
 613 -1 483 -1 413 -3 c 0
326 512 m 0
 309 460 283 393 268 353 c 0
 267 348 272 347 275 345 c 0
 310 346 358 346 387 345 c 0
 390 345 394 353 392 358 c 0
 377 398 353 471 338 521 c 0
 335 528 332 531 326 512 c 0
EndSplineSet
EndChar

StartChar: Ecircumflex
Encoding: 323 202 204
Width: 619
Flags: W
LayerCount: 2
Fore
SplineSet
452 696 m 0
 444 694 432 694 427 699 c 2
 311 798 l 1
 202 699 l 2
 190 688 163 697 171 711 c 2
 257 865 l 2
 261 872 267 876 273 878 c 0
 282 879 336 880 349 879 c 0
 361 878 364 876 369 866 c 2
 456 716 l 2
 460 708 461 698 452 696 c 0
565 17 m 0
 563 -4 535 -2 521 -2 c 0
 387 -2 172 -2 42 -3 c 1
 37 -2 l 2
 15 2 22 42 39 44 c 0
 53 46 66 45 81 45 c 0
 141 47 149 54 149 138 c 2
 149 513 l 2
 149 592 145 607 77 607 c 0
 64 607 53 604 45 619 c 0
 41 626 45 638 49 645 c 0
 54 655 62 653 71 653 c 0
 201 654 413 655 508 653 c 0
 520 653 531 647 532 638 c 0
 540 566 539 531 541 502 c 0
 539 492 522 490 511 494 c 0
 501 496 500 505 500 510 c 0
 487 588 476 595 399 596 c 0
 366 597 309 599 268 597 c 0
 263 597 254 586 254 581 c 2
 254 382 l 2
 254 372 261 366 263 366 c 2
 378 366 l 2
 453 366 454 367 463 435 c 0
 464 436 496 463 503 425 c 1
 505 374 503 292 503 248 c 0
 502 220 464 227 462 239 c 0
 452 304 451 307 376 307 c 2
 263 307 l 2
 258 306 254 304 254 298 c 2
 254 132 l 2
 254 58 254 57 323 57 c 2
 401 57 l 2
 475 57 488 61 503 79 c 0
 516 95 529 122 538 157 c 0
 540 167 546 170 552 172 c 0
 564 173 576 170 579 164 c 0
 578 92 568 44 565 17 c 0
EndSplineSet
EndChar

StartChar: Aacute
Encoding: 324 193 205
Width: 711
Flags: W
LayerCount: 2
Fore
SplineSet
472 890 m 2
 332 720 l 2
 324 711 290 713 297 734 c 2
 346 896 l 2
 349 907 360 913 369 913 c 0
 441 914 479 921 475 898 c 0
 474 895 474 892 472 890 c 2
413 -3 m 0
 397 -3 396 10 396 22 c 0
 396 42 410 46 422 46 c 0
 440 46 452 46 463 46 c 0
 495 48 503 61 493 89 c 0
 469 152 449 206 426 269 c 0
 424 273 414 278 405 278 c 0
 360 279 292 278 256 278 c 0
 246 279 240 271 236 265 c 0
 218 212 189 135 174 95 c 0
 170 83 169 73 169 65 c 0
 169 42 214 42 233 44 c 0
 239 45 245 45 253 44 c 0
 260 43 265 30 265 19 c 0
 264 8 257 -3 253 -3 c 0
 194 -2 92 0 39 -3 c 0
 35 -3 32 -3 28 -3 c 0
 13 0 12 22 14 33 c 0
 16 42 24 45 28 45 c 0
 76 45 81 47 100 92 c 0
 106 107 112 121 116 132 c 2
 300 633 l 1
 294 657 l 2
 292 664 301 671 314 672 c 0
 323 672 344 672 346 672 c 0
 362 672 383 674 393 659 c 0
 510 353 556 229 578 172 c 0
 587 146 596 120 605 95 c 0
 621 51 628 42 670 42 c 2
 677 42 l 2
 695 42 697 -5 676 -4 c 0
 613 -1 483 -1 413 -3 c 0
326 512 m 0
 309 460 283 393 268 353 c 0
 267 348 272 347 275 345 c 0
 310 346 358 346 387 345 c 0
 390 345 394 353 392 358 c 0
 377 398 353 471 338 521 c 0
 335 528 332 531 326 512 c 0
EndSplineSet
EndChar

StartChar: Edieresis
Encoding: 325 203 206
Width: 619
Flags: W
LayerCount: 2
Fore
SplineSet
393 698 m 0
 360 698 332 726 332 759 c 0
 332 793 360 821 393 821 c 0
 429 821 455 793 455 759 c 0
 455 726 429 698 393 698 c 0
228 698 m 0
 195 698 167 724 167 759 c 0
 167 793 194 821 228 821 c 0
 262 821 290 793 290 759 c 0
 290 724 262 698 228 698 c 0
565 17 m 0
 563 -4 535 -2 521 -2 c 0
 387 -2 172 -2 42 -3 c 1
 37 -2 l 2
 15 2 22 42 39 44 c 0
 53 46 66 45 81 45 c 0
 141 47 149 54 149 138 c 2
 149 513 l 2
 149 592 145 607 77 607 c 0
 64 607 53 604 45 619 c 0
 41 626 45 637 49 644 c 0
 54 654 62 652 71 652 c 0
 201 653 413 654 508 652 c 0
 520 652 531 646 532 637 c 0
 540 565 539 531 541 502 c 0
 539 492 522 490 511 494 c 0
 501 495 500 504 500 509 c 0
 487 588 476 595 399 596 c 0
 366 597 309 599 268 597 c 0
 263 597 254 586 254 581 c 2
 254 381 l 2
 254 372 261 366 263 366 c 2
 378 366 l 2
 453 366 454 366 463 435 c 0
 464 436 496 462 503 424 c 1
 505 374 503 292 503 248 c 0
 502 220 464 227 462 238 c 0
 452 304 451 307 376 307 c 2
 263 307 l 2
 258 306 254 303 254 297 c 2
 254 132 l 2
 254 58 254 57 323 57 c 2
 401 57 l 2
 475 57 488 61 503 79 c 0
 516 95 529 122 538 157 c 0
 540 167 546 170 552 172 c 0
 564 173 576 170 579 164 c 0
 578 92 568 44 565 17 c 0
EndSplineSet
EndChar

StartChar: Egrave
Encoding: 326 200 207
Width: 619
Flags: W
LayerCount: 2
Fore
SplineSet
336 696 m 0
 305 738 247 806 204 852 c 0
 193 864 209 880 223 880 c 2
 298 881 l 2
 306 881 315 881 322 870 c 0
 338 825 360 751 370 707 c 1
 370 685 344 688 336 696 c 0
565 17 m 0
 563 -4 535 -2 521 -2 c 0
 387 -2 172 -2 42 -3 c 1
 37 -2 l 2
 15 2 22 42 39 44 c 0
 53 46 66 45 81 45 c 0
 141 47 149 54 149 138 c 2
 149 513 l 2
 149 592 145 607 77 607 c 0
 64 607 53 604 45 619 c 0
 41 626 45 638 49 645 c 0
 54 655 62 653 71 653 c 0
 201 654 413 655 508 653 c 0
 520 653 531 647 532 638 c 0
 540 566 539 531 541 502 c 0
 539 492 522 490 511 494 c 0
 501 496 500 505 500 510 c 0
 487 588 476 595 399 597 c 0
 366 597 309 599 268 598 c 0
 263 597 254 586 254 581 c 2
 254 382 l 2
 254 372 261 366 263 366 c 2
 378 366 l 2
 453 366 454 367 463 435 c 0
 464 436 496 463 503 425 c 1
 505 374 503 292 503 248 c 0
 502 220 464 227 462 239 c 0
 452 304 451 307 376 307 c 2
 263 307 l 2
 258 306 254 304 254 298 c 2
 254 132 l 2
 254 58 254 57 323 57 c 2
 401 57 l 2
 475 57 488 61 503 79 c 0
 516 95 529 122 538 157 c 0
 540 167 546 170 552 172 c 0
 564 173 576 170 579 164 c 0
 578 92 568 44 565 17 c 0
EndSplineSet
EndChar

StartChar: Iacute
Encoding: 327 205 208
Width: 363
Flags: W
LayerCount: 2
Fore
SplineSet
280 863 m 0
 251 826 150 700 150 700 c 2
 142 691 109 692 116 714 c 2
 163 877 l 2
 168 887 177 893 186 893 c 0
 224 893 252 896 269 894 c 0
 296 892 293 879 280 863 c 0
307 610 m 0
 303 610 298 609 294 609 c 0
 240 609 233 603 233 513 c 2
 233 103 l 2
 233 45 253 46 302 43 c 0
 304 43 307 43 310 42 c 0
 324 33 325 -4 307 -3 c 0
 246 -1 129 -1 69 -3 c 0
 60 -3 52 5 52 17 c 0
 52 28 59 41 65 41 c 0
 124 47 126 53 128 103 c 2
 129 138 l 1
 129 513 l 1
 128 548 l 2
 127 596 121 606 72 611 c 0
 46 614 53 649 66 653 c 0
 67 654 69 654 71 654 c 2
 76 654 l 2
 155 653 179 648 296 654 c 0
 306 654 316 653 317 638 c 0
 318 628 315 612 307 610 c 0
EndSplineSet
EndChar

StartChar: Icircumflex
Encoding: 328 206 209
Width: 362
Flags: W
LayerCount: 2
Fore
SplineSet
318 688 m 0
 311 686 299 686 294 691 c 2
 180 790 l 1
 73 691 l 2
 61 680 35 689 43 703 c 2
 127 857 l 2
 131 864 137 868 143 870 c 0
 152 871 205 872 217 871 c 0
 228 870 232 868 238 858 c 2
 323 708 l 2
 327 700 327 690 318 688 c 0
309 610 m 0
 303 610 298 609 295 609 c 0
 240 608 232 603 232 513 c 2
 232 103 l 2
 232 45 253 45 302 43 c 0
 304 43 307 43 310 42 c 0
 330 30 319 -3 308 -3 c 0
 247 -1 129 -1 69 -3 c 0
 59 -3 51 5 51 17 c 0
 51 28 60 41 65 41 c 0
 123 47 127 53 128 103 c 2
 129 138 l 1
 129 513 l 1
 128 547 l 2
 127 596 122 606 71 611 c 0
 46 614 53 649 65 653 c 0
 67 654 69 654 70 654 c 2
 75 654 l 2
 155 653 179 648 297 654 c 0
 305 654 317 653 318 638 c 0
 319 628 315 612 309 610 c 0
EndSplineSet
EndChar

StartChar: Idieresis
Encoding: 329 207 210
Width: 363
Flags: W
LayerCount: 2
Fore
SplineSet
262 695 m 0
 227 695 199 724 199 759 c 0
 199 795 227 824 262 824 c 0
 299 824 326 795 326 759 c 0
 326 724 299 695 262 695 c 0
91 695 m 0
 56 695 28 723 28 759 c 0
 28 795 56 824 91 824 c 0
 126 824 154 795 154 759 c 0
 154 723 126 695 91 695 c 0
309 610 m 0
 304 610 300 609 295 609 c 0
 240 608 233 602 233 513 c 2
 233 103 l 2
 233 45 254 45 303 43 c 0
 305 43 308 43 311 42 c 0
 325 33 326 -4 308 -3 c 0
 247 -1 130 -1 69 -3 c 0
 60 -3 52 5 52 17 c 0
 52 28 59 41 66 41 c 0
 124 47 127 53 128 103 c 2
 129 138 l 1
 129 513 l 1
 128 547 l 2
 127 596 121 605 72 611 c 0
 47 614 53 648 66 653 c 0
 68 653 70 653 71 653 c 2
 76 653 l 2
 155 653 180 648 297 653 c 0
 307 654 317 652 318 638 c 0
 319 627 317 611 309 610 c 0
EndSplineSet
EndChar

StartChar: Igrave
Encoding: 330 204 211
Width: 363
Flags: W
LayerCount: 2
Fore
SplineSet
199 696 m 0
 168 738 112 806 71 852 c 0
 60 864 75 880 88 880 c 2
 162 881 l 2
 171 881 178 881 185 870 c 0
 202 825 223 751 233 708 c 0
 234 689 210 686 199 696 c 0
307 610 m 0
 303 610 298 609 294 609 c 0
 240 609 233 603 233 513 c 2
 233 103 l 2
 233 45 253 46 302 43 c 0
 304 43 307 43 310 42 c 0
 324 33 325 -4 307 -3 c 0
 246 -1 129 -1 69 -3 c 0
 60 -3 52 5 52 17 c 0
 52 28 59 41 65 41 c 0
 124 47 126 53 128 103 c 2
 129 138 l 1
 129 513 l 1
 128 547 l 2
 127 596 121 606 72 611 c 0
 46 614 53 649 66 653 c 0
 67 654 69 654 71 654 c 2
 76 654 l 2
 154 653 179 648 296 654 c 0
 306 654 316 653 317 638 c 0
 318 628 315 612 307 610 c 0
EndSplineSet
EndChar

StartChar: Oacute
Encoding: 331 211 212
Width: 827
Flags: W
LayerCount: 2
Fore
SplineSet
544 861 m 2
 403 691 l 2
 395 682 363 683 369 705 c 2
 418 867 l 2
 421 878 432 884 440 884 c 0
 512 885 551 892 546 869 c 0
 546 866 546 863 544 861 c 2
413 -19 m 0
 205 -19 50 125 50 312 c 0
 50 515 202 667 415 667 c 0
 623 667 772 527 772 339 c 0
 772 138 619 -19 413 -19 c 0
387 619 m 0
 256 619 171 506 171 338 c 0
 171 162 278 30 430 30 c 0
 598 30 651 160 651 309 c 0
 651 491 546 619 387 619 c 0
EndSplineSet
EndChar

StartChar: Ocircumflex
Encoding: 332 212 213
Width: 827
Flags: W
LayerCount: 2
Fore
SplineSet
543 691 m 2
 427 790 l 1
 317 691 l 2
 305 680 277 689 285 703 c 2
 373 857 l 2
 377 864 383 868 389 870 c 0
 397 871 452 872 465 871 c 0
 476 870 480 868 486 858 c 2
 571 708 l 2
 576 700 577 690 568 687 c 0
 562 686 548 685 543 691 c 2
413 -19 m 0
 205 -19 50 125 50 312 c 0
 50 515 202 667 415 667 c 0
 623 667 772 527 772 339 c 0
 772 138 619 -19 413 -19 c 0
387 619 m 0
 256 619 171 506 171 338 c 0
 171 162 278 30 430 30 c 0
 598 30 651 160 651 309 c 0
 651 491 546 619 387 619 c 0
EndSplineSet
EndChar

StartChar: Ograve
Encoding: 333 210 214
Width: 827
Flags: W
LayerCount: 2
Fore
SplineSet
454 696 m 0
 423 738 365 806 322 852 c 0
 311 864 328 880 341 880 c 2
 416 881 l 2
 427 881 435 880 440 870 c 0
 456 825 478 751 489 707 c 1
 489 685 463 689 454 696 c 0
413 -19 m 0
 205 -19 50 125 50 312 c 0
 50 515 202 667 415 667 c 0
 623 667 772 527 772 339 c 0
 772 138 619 -19 413 -19 c 0
387 619 m 0
 256 619 171 506 171 338 c 0
 171 162 278 30 430 30 c 0
 598 30 651 160 651 309 c 0
 651 491 546 619 387 619 c 0
EndSplineSet
EndChar

StartChar: Uacute
Encoding: 334 218 215
Width: 815
Flags: W
LayerCount: 2
Fore
SplineSet
532 865 m 2
 532 864 l 2
 530 861 389 691 389 691 c 2
 380 681 348 683 355 705 c 2
 403 867 l 2
 406 878 417 884 426 884 c 2
 513 885 l 2
 524 885 534 881 533 869 c 0
 533 868 532 866 532 865 c 2
780 611 m 0
 708 609 694 594 694 488 c 2
 694 307 l 2
 694 204 693 130 610 55 c 0
 552 4 501 -19 403 -19 c 0
 267 -19 185 35 141 132 c 0
 120 178 118 201 118 297 c 2
 118 554 l 2
 118 603 111 609 38 610 c 0
 27 610 11 651 38 653 c 0
 66 655 223 655 305 653 c 0
 326 652 321 609 304 610 c 2
 295 610 l 2
 239 610 227 598 225 547 c 0
 225 533 224 519 224 504 c 2
 224 311 l 2
 224 168 267 57 426 57 c 0
 529 57 584 99 611 171 c 0
 627 215 626 260 626 306 c 2
 626 484 l 2
 626 593 615 607 542 609 c 1
 535 611 l 2
 522 614 517 653 536 653 c 0
 586 654 719 654 780 653 c 0
 788 653 794 642 794 633 c 0
 794 626 791 613 780 611 c 0
EndSplineSet
EndChar

StartChar: Ucircumflex
Encoding: 335 219 216
Width: 815
Flags: W
LayerCount: 2
Fore
SplineSet
553 687 m 0
 546 686 534 686 529 691 c 2
 412 790 l 1
 302 691 l 2
 291 680 263 689 271 703 c 2
 358 857 l 2
 362 864 368 868 374 870 c 0
 383 871 437 872 451 871 c 0
 463 870 466 867 471 858 c 2
 558 708 l 2
 562 700 563 690 553 687 c 0
780 611 m 0
 708 608 694 594 694 488 c 2
 694 306 l 2
 694 204 693 130 610 55 c 0
 552 4 501 -19 403 -19 c 0
 267 -19 185 35 141 132 c 0
 120 178 118 201 118 297 c 2
 118 553 l 2
 118 603 111 609 38 610 c 0
 27 610 11 651 38 653 c 0
 66 655 223 654 305 653 c 0
 326 652 321 609 304 610 c 2
 295 610 l 2
 239 610 227 597 225 547 c 0
 225 533 224 519 224 504 c 2
 224 311 l 2
 224 168 267 57 426 57 c 0
 529 57 584 99 611 171 c 0
 627 215 626 260 626 305 c 2
 626 484 l 2
 626 593 615 607 542 609 c 1
 535 611 l 2
 522 613 517 652 536 653 c 0
 586 653 719 654 780 653 c 0
 788 653 794 642 794 632 c 0
 794 625 791 613 780 611 c 0
EndSplineSet
EndChar

StartChar: Ugrave
Encoding: 336 217 217
Width: 815
Flags: W
LayerCount: 2
Fore
SplineSet
440 696 m 0
 409 738 350 806 307 852 c 0
 297 864 312 880 326 880 c 2
 402 881 l 2
 410 881 419 881 426 870 c 0
 443 825 465 751 475 707 c 1
 475 685 448 688 440 696 c 0
780 611 m 0
 708 609 694 594 694 488 c 2
 694 307 l 2
 694 204 693 130 610 55 c 0
 552 4 501 -19 403 -19 c 0
 267 -19 185 35 141 132 c 0
 120 178 118 201 118 297 c 2
 118 554 l 2
 118 603 111 609 38 610 c 0
 27 610 11 651 38 653 c 0
 66 655 223 654 305 653 c 0
 326 652 321 609 304 610 c 2
 295 610 l 2
 239 610 227 598 225 547 c 0
 225 533 224 519 224 504 c 2
 224 311 l 2
 224 168 267 57 426 57 c 0
 529 57 584 99 611 171 c 0
 627 215 626 260 626 306 c 2
 626 484 l 2
 626 593 615 607 542 609 c 1
 535 611 l 2
 522 613 517 652 536 653 c 0
 586 654 719 654 780 653 c 0
 788 653 794 642 794 633 c 0
 794 626 791 613 780 611 c 0
EndSplineSet
EndChar

StartChar: dotlessi
Encoding: 245 305 218
Width: 266
Flags: W
LayerCount: 2
Fore
SplineSet
33 -2 m 0
 28 -2 20 7 19 17 c 0
 18 29 23 40 31 40 c 2
 43 40 l 2
 94 40 95 44 95 127 c 2
 95 302 l 2
 95 327 95 337 92 343 c 0
 89 348 79 349 74 350 c 0
 59 353 48 357 34 361 c 0
 22 365 24 390 32 396 c 2
 154 439 l 2
 170 444 180 439 180 420 c 2
 180 127 l 2
 180 107 180 90 181 77 c 0
 183 43 187 40 224 40 c 2
 235 40 l 2
 244 38 246 25 245 18 c 0
 245 8 237 -2 234 -2 c 0
 185 -1 97 -1 33 -2 c 0
EndSplineSet
EndChar

StartChar: circumflex
Encoding: 195 710 219
Width: 349
Flags: W
LayerCount: 2
Fore
SplineSet
310 473 m 0
 303 471 291 472 286 476 c 2
 172 571 l 1
 65 476 l 2
 53 466 26 475 34 488 c 2
 119 635 l 2
 123 641 129 645 135 647 c 0
 143 648 196 649 209 648 c 0
 220 647 224 645 230 636 c 2
 314 493 l 2
 317 486 321 476 310 473 c 0
EndSplineSet
EndChar

StartChar: tilde
Encoding: 196 732 220
Width: 349
Flags: W
LayerCount: 2
Fore
SplineSet
235 467 m 0
 207 467 175 479 138 504 c 0
 102 528 95 532 84 532 c 0
 70 532 61 525 54 493 c 0
 53 487 51 481 51 475 c 0
 45 464 17 459 14 476 c 0
 18 558 51 607 114 607 c 0
 145 607 168 598 212 569 c 0
 242 550 256 545 266 545 c 0
 281 545 292 551 299 602 c 0
 300 607 308 612 317 612 c 0
 323 613 333 610 334 602 c 0
 336 596 336 592 336 589 c 0
 336 521 295 467 235 467 c 0
EndSplineSet
EndChar

StartChar: macron
Encoding: 197 175 221
Width: 349
Flags: W
LayerCount: 2
Fore
SplineSet
313 500 m 2
 31 500 l 2
 12 500 9 511 9 521 c 2
 9 561 l 2
 9 572 24 575 35 575 c 2
 44 575 l 1
 316 575 l 2
 331 575 341 573 341 556 c 2
 341 518 l 2
 341 502 328 500 313 500 c 2
EndSplineSet
EndChar

StartChar: breve
Encoding: 198 728 222
Width: 349
Flags: W
LayerCount: 2
Fore
SplineSet
175 481 m 0
 94 481 33 539 25 626 c 0
 25 640 56 640 60 629 c 0
 82 589 114 572 176 572 c 0
 239 572 275 593 289 629 c 0
 292 634 300 636 308 636 c 0
 319 636 325 631 325 626 c 0
 317 539 256 481 175 481 c 0
EndSplineSet
EndChar

StartChar: dotaccent
Encoding: 199 729 223
Width: 349
Flags: W
LayerCount: 2
Fore
SplineSet
175 476 m 0
 142 476 115 504 115 537 c 0
 115 569 142 597 175 597 c 0
 208 597 235 570 235 537 c 0
 235 504 208 476 175 476 c 0
EndSplineSet
EndChar

StartChar: ring
Encoding: 202 730 224
Width: 349
Flags: W
LayerCount: 2
Fore
SplineSet
173 474 m 0
 116 474 70 520 70 577 c 0
 70 634 116 680 173 680 c 0
 228 680 274 634 274 577 c 0
 274 520 228 474 173 474 c 0
173 625 m 0
 146 625 125 604 125 577 c 0
 125 550 146 529 173 529 c 0
 197 529 219 550 219 577 c 0
 219 604 197 625 173 625 c 0
EndSplineSet
EndChar

StartChar: cedilla
Encoding: 203 184 225
Width: 349
Flags: W
LayerCount: 2
Fore
SplineSet
190 -47 m 1
 191 -47 l 1
 229 -53 257 -87 257 -129 c 0
 257 -182 216 -224 164 -224 c 0
 152 -224 139 -223 123 -217 c 0
 109 -211 113 -202 117 -195 c 0
 118 -192 119 -190 121 -188 c 0
 123 -183 130 -181 135 -182 c 0
 144 -184 150 -185 154 -185 c 0
 177 -185 195 -166 195 -145 c 0
 195 -126 187 -116 174 -116 c 0
 164 -116 153 -121 118 -139 c 0
 108 -143 95 -142 104 -126 c 2
 183 10 l 1
 220 10 l 1
 190 -47 l 1
EndSplineSet
EndChar

StartChar: hungarumlaut
Encoding: 205 733 226
Width: 349
Flags: W
LayerCount: 2
Fore
SplineSet
225 478 m 2
 223 474 213 472 205 473 c 0
 196 473 188 479 188 482 c 2
 220 651 l 2
 223 658 228 662 235 662 c 2
 324 662 l 1
 336 658 334 651 331 645 c 2
 225 478 l 2
71 477 m 1
 61 470 36 477 36 482 c 2
 68 649 l 2
 70 661 79 662 86 662 c 2
 171 662 l 2
 180 659 186 655 180 645 c 2
 71 477 l 1
EndSplineSet
EndChar

StartChar: ogonek
Encoding: 206 731 227
Width: 349
Flags: W
LayerCount: 2
Fore
SplineSet
194 -191 m 0
 124 -191 73 -153 73 -90 c 0
 73 -53 89 -15 117 13 c 1
 165 13 l 1
 147 -22 146 -30 146 -46 c 0
 146 -93 183 -129 237 -129 c 0
 255 -129 271 -126 300 -116 c 1
 320 -147 l 1
 255 -184 234 -191 194 -191 c 0
EndSplineSet
EndChar

StartChar: caron
Encoding: 207 711 228
Width: 349
Flags: W
LayerCount: 2
Fore
SplineSet
231 488 m 2
 226 482 222 481 214 481 c 2
 140 481 l 2
 130 481 120 484 118 492 c 2
 26 649 l 2
 22 655 27 660 30 662 c 0
 32 663 36 663 40 663 c 0
 47 663 55 661 59 657 c 2
 185 561 l 1
 291 657 l 2
 295 660 303 662 309 662 c 0
 318 662 326 657 326 651 c 2
 231 488 l 2
EndSplineSet
EndChar

StartChar: ff
Encoding: 337 64256 229
Width: 627
Flags: W
LayerCount: 2
Fore
SplineSet
723 619 m 0
 707 594 690 607 674 620 c 0
 648 641 610 656 583 656 c 0
 545 656 510 632 496 595 c 0
 478 542 483 485 484 431 c 0
 484 420 487 418 501 419 c 2
 568 420 l 2
 580 420 583 419 589 410 c 0
 592 402 596 369 597 359 c 0
 597 348 587 347 577 347 c 2
 499 348 l 2
 495 348 484 338 484 322 c 2
 484 137 l 2
 484 57 488 42 548 42 c 0
 557 44 571 44 580 43 c 0
 593 42 594 42 598 28 c 0
 599 24 598 20 598 17 c 0
 600 -1 595 -5 586 -5 c 0
 523 -3 403 -4 342 -5 c 0
 331 -5 327 1 327 10 c 0
 327 16 324 26 327 32 c 0
 331 40 340 42 349 42 c 0
 396 42 392 53 392 141 c 2
 392 334 l 2
 391 341 387 348 378 349 c 0
 324 350 268 349 216 348 c 0
 206 348 201 340 199 333 c 0
 199 253 197 180 199 98 c 0
 200 72 199 44 232 42 c 0
 249 41 261 43 278 40 c 0
 282 38 288 36 290 31 c 0
 293 23 291 8 289 2 c 0
 286 -4 279 -4 274 -4 c 0
 185 -2 103 -2 38 -4 c 0
 34 -4 24 -2 22 3 c 0
 17 10 14 37 36 41 c 0
 40 41 42 43 47 42 c 0
 99 42 105 49 105 100 c 2
 105 340 l 2
 105 347 97 347 95 347 c 2
 51 347 l 1
 51 347 43 347 33 348 c 0
 29 352 27 355 26 358 c 0
 24 364 22 379 27 385 c 0
 31 389 38 392 42 393 c 0
 67 398 84 401 105 414 c 1
 108 440 109 462 111 480 c 0
 119 552 143 582 197 631 c 0
 263 691 393 740 475 672 c 0
 483 662 489 665 490 665 c 0
 535 707 578 724 626 724 c 0
 659 724 716 711 739 678 c 0
 742 674 743 667 743 664 c 0
 743 653 733 634 723 619 c 0
419 595 m 0
 415 599 411 603 407 607 c 0
 376 636 354 641 320 641 c 0
 268 641 218 598 206 545 c 0
 201 521 199 505 199 430 c 0
 199 425 202 417 209 417 c 0
 253 414 322 415 370 417 c 0
 383 417 392 418 393 428 c 0
 394 482 397 537 423 585 c 0
 423 586 423 589 419 595 c 0
EndSplineSet
EndChar

StartChar: ffi
Encoding: 338 64259 230
Width: 880
Flags: W
LayerCount: 2
Fore
SplineSet
640 -4 m 0
 633 -4 628 6 628 17 c 0
 628 30 629 44 650 41 c 0
 701 41 699 46 699 135 c 2
 699 287 l 2
 699 328 693 355 649 357 c 0
 619 357 552 360 512 358 c 0
 505 357 499 348 498 344 c 2
 497 135 l 2
 496 59 496 41 552 41 c 2
 571 41 l 2
 592 41 592 31 592 17 c 0
 592 6 585 -4 581 -4 c 0
 486 -2 412 -3 344 -5 c 0
 336 -5 331 5 331 15 c 0
 331 24 335 36 343 39 c 2
 352 39 l 2
 401 39 402 41 402 133 c 2
 402 331 l 2
 401 340 399 351 389 352 c 0
 343 355 243 354 214 351 c 0
 209 350 204 344 203 334 c 0
 203 256 201 171 203 90 c 0
 204 49 210 42 255 42 c 0
 266 42 276 43 287 41 c 0
 306 33 298 -7 285 -5 c 0
 191 -2 106 -2 39 -5 c 0
 25 -6 17 26 33 36 c 0
 39 41 45 39 52 39 c 0
 101 39 107 48 107 96 c 2
 107 334 l 2
 107 340 98 347 96 347 c 2
 53 347 l 2
 43 347 32 345 28 357 c 0
 26 364 26 378 29 385 c 0
 34 389 38 390 43 393 c 0
 69 398 87 401 108 414 c 1
 111 449 113 501 125 533 c 0
 136 565 158 592 200 631 c 0
 266 690 403 740 484 672 c 0
 500 655 513 662 518 665 c 0
 587 715 700 750 773 689 c 0
 784 680 791 665 791 653 c 0
 791 635 751 604 733 604 c 0
 721 604 714 611 706 619 c 0
 675 648 654 658 619 658 c 0
 567 658 515 614 504 561 c 0
 498 538 497 517 497 443 c 0
 497 436 501 424 509 423 c 0
 538 420 611 421 681 424 c 0
 710 425 722 425 766 440 c 0
 781 445 791 423 791 411 c 2
 791 92 l 2
 791 43 799 41 834 41 c 0
 839 42 845 42 850 41 c 0
 867 38 858 -1 849 -4 c 0
 794 -2 709 -2 640 -4 c 0
417 607 m 0
 386 636 358 641 324 641 c 0
 272 641 221 598 209 545 c 0
 204 521 203 509 203 434 c 0
 203 429 204 417 211 417 c 0
 257 414 330 414 393 419 c 0
 409 420 403 453 404 464 c 0
 406 511 412 547 431 582 c 0
 436 590 422 602 417 607 c 0
EndSplineSet
EndChar

StartChar: ffl
Encoding: 339 64260 231
Width: 860
Flags: W
LayerCount: 2
Fore
SplineSet
826 -4 m 0
 823 -5 820 -4 817 -4 c 0
 771 -2 675 -2 618 -4 c 0
 610 -4 605 -3 602 6 c 0
 600 12 599 20 601 26 c 0
 605 36 609 38 618 40 c 0
 627 42 637 39 647 40 c 0
 674 43 677 49 677 135 c 2
 678 336 l 2
 678 351 672 355 666 356 c 0
 616 357 542 360 502 356 c 0
 493 355 491 352 487 337 c 1
 487 91 l 2
 487 46 494 37 539 37 c 0
 543 38 548 38 552 37 c 0
 567 34 568 -4 550 -4 c 0
 488 -2 413 -3 339 -4 c 0
 336 -4 332 0 329 5 c 0
 323 16 326 37 341 38 c 0
 381 43 390 41 391 85 c 0
 392 96 392 112 392 135 c 2
 392 327 l 2
 392 347 391 351 377 351 c 0
 337 350 259 349 218 351 c 0
 211 351 206 348 204 337 c 2
 204 134 l 2
 204 63 205 63 212 53 c 0
 218 43 220 39 257 39 c 0
 265 41 278 39 288 37 c 0
 306 29 300 -6 286 -5 c 0
 192 -1 103 -2 37 -5 c 0
 21 -6 13 32 39 39 c 0
 49 42 58 40 69 40 c 0
 97 42 108 48 108 96 c 2
 108 336 l 2
 108 344 103 347 100 347 c 2
 55 347 l 2
 44 347 35 345 29 357 c 0
 28 365 27 380 31 385 c 0
 34 392 39 390 44 393 c 0
 71 398 87 401 108 414 c 1
 111 451 113 498 125 533 c 0
 136 565 159 593 201 631 c 0
 268 691 398 741 479 673 c 0
 488 665 493 659 498 664 c 0
 536 696 575 711 624 711 c 0
 645 711 666 706 687 706 c 0
 704 706 714 710 729 729 c 1
 744 735 769 735 769 718 c 2
 769 91 l 2
 769 45 768 43 802 41 c 0
 813 41 831 45 835 30 c 0
 837 24 837 12 835 6 c 0
 833 0 831 -3 826 -4 c 0
677 620 m 1
 645 642 610 655 583 655 c 0
 559 655 540 641 525 620 c 0
 505 592 488 532 487 436 c 0
 487 426 488 422 506 422 c 0
 567 419 622 422 661 422 c 0
 667 422 677 425 677 436 c 2
 677 620 l 1
424 594 m 0
 421 598 418 601 411 607 c 0
 380 637 359 641 324 641 c 0
 273 641 222 598 210 545 c 0
 205 521 204 505 204 430 c 0
 204 425 208 417 214 417 c 0
 260 414 324 416 373 417 c 0
 389 417 392 417 393 430 c 0
 396 478 406 527 426 570 c 0
 431 582 428 588 424 594 c 0
EndSplineSet
EndChar
